<svg xmlns="http://www.w3.org/2000/svg" width="471.998" height="512" viewBox="0 0 471.998 512">
  <g id="alarm-clock" transform="translate(-20.001)">
    <g id="Group_2" data-name="Group 2">
      <g id="Group_1" data-name="Group 1">
        <path id="Path_1" data-name="Path 1" d="M53.058,98.8a19.916,19.916,0,0,0,12.8-4.641l54.306-45.287a20,20,0,1,0-25.618-30.72L40.238,63.437A20,20,0,0,0,53.058,98.8Z" fill="#7540ee"/>
        <path id="Path_2" data-name="Path 2" d="M391.838,48.87l54.306,45.287a20,20,0,1,0,25.618-30.719L417.456,18.15a20,20,0,1,0-25.618,30.72Z" fill="#7540ee"/>
        <path id="Path_3" data-name="Path 3" d="M422.877,109.122A234.234,234.234,0,0,0,275,40.761V20a20,20,0,0,0-40,0V40.933A236,236,0,0,0,89.124,442.874q6.2,6.2,12.774,11.88L85.816,481.767a20,20,0,1,0,34.37,20.461l14.21-23.87a236.466,236.466,0,0,0,243.186-.037l14.232,23.906a20,20,0,1,0,34.37-20.461l-25-41.994a20,20,0,0,0-29.049-5.871A194.419,194.419,0,0,1,256,472C147.926,472,60,384.073,60,276S147.926,80,256,80s196,87.924,196,196a196.154,196.154,0,0,1-24.161,94.355,20,20,0,1,0,35.043,19.287,236.123,236.123,0,0,0-40-280.519Z" fill="#7540ee"/>
        <path id="Path_4" data-name="Path 4" d="M255,129a20,20,0,0,0-20,20V276a20,20,0,0,0,5.858,14.143l56.568,56.568a20,20,0,0,0,28.284-28.285L275,267.714V149A20,20,0,0,0,255,129Z" fill="#7540ee"/>
      </g>
    </g>
  </g>
</svg>
