<svg xmlns="http://www.w3.org/2000/svg" width="280.689" height="280.688" viewBox="0 0 280.689 280.688">
  <path id="communication" d="M263.874,226a85.063,85.063,0,0,0,16.814-50.829c0-29.424-15.259-56.742-41-73.789C237.311,75.165,225.07,50.853,204.6,32.121,181.973,11.408,151.948,0,120.06,0S58.147,11.408,35.515,32.122C12.613,53.083,0,81.03,0,110.815a103.873,103.873,0,0,0,21.424,63.212L.8,225.046a10.964,10.964,0,0,0,14.588,14.142l58.824-25.931a126.194,126.194,0,0,0,22.777,6.332,94.391,94.391,0,0,0,33.17,32.3,103.777,103.777,0,0,0,51.586,13.983c.269.02.538.041.812.041a104.353,104.353,0,0,0,36.568-6.513L265.3,279.757a10.965,10.965,0,0,0,14.588-14.142Zm-22.719,2.311,8.283,20.49-25.677-11.319a10.964,10.964,0,0,0-8.725-.052A82.233,82.233,0,0,1,183,243.98c-.148-.006-.294-.022-.444-.022-21.607,0-42.021-8.444-56.282-22.49a127.839,127.839,0,0,0,51.608-13.509,10.965,10.965,0,1,0-9.93-19.552,107.354,107.354,0,0,1-89.624,2.866,10.96,10.96,0,0,0-8.725.052L31.249,208.232l12.913-31.943a10.964,10.964,0,0,0-1.821-11.222C28.987,149.4,21.928,130.64,21.928,110.815c0-49.012,44.021-88.886,98.131-88.886s98.131,39.874,98.131,88.886a82.465,82.465,0,0,1-13.46,44.942,10.965,10.965,0,0,0,18.4,11.935,105.18,105.18,0,0,0,15.449-39.152c12.844,12.578,20.182,29.146,20.182,46.629a63.994,63.994,0,0,1-15.783,41.917A10.965,10.965,0,0,0,241.155,228.31Zm-110.679-61.1a10.964,10.964,0,0,1-10.964,10.964h0a10.964,10.964,0,1,1,0-21.929h0A10.964,10.964,0,0,1,130.476,167.207Zm30.691-82.149c.007.152.01.3.01.459a41.077,41.077,0,0,1-24.984,37.839,8.681,8.681,0,0,0-5.172,8.059v.706a10.964,10.964,0,0,1-21.929,0v-.706a30.576,30.576,0,0,1,18.491-28.227,19.178,19.178,0,0,0,11.662-17.353c0-.105,0-.211,0-.317a19.184,19.184,0,0,0-38.369,0,10.964,10.964,0,0,1-21.929,0,41.113,41.113,0,0,1,82.223-.461Z" transform="translate(0.001)" fill="#fff"/>
</svg>
