<svg xmlns="http://www.w3.org/2000/svg" width="165" height="165" viewBox="0 0 165 165">
  <g id="copy" transform="translate(757 -7491)">
    <circle id="Ellipse_5404" data-name="Ellipse 5404" cx="82.5" cy="82.5" r="82.5" transform="translate(-757 7491)" fill="#fff"/>
    <path id="copy_1_" data-name="copy (1)" d="M39.912,75.405H11.782A11.8,11.8,0,0,1,0,63.623V23.711A11.8,11.8,0,0,1,11.782,11.929h28.13A11.8,11.8,0,0,1,51.694,23.711V63.623A11.8,11.8,0,0,1,39.912,75.405ZM11.782,17.82a5.9,5.9,0,0,0-5.891,5.891V63.623a5.9,5.9,0,0,0,5.891,5.891h28.13A5.9,5.9,0,0,0,45.8,63.623V23.711a5.9,5.9,0,0,0-5.891-5.891ZM63.476,56.259V11.782A11.8,11.8,0,0,0,51.694,0H19a2.946,2.946,0,1,0,0,5.891h32.7a5.9,5.9,0,0,1,5.891,5.891V56.259a2.946,2.946,0,0,0,5.891,0Zm0,0" transform="translate(-706.659 7535.753)" fill="#7540ee"/>
  </g>
</svg>
