<svg xmlns="http://www.w3.org/2000/svg" width="467.888" height="117.681" viewBox="0 0 467.888 117.681">
  <path id="forest_webflow" d="M151.081,46.019c0-8.393-8.162-17.308-22.286-17.308-15.861,0-33.284,11.635-35.947,34.847C90.128,87,104.715,97.421,119.418,97.421s22.4-5.731,30.274-13.372c-6.773-8.509-15.513-4.573-17.192-3.7a17.6,17.6,0,0,1-9.088,2.2c-5.673,0-11.461-2.547-11.461-13.14C148.3,65.816,151.081,54.412,151.081,46.019Zm-18,1.389c-.232,2.6-1.273,7.062-19.681,9.551,3.878-13.777,11.288-14.819,14.7-14.819A4.808,4.808,0,0,1,133.079,47.408Zm-61.59,2.258s-7.815,24.543-8.451,26.569C62.806,74.151,57.075,30.1,57.075,30.1c-13.314,0-20.434,9.493-24.2,19.507,0,0-9.493,24.6-10.3,26.685-.058-1.91-1.447-26.4-1.447-26.4C20.318,37.626,9.088,30.158,0,30.158L11,96.9c13.95-.058,21.476-9.493,25.412-19.507,0,0,8.393-21.707,8.741-22.691.058.926,6.02,42.2,6.02,42.2,14.008,0,21.533-8.856,25.585-18.523L96.379,30.158C82.545,30.158,75.251,39.594,71.489,49.666ZM202.483,28.6c-8.625,0-15.224,4.689-20.781,11.577v-.058L186.681,0C175.219,0,165.9,9.956,164.105,24.775l-8.683,71.6c6.6,0,13.6-1.91,17.366-6.773a19.227,19.227,0,0,0,15.861,7.815c19.334,0,32.59-22.46,32.59-43.53C221.122,34.673,211.8,28.6,202.483,28.6Zm-1.794,34.442c-2.026,11.751-8.567,19.739-14.877,19.739-6.367,0-9.088-2.836-9.088-2.836,1.216-10.3,1.968-16.613,4.284-22.054s7.815-14.124,13.545-14.124C200.168,43.761,202.715,51.229,200.689,63.037Zm68.826-32.879H256.027l.058-.695c.926-8.8,3.01-13.429,9.9-14.182,4.689-.463,6.773-2.894,7.294-5.557.405-2.084,1.679-9.32,1.679-9.32-27.09-.174-35.6,11.519-37.8,29.348l-.058.405h-.289c-4.4,0-9.262,4.978-10.072,11.288l-.289,2.315h9.03L227.9,106.393l-2.315,11.23c.289,0,.637.058.926.058,12.677-.463,20.781-10.477,22.575-25.007l5.9-48.913h4.226c4.168,0,9.03-4.168,9.9-11.114ZM339.672,29C324.1,29,309.4,40.462,304.883,58.464s2.315,39.3,25.238,39.3c22.865,0,36.063-22.17,36.063-40.636C366.183,38.783,353.738,29,339.672,29Zm6.31,33.458c-.81,8.162-4.4,20.549-14.24,20.549-9.9,0-8.509-14.471-7.525-21.36,1.042-7.351,5.152-17.829,14.008-17.829C346.155,43.819,346.908,53.255,345.981,62.458Zm97.132-12.793s-7.815,24.543-8.451,26.569C434.43,74.151,428.7,30.1,428.7,30.1c-13.314,0-20.434,9.493-24.2,19.507,0,0-9.493,24.6-10.3,26.685-.058-1.91-1.447-26.4-1.447-26.4-.81-12.272-12.04-19.739-21.128-19.739L382.565,96.9c13.95-.058,21.475-9.493,25.412-19.507,0,0,8.393-21.707,8.683-22.691.058.926,6.02,42.2,6.02,42.2,14.008,0,21.533-8.856,25.585-18.523l19.623-48.219C454.111,30.158,446.818,39.594,443.113,49.666ZM282.25.405,270.9,91.922h0l-2.315,11.288c.289,0,.637.058.926.058h0c12.214-.174,20.9-10.882,22.517-24.37l6.541-52.5C300.541,10.361,290.99.405,282.25.405Z" fill="#4353ff"/>
</svg>
