<svg xmlns="http://www.w3.org/2000/svg" width="108.209" height="88.562" viewBox="0 0 108.209 88.562">
  <path id="forest_twitter" d="M40.369,88.562a92.848,92.848,0,0,1-14.341-1.138c-8.534-1.339-17.172-5.8-19.617-7.139L0,76.779,6.942,74.5c7.588-2.495,12.2-4.043,17.917-6.467a23.836,23.836,0,0,1-12.253-14.2l-1.615-4.9,1.324.2A24.079,24.079,0,0,1,9.3,45.414,22.828,22.828,0,0,1,5.427,31.842l.3-4.279,2.562.992a23.949,23.949,0,0,1-2.321-6.5A24.753,24.753,0,0,1,8.608,5.386l2.231-4.1,2.984,3.585c9.439,11.338,21.394,18.064,35.582,20.033A21.282,21.282,0,0,1,50.7,13.6a21.17,21.17,0,0,1,8.606-9.868,25.851,25.851,0,0,1,15-3.684,23.963,23.963,0,0,1,14.73,6.075,49.449,49.449,0,0,0,5.392-1.8c1.182-.445,2.523-.95,4.2-1.528l6.182-2.13L100.781,12.18c.266-.022.54-.041.826-.054l6.6-.3-3.9,5.332c-.224.305-.281.392-.36.512-.315.474-.706,1.063-6.061,8.214A10.087,10.087,0,0,0,96,32.454,62.127,62.127,0,0,1,92.61,57.442,44.219,44.219,0,0,1,80.74,75.025c-6.557,5.9-14.917,9.947-24.85,12.014a76.5,76.5,0,0,1-15.521,1.522Zm0,0" transform="translate(0 -0.001)" fill="#8a94a6"/>
</svg>
