<svg id="forest_sketch" xmlns="http://www.w3.org/2000/svg" width="475.409" height="108.172" viewBox="0 0 475.409 108.172">
  <path id="Path_1" data-name="Path 1" d="M130.3,68.7l-.092-1.222H120l.057,1.375c.628,15.317,10.954,25.462,29.318,25.462,17.515,0,29.425-9.1,29.425-22.875,0-7.448-2.584-12.719-7.508-16.319-3.787-2.769-8.317-4.33-15.827-5.958-.5-.109-1.024-.22-1.652-.352l-1.636-.343c-13.638-2.859-17.964-5.343-17.964-12.74,0-7.649,6.255-12.52,16.746-12.52,10.207,0,16.658,6.234,16.958,16.047l.04,1.28h10.133l-.03-1.351c-.353-15.3-10.617-25.591-27.206-25.591-16.26,0-27,9.784-27,22.452,0,7.427,2.581,12.6,7.513,16.055,3.757,2.633,8.109,4.028,15.787,5.578l1.181.236,1.175.232c7.265,1.437,10.47,2.324,13.394,4.025,3.63,2.111,5.431,5.126,5.431,9.8,0,8.109-6.817,12.732-18.754,12.732C138.159,84.7,131.067,78.967,130.3,68.7Zm69.9-56.427V10.95H190.052V92.833H200.2V77.384l10.676-10.4,19.067,25.322.4.526h12.617l-1.609-2.119L218.057,60.043,239.533,38.67l2.267-2.257H228.014l-.387.39L200.2,64.43ZM294.969,68.11h1.24l.078-1.238c.014-.218.034-.578.054-1.012.015-.343.029-.678.038-.994.011-.343.016-.655.016-.929,0-16.577-10.979-28.791-27.206-28.791-16.2,0-27.735,13-27.735,29.425,0,16.9,11.016,29.531,27.84,29.531,12.721,0,22.55-7.548,26.091-19l.53-1.711H285.372l-.312.879C282.836,80.538,276.816,84.7,269.4,84.7c-9.7,0-16.455-6.658-17.672-16.588ZM252.035,59.34c1.712-8.891,8.251-14.792,17.154-14.792,9.176,0,15.509,5.708,16.894,14.792Zm77.642-13.947H331V36.413H318.636V21.093H308.493v15.32H298.244v8.981h10.249V77.038c0,10.381,5.385,16.007,15.267,16.007a32.687,32.687,0,0,0,4.46-.277,13.345,13.345,0,0,0,1.6-.3l.967-.269V82.8l-1.6.348c-.064.014-.194.04-.379.075-.314.059-.664.118-1.039.173a22.269,22.269,0,0,1-2.79.248l-.267,0c-4.329,0-6.075-2.034-6.075-7.132V45.394ZM361.215,94.1c14.04,0,23.952-8.884,26.442-21.456l.312-1.577h-10.23l-.262.981c-2.132,8.023-7.92,12.648-16.262,12.648-10.41,0-17.592-8.212-17.592-20.022,0-11.9,7.17-20.127,17.592-20.127,8.342,0,14.13,4.626,16.262,12.648l.262.981h10.23l-.312-1.577c-2.489-12.572-12.4-21.456-26.442-21.456-16.309,0-27.84,13.094-27.84,29.531C333.375,81.023,344.923,94.1,361.215,94.1Zm45.432-81.83V10.95H396.5V92.833h10.143V59.71c0-9.69,5.9-15.373,14.845-15.373,8.546,0,12.837,4.947,12.837,14.316v34.18h10.143V57.174c0-13.235-8.2-22.029-21.712-22.029-6.954,0-12.544,2.548-16.113,6.2Z" transform="translate(30.937 2.823)" fill-rule="evenodd"/>
  <path id="Path_2" data-name="Path 2" d="M26.292,3.561,60.253,0,94.214,3.561l26.292,35.011-60.253,69.6L0,38.572Z" fill="#fdb300" fill-rule="evenodd"/>
  <g id="Group_1" data-name="Group 1" transform="translate(0 38.572)">
    <path id="Path_3" data-name="Path 3" d="M24.405,0,60.253,69.6,0,0Z" fill="#ea6c00" fill-rule="evenodd"/>
    <path id="Path_4" data-name="Path 4" d="M24.405,69.6,60.253,0,0,69.6Z" transform="translate(120.506 69.6) rotate(180)" fill="#ea6c00" fill-rule="evenodd"/>
    <path id="Path_5" data-name="Path 5" d="M19.4,0H91.1L55.251,69.6Z" transform="translate(5.002)" fill="#fdad00" fill-rule="evenodd"/>
  </g>
  <path id="Path_6" data-name="Path 6" d="M55.251,0,21.29,3.561,19.4,38.572Z" transform="translate(5.002)" fill="#fdd231" fill-rule="evenodd"/>
  <path id="Path_7" data-name="Path 7" d="M35.848,38.572,1.887,35.011,0,0Z" transform="translate(96.101 38.572) rotate(180)" fill="#fdd231" fill-rule="evenodd"/>
  <path id="Path_8" data-name="Path 8" d="M0,0,26.292,35.011,24.405,0Z" transform="translate(120.506 38.572) rotate(180)" fill="#fdad00" fill-rule="evenodd"/>
  <path id="Path_9" data-name="Path 9" d="M0,37.842,26.292,2.831,24.405,37.842Z" transform="translate(0 0.73)" fill="#fdad00" fill-rule="evenodd"/>
  <path id="Path_10" data-name="Path 10" d="M55.251,0,19.4,38.572H91.1Z" transform="translate(5.002)" fill="#feeeb7" fill-rule="evenodd"/>
</svg>
