<svg xmlns="http://www.w3.org/2000/svg" width="165" height="165" viewBox="0 0 165 165">
  <g id="guide" transform="translate(519 -7491)">
    <circle id="Ellipse_5405" data-name="Ellipse 5405" cx="82.5" cy="82.5" r="82.5" transform="translate(-519 7491)" fill="#fff"/>
    <g id="study" transform="translate(-473.764 7535.753)">
      <g id="Group_7873" data-name="Group 7873" transform="translate(0 0)">
        <path id="Path_22071" data-name="Path 22071" d="M74.539,52.029,59.58,37.131,70.986,25.756A15.087,15.087,0,1,0,49.65,4.42L38.3,15.768,23.332.859a2.946,2.946,0,0,0-4.172.014L.853,19.361a2.945,2.945,0,0,0,.014,4.16L15.738,38.332,7.486,46.584a2.946,2.946,0,0,0-.755,1.293L.108,71.671a2.945,2.945,0,0,0,3.642,3.623l23.793-6.759a2.945,2.945,0,0,0,1.281-4.913l-15-15.046L48.776,13.626l13,13L35.018,53.307a2.945,2.945,0,0,0,.005,4.176l17.2,17.068a2.946,2.946,0,0,0,2.075.855h.013a2.945,2.945,0,0,0,2.08-.873L74.553,56.189A2.945,2.945,0,0,0,74.539,52.029ZM21.119,64.236,7.191,68.192l3.9-14.014ZM19.9,34.166,7.106,21.42l14.163-14.3,4.674,4.654-5.8,5.9a2.946,2.946,0,0,0,4.2,4.132l5.777-5.872,4.02,4ZM52.941,9.46l.875-.875a9.2,9.2,0,0,1,13.008,13l-.878.876Zm1.334,58.833-13-12.9,14.135-14.1,3.974,3.958-5.655,5.7A2.946,2.946,0,0,0,57.908,55.1l5.649-5.689L68.3,54.13Z" transform="translate(0 -0.001)" fill="#7540ee"/>
      </g>
    </g>
  </g>
</svg>
