<svg xmlns="http://www.w3.org/2000/svg" width="512.002" height="511.996" viewBox="0 0 512.002 511.996">
  <g id="gym" transform="translate(0.001 -0.002)">
    <g id="Group_6" data-name="Group 6">
      <g id="Group_5" data-name="Group 5">
        <path id="Path_9" data-name="Path 9" d="M441.656,155.735c.036.036.076.066.112.1C441.727,155.78,441.394,155.429,441.656,155.735Z" fill="#7540ee"/>
        <path id="Path_10" data-name="Path 10" d="M114.825,237.85l-.082-.082a57.308,57.308,0,0,0-83.134,78.845,57.794,57.794,0,0,0-14.826,92.35l28.8,28.969L25.778,457.714a20,20,0,0,0,28.268,28.3L73.788,466.3,102.4,495.074a57.927,57.927,0,0,0,34.291,16.546,59,59,0,0,0,6.657.378,57.573,57.573,0,0,0,50.921-30.8,57.3,57.3,0,0,0,79.953-82.083Zm41.13,228.762a17.741,17.741,0,0,1-25.231.22L45.111,380.72a17.817,17.817,0,0,1-.176-24.917,17.614,17.614,0,0,1,12.6-5.375h.129a17.583,17.583,0,0,1,11.291,4.058l89.3,90.349A17.825,17.825,0,0,1,155.955,466.612Zm89.932-14.781a17.327,17.327,0,0,1-24.443.032L61.982,290.526A17.306,17.306,0,0,1,86.424,266.02L245.8,427.273l.082.082A17.327,17.327,0,0,1,245.887,451.831Z" fill="#7540ee"/>
        <path id="Path_11" data-name="Path 11" d="M279.166,57.91a17.244,17.244,0,0,1,12.3,5.131L413.411,184.062a57.747,57.747,0,1,0,81.627-81.707L466.3,73.786,486.02,54.044a20,20,0,0,0-28.3-28.268L437.935,45.582,409.008,16.82a57.8,57.8,0,0,0-92.48,14.959A57.3,57.3,0,0,0,238.6,115.7l64.412,64.82-96.174,96.427a20,20,0,0,0,28.324,28.247l96.047-96.3,65.83,66.246a57.307,57.307,0,0,0,81.047,0A20,20,0,1,0,449.8,246.851a17.308,17.308,0,0,1-24.43.044L266.929,87.453A17.306,17.306,0,0,1,279.166,57.91ZM355.8,44.932a17.832,17.832,0,0,1,24.958.216l86.03,85.533a17.741,17.741,0,0,1-.178,25.272,17.826,17.826,0,0,1-24.846-.116c.015.02-.006,0-.112-.1L355.628,70.2a17.746,17.746,0,0,1,.177-25.271Z" fill="#7540ee"/>
      </g>
    </g>
  </g>
</svg>
