<svg xmlns="http://www.w3.org/2000/svg" width="512.001" height="512.001" viewBox="0 0 512.001 512.001">
  <path id="happy" d="M255,396c-92,0-134.813-77.2-136.594-80.484a20,20,0,1,1,35.184-19.031A128.928,128.928,0,0,0,179.4,326.973C201.433,346.234,226.867,356,255,356c68.426,0,101.086-58.922,101.406-59.516a20,20,0,0,1,35.184,19.031C389.812,318.8,347,396,255,396Zm133.461,79.105a20,20,0,1,0-20.723-34.211A215.624,215.624,0,0,1,256,472C136.9,472,40,375.1,40,256S136.9,40,256,40s216,96.9,216,216a215.122,215.122,0,0,1-36.625,119.883,20,20,0,1,0,33.25,22.23A255.867,255.867,0,0,0,74.98,74.98,256.025,256.025,0,0,0,388.461,475.106ZM395,208a50,50,0,1,0-100,0,20,20,0,0,0,40,0,10,10,0,1,1,20,0,20,20,0,0,0,40,0Zm-177,0a50,50,0,0,0-100,0,20,20,0,0,0,40,0,10,10,0,0,1,20,0,20,20,0,0,0,40,0Zm0,0" transform="translate(0.001 0)" fill="#7540ee"/>
</svg>
