<svg xmlns="http://www.w3.org/2000/svg" width="578.079" height="578.079" viewBox="0 0 578.079 578.079">
  <g id="icon_form" transform="translate(-7001 767)">
    <circle id="Ellipse_3650" data-name="Ellipse 3650" cx="289.039" cy="289.039" r="289.039" transform="translate(7001 -767)" fill="#ff8d43" opacity="0.1"/>
    <path id="communication_2_" data-name="communication (2)" d="M203.543,174.327a65.615,65.615,0,0,0,12.97-39.208c0-22.7-11.77-43.769-31.628-56.918-1.831-20.222-11.273-38.975-27.06-53.424C140.368,8.8,117.207,0,92.61,0S44.852,8.8,27.395,24.778C9.729,40.946,0,62.5,0,85.479a80.124,80.124,0,0,0,16.526,48.759L.616,173.592A8.457,8.457,0,0,0,11.869,184.5l45.375-20a97.341,97.341,0,0,0,17.569,4.885A72.81,72.81,0,0,0,100.4,194.3a80.05,80.05,0,0,0,39.792,10.786c.208.015.415.032.627.032a80.494,80.494,0,0,0,28.207-5.024l35.618,15.7A8.458,8.458,0,0,0,215.9,204.885Zm-17.524,1.782,6.389,15.805L172.6,183.184a8.457,8.457,0,0,0-6.73-.04A63.432,63.432,0,0,1,141.16,188.2c-.114,0-.227-.017-.343-.017A62.157,62.157,0,0,1,97.4,170.832a98.611,98.611,0,0,0,39.808-10.42,8.458,8.458,0,1,0-7.66-15.081,82.809,82.809,0,0,1-69.133,2.21,8.454,8.454,0,0,0-6.73.04L24.1,160.622l9.96-24.639a8.457,8.457,0,0,0-1.4-8.656A63.886,63.886,0,0,1,16.915,85.479c0-37.806,33.957-68.564,75.695-68.564S168.3,47.672,168.3,85.479a63.611,63.611,0,0,1-10.382,34.667,8.458,8.458,0,0,0,14.19,9.206,81.132,81.132,0,0,0,11.917-30.2A50.309,50.309,0,0,1,199.6,135.12a49.362,49.362,0,0,1-12.175,32.334A8.458,8.458,0,0,0,186.018,176.11Zm-85.374-47.133a8.457,8.457,0,0,1-8.458,8.458h0a8.458,8.458,0,0,1,0-16.915h0A8.457,8.457,0,0,1,100.644,128.977ZM124.318,65.61c.005.118.008.235.008.354a31.685,31.685,0,0,1-19.272,29.188,6.7,6.7,0,0,0-3.989,6.217v.545a8.458,8.458,0,0,1-16.915,0v-.544A23.585,23.585,0,0,1,98.413,79.6a14.793,14.793,0,0,0,9-13.385q0-.122,0-.244a14.8,14.8,0,0,0-29.6,0,8.458,8.458,0,1,1-16.915,0,31.713,31.713,0,0,1,63.424-.356Z" transform="translate(7182 -586)" fill="#ff8d43"/>
  </g>
</svg>
