<svg xmlns="http://www.w3.org/2000/svg" width="187.953" height="223.252" viewBox="0 0 187.953 223.252">
  <g id="icon" transform="translate(-16492.343 -8716.753)">
    <path id="copy_1_" data-name="copy (1)" d="M118.168,223.252H34.883A34.936,34.936,0,0,1,0,188.369V70.2A34.936,34.936,0,0,1,34.883,35.318h83.285A34.936,34.936,0,0,1,153.051,70.2V188.369a34.936,34.936,0,0,1-34.883,34.883ZM34.883,52.76A17.468,17.468,0,0,0,17.442,70.2V188.369a17.468,17.468,0,0,0,17.442,17.442h83.285A17.468,17.468,0,0,0,135.6,188.369V70.2A17.468,17.468,0,0,0,118.159,52.76ZM187.934,166.566V34.883A34.936,34.936,0,0,0,153.051,0h-96.8a8.722,8.722,0,1,0,0,17.443h96.815A17.468,17.468,0,0,1,170.51,34.883V166.566a8.722,8.722,0,1,0,17.443,0Zm0,0" transform="translate(16492.342 8716.753)" fill="#7540ee"/>
  </g>
</svg>
