<svg xmlns="http://www.w3.org/2000/svg" width="148.464" height="80.198" viewBox="0 0 148.464 80.198">
  <g id="logo-placeholder-7" transform="translate(-1380.041 -686.963)">
    <path id="Path_13" data-name="Path 13" d="M1775.3,135.4h5.139l1.151,7.5h5.174l-5.468-32.626h-6.769l-5.547,32.626h5.125Zm2.585-17.654,1.823,12.863h-3.645Z" transform="translate(-355.727 600.45)" fill="#201b3d"/>
    <path id="Path_14" data-name="Path 14" d="M1797.957,143.316a7.779,7.779,0,0,0,7.786-7.786v-4.557h-5.1v4.5a2.693,2.693,0,0,1-.833,1.992,2.754,2.754,0,0,1-2.005.82,2.8,2.8,0,0,1-2.812-2.812V117.616a2.759,2.759,0,0,1,.82-2,2.693,2.693,0,0,1,1.992-.833,2.844,2.844,0,0,1,2.838,2.838v3.827h5.1V117.72a7.569,7.569,0,0,0-2.265-5.52,7.806,7.806,0,0,0-13.332,5.52v17.81a7.781,7.781,0,0,0,7.811,7.786Z" transform="translate(-355.727 600.45)" fill="#201b3d"/>
    <path id="Path_15" data-name="Path 15" d="M1814.7,122.433l4.765,20.466h3.958l4.27-20.518V142.9h4.921V110.247h-6.785l-4.4,23.456-4.586-23.456h-7.062V142.9h4.921Z" transform="translate(-355.727 600.45)" fill="#201b3d"/>
    <path id="Path_16" data-name="Path 16" d="M1851.023,137.952h-9.088v-8.905h6.64V124.1h-6.64v-8.905h9.088v-4.947h-14.009V142.9h14.009Z" transform="translate(-355.727 600.45)" fill="#201b3d"/>
    <path id="Path_17" data-name="Path 17" d="M1735.768,86.513v80.2h148.464v-80.2Zm143.423,75.157H1740.809V91.554h138.382Z" transform="translate(-355.727 600.45)" fill="#201b3d"/>
  </g>
</svg>
