<svg width="101" height="98" xmlns="http://www.w3.org/2000/svg" xmlns:xlink="http://www.w3.org/1999/xlink" overflow="hidden"><defs><clipPath id="clip0"><rect x="287" y="200" width="101" height="98"/></clipPath><clipPath id="clip1"><rect x="287" y="201" width="100" height="96"/></clipPath><clipPath id="clip2"><rect x="287" y="201" width="100" height="96"/></clipPath><clipPath id="clip3"><rect x="287" y="201" width="100" height="125"/></clipPath></defs><g clip-path="url(#clip0)" transform="translate(-287 -200)"><g clip-path="url(#clip1)"><g clip-path="url(#clip2)"><g clip-path="url(#clip3)"><path d="M34.1088 958.532 4.23247 970.483C3.49583 970.78 2.97936 971.555 2.98763 972.35L2.98763 1036.09C2.99759 1037.38 4.52606 1038.41 5.72629 1037.92L34.8557 1026.28 63.9851 1037.92C64.4582 1038.11 65.0057 1038.11 65.4789 1037.92L95.3552 1025.97C96.0822 1025.67 96.5959 1024.92 96.6 1024.14L96.6 960.399C96.614 959.095 95.0711 958.043 93.8614 958.532L77.1804 965.193C74.3645 960.886 69.5411 958.379 64.7009 958.408 59.5292 958.408 55.0173 961.127 52.3458 965.223L35.6026 958.532C35.007 958.292 34.4378 958.407 34.1088 958.532ZM64.7009 962.391C70.7427 962.391 75.6866 967.407 75.6866 973.75 75.6866 975.067 75.2493 977.103 74.7841 978.356 71.4563 985.424 68.0861 992.488 64.732 999.551 61.3926 992.482 57.9934 985.431 54.6798 978.356 54.2153 977.099 53.7773 975.064 53.7773 973.75 54.0258 966.515 59.466 962.443 64.7009 962.391ZM92.6165 963.325 92.6165 1022.77 66.7237 1033.1 66.7237 1004.65C70.6075 996.344 74.6805 988.102 78.5187 979.788 79.1682 978.054 79.6701 975.82 79.6701 973.75 79.67 971.983 79.4057 970.344 78.9232 968.833ZM32.8639 963.356 32.8639 1022.77 6.97114 1033.13 6.97114 973.688ZM36.8474 963.356 50.5718 968.833C50.0617 970.38 49.7938 972.032 49.7938 973.75 49.7938 975.822 50.3008 978.058 50.9453 979.788 54.8525 988.071 58.8077 996.364 62.7402 1004.65L62.7402 1033.1 36.8474 1022.77ZM64.732 967.37C61.4555 967.37 58.7567 970.069 58.7567 973.346 58.7567 976.622 61.4555 979.321 64.732 979.321 68.0083 979.321 70.7072 976.622 70.7072 973.346 70.7072 970.069 68.0083 967.37 64.732 967.37ZM64.732 971.354C65.8554 971.354 66.7237 972.222 66.7237 973.346 66.7237 974.469 65.8554 975.337 64.732 975.337 63.6082 975.337 62.7402 974.469 62.7402 973.346 62.7402 972.221 63.6082 971.354 64.732 971.354Z" fill="#40698C" transform="matrix(1.00414 0 0 1 287 -747.435)"/><text fill="#40698C" font-family="Arial,Arial_MSFontService,sans-serif" font-weight="700" font-size="5" transform="matrix(1 0 0 0.995876 287 316)">Created by Aya Sofya<tspan font-size="5" x="0" y="5.0207">from the Noun Project</tspan></text></g></g></g></g></svg>