<svg xmlns="http://www.w3.org/2000/svg" width="511.998" height="511.003" viewBox="0 0 511.998 511.003">
  <g id="profits" transform="translate(-0.001 -0.498)">
    <g id="Group_8" data-name="Group 8">
      <g id="Group_7" data-name="Group 7">
        <path id="Path_12" data-name="Path 12" d="M45.33,283.02l-39.7,40.92a19.961,19.961,0,0,0,28.655,27.8l39.7-40.92a19.961,19.961,0,0,0-28.655-27.8Z" fill="#7540ee"/>
        <path id="Path_13" data-name="Path 13" d="M137.731,295.92a19.962,19.962,0,0,0-19.961,19.961V491.539A19.962,19.962,0,0,0,137.731,511.5h0a19.962,19.962,0,0,0,19.961-19.961l0-175.659A19.96,19.96,0,0,0,137.731,295.92Z" fill="#7540ee"/>
        <path id="Path_14" data-name="Path 14" d="M215.579,252.007a19.962,19.962,0,0,0-19.961,19.961V491.539a19.961,19.961,0,1,0,39.922,0V271.967A19.962,19.962,0,0,0,215.579,252.007Z" fill="#7540ee"/>
        <path id="Path_15" data-name="Path 15" d="M452.116.5H392.233a19.961,19.961,0,0,0,0,39.922h52.61L298.273,186.959a20.318,20.318,0,0,1-14.167,6.17c-.107,0-.216,0-.323,0a20.349,20.349,0,0,1-13.738-6.168L246.577,163.49c-11.489-11.489-26.741-18.149-41.848-18.273h-.439c-15.636,0-31.25,6.835-42.919,18.8L118.6,206.984a19.96,19.96,0,1,0,28.291,28.165L189.74,192.1c.059-.058.116-.117.174-.176,4.168-4.293,9.6-6.839,14.488-6.79,4.651.038,9.865,2.5,13.948,6.581l23.468,23.468a59.116,59.116,0,0,0,84.686,0L472.077,69.644v49.622a19.961,19.961,0,1,0,39.922,0V60.381A59.951,59.951,0,0,0,452.116.5Z" fill="#7540ee"/>
        <path id="Path_16" data-name="Path 16" d="M58.952,385.746a19.961,19.961,0,0,0-20.029,19.961v85.832A19.962,19.962,0,0,0,58.884,511.5h0a19.961,19.961,0,0,0,19.961-19.961V405.707A19.961,19.961,0,0,0,58.952,385.746Z" fill="#7540ee"/>
        <path id="Path_17" data-name="Path 17" d="M451.118,171.165a19.961,19.961,0,0,0-19.961,19.961V491.54A19.962,19.962,0,0,0,451.118,511.5h0A19.962,19.962,0,0,0,471.08,491.54V191.126A19.961,19.961,0,0,0,451.118,171.165Z" fill="#7540ee"/>
        <path id="Path_18" data-name="Path 18" d="M293.426,276.958a19.961,19.961,0,0,0-19.961,19.961v194.62A19.962,19.962,0,0,0,293.426,511.5h0a19.962,19.962,0,0,0,19.961-19.961V296.919A19.962,19.962,0,0,0,293.426,276.958Z" fill="#7540ee"/>
        <path id="Path_19" data-name="Path 19" d="M372.2,239.032a19.961,19.961,0,0,0-19.888,19.961V491.54A19.962,19.962,0,0,0,372.273,511.5h0a19.962,19.962,0,0,0,19.961-19.961V258.993A19.963,19.963,0,0,0,372.2,239.032Z" fill="#7540ee"/>
      </g>
    </g>
  </g>
</svg>
