<svg xmlns="http://www.w3.org/2000/svg" width="105.25" height="100.654" viewBox="0 0 105.25 100.654">
  <path id="stars" d="M57.707,4.207,69.578,28.26a5.666,5.666,0,0,0,4.268,3.1l26.545,3.857a5.667,5.667,0,0,1,3.142,9.667L84.325,63.607A5.668,5.668,0,0,0,82.7,68.624L87.23,95.062a5.669,5.669,0,0,1-8.224,5.976L55.264,88.557a5.674,5.674,0,0,0-5.276,0L26.246,101.038a5.668,5.668,0,0,1-8.224-5.976l4.534-26.438a5.668,5.668,0,0,0-1.629-5.017L1.718,44.884A5.667,5.667,0,0,1,4.86,35.218L31.405,31.36a5.666,5.666,0,0,0,4.268-3.1L47.544,4.207A5.666,5.666,0,0,1,57.707,4.207Z" transform="translate(-0.001 -1.047)" fill="#ffbc00"/>
</svg>
