<svg xmlns="http://www.w3.org/2000/svg" width="165" height="165" viewBox="0 0 165 165">
  <g id="templates" transform="translate(240 -7491)">
    <circle id="Ellipse_5406" data-name="Ellipse 5406" cx="82.5" cy="82.5" r="82.5" transform="translate(-240 7491)" fill="#fff"/>
    <path id="website" d="M66.569,0H8.837A8.846,8.846,0,0,0,0,8.837v48.9A11.8,11.8,0,0,0,11.782,69.514H63.623A11.8,11.8,0,0,0,75.405,57.732a2.946,2.946,0,0,0-5.891,0,5.9,5.9,0,0,1-5.891,5.891H11.782a5.9,5.9,0,0,1-5.891-5.891V17.82H69.514V43a2.946,2.946,0,0,0,5.891,0V8.837A8.846,8.846,0,0,0,66.569,0ZM54.639,5.891a2.946,2.946,0,1,1-2.946,2.946A2.949,2.949,0,0,1,54.639,5.891ZM69.367,8.837a2.946,2.946,0,1,1-2.946-2.946A2.949,2.949,0,0,1,69.367,8.837Zm-63.476,0A2.949,2.949,0,0,1,8.837,5.891H46.31a8.818,8.818,0,0,0,.053,6.038H5.891ZM37.7,29.167a9.759,9.759,0,0,0-7-2.657,9.84,9.84,0,0,0-7.029,2.826,10.4,10.4,0,0,0-2.912,7.449c0,6.18,5.362,10.127,9.67,13.3a29.012,29.012,0,0,1,4.984,4.208,2.946,2.946,0,0,0,4.566,0,29.011,29.011,0,0,1,4.984-4.208c4.308-3.172,9.67-7.119,9.67-13.3a10.4,10.4,0,0,0-2.912-7.449A10.341,10.341,0,0,0,37.7,29.167Zm11.046,7.618c0,3.2-3.7,5.923-7.271,8.554-1.284.945-2.594,1.909-3.775,2.931-1.181-1.022-2.49-1.986-3.775-2.931-3.575-2.631-7.271-5.353-7.271-8.554,0-2.663,1.59-4.384,4.05-4.384a3.546,3.546,0,0,1,3.34,1.544,4.969,4.969,0,0,1,.72,1.944,2.941,2.941,0,0,0,5.871,0,4.969,4.969,0,0,1,.72-1.944A3.546,3.546,0,0,1,44.7,32.4c2.461,0,4.05,1.721,4.05,4.384Zm0,0" transform="translate(-195 7539)" fill="#7540ee"/>
  </g>
</svg>
