<svg xmlns="http://www.w3.org/2000/svg" width="165" height="165" viewBox="0 0 165 165">
  <g id="tools" transform="translate(-39 -7491)">
    <circle id="Ellipse_5407" data-name="Ellipse 5407" cx="82.5" cy="82.5" r="82.5" transform="translate(39 7491)" fill="#fff"/>
    <path id="vector" d="M75.405,37.555A5.155,5.155,0,1,1,66.9,33.642,29.518,29.518,0,0,0,41.725,8.376a5.151,5.151,0,0,1-8.045,0A29.518,29.518,0,0,0,8.508,33.642a5.154,5.154,0,1,1-5.869-.586A35.081,35.081,0,0,1,12.709,12.562,35.723,35.723,0,0,1,18.145,8.1H9.384a5.155,5.155,0,1,1,0-5.891h24.09a5.152,5.152,0,0,1,8.458,0h24.09a5.155,5.155,0,1,1,0,5.891H57.26A35.723,35.723,0,0,1,62.7,12.562,35.081,35.081,0,0,1,72.766,33.056a5.153,5.153,0,0,1,2.639,4.5ZM52.679,39.538a11.61,11.61,0,0,1-.331,11.5,2.945,2.945,0,1,1-5.024-3.076,5.7,5.7,0,0,0,.166-5.639L40.355,29.215V40.584a11.644,11.644,0,0,1,1.47,4.134,4.418,4.418,0,0,1-8.837,0,11.676,11.676,0,0,1,1.475-4.144V29.848L27.623,42.4a5.7,5.7,0,0,0,.15,5.621L33.59,57.29h9.854a2.946,2.946,0,0,1,2.946,2.945l0,8.148a6.872,6.872,0,0,1-6.858,6.87l-3.94,0h-.008A6.866,6.866,0,0,1,28.721,68.4l0-7.788L22.772,51.13l-.019-.031a11.612,11.612,0,0,1-.317-11.5l.009-.017L35,16.557a2.944,2.944,0,0,1,2.586-1.535h0a2.945,2.945,0,0,1,2.586,1.537l12.5,22.962.009.017ZM40.5,63.181H34.611V68.4a.975.975,0,0,0,.975.971h0l3.94,0a.976.976,0,0,0,.973-.976Zm0,0" transform="translate(84 7536)" fill="#7540ee"/>
  </g>
</svg>
