<svg xmlns="http://www.w3.org/2000/svg" width="435.397" height="353.668" viewBox="0 0 435.397 353.668">
  <g id="twitter-logo-silhouette_4_" data-name="twitter-logo-silhouette (4)" transform="translate(-0.001 -57.441)">
    <g id="Group_10" data-name="Group 10" transform="translate(0.001 57.441)">
      <path id="Path_7" data-name="Path 7" d="M435.4,99.285a178.367,178.367,0,0,1-51.286,14.066,89.689,89.689,0,0,0,39.26-49.381,180.064,180.064,0,0,1-56.755,21.685,89.387,89.387,0,0,0-152.2,81.432A253.578,253.578,0,0,1,30.337,73.765,89.421,89.421,0,0,0,57.979,192.987a89.325,89.325,0,0,1-40.457-11.209v1.116a89.407,89.407,0,0,0,71.637,87.58A90.469,90.469,0,0,1,65.624,273.6a85.729,85.729,0,0,1-16.814-1.66,89.365,89.365,0,0,0,83.418,62.033A179.2,179.2,0,0,1,21.3,372.148,189.824,189.824,0,0,1,0,370.923a252.471,252.471,0,0,0,136.907,40.185c164.3,0,254.116-136.091,254.116-254.116l-.3-11.563A178.359,178.359,0,0,0,435.4,99.285Z" transform="translate(-0.001 -57.441)" fill="#8a94a6"/>
    </g>
  </g>
</svg>
