<svg xmlns="http://www.w3.org/2000/svg" width="512" height="507.95" viewBox="0 0 512 507.95">
  <path id="whatsapp" d="M256,507.949h-.1a256.475,256.475,0,0,1-115.043-27.336L31.445,505.5A20,20,0,0,1,7.477,481.7L31.184,373.941C10.817,336.328.063,295.132,0,254.285c0-.141,0-.281,0-.418.027-67.691,26.8-131.441,75.371-179.5a256.134,256.134,0,0,1,360.973.063c48.813,48.633,75.68,112.434,75.656,179.645a250.57,250.57,0,0,1-44.043,141.957,20,20,0,1,1-33.012-22.59A210.764,210.764,0,0,0,472,254.055c.02-56.5-22.668-110.227-63.887-151.293A214.236,214.236,0,0,0,255.985,40C137.067,40,40.251,135.742,40,253.508c0,.129,0,.254,0,.379C39.989,290.34,50.243,327.3,69.653,360.774a19.987,19.987,0,0,1,2.23,14.332L53.317,459.5l85.84-19.527a20.04,20.04,0,0,1,13.98,1.926A216.206,216.206,0,0,0,255.9,467.95h.09a216.394,216.394,0,0,0,110.77-30.5,20,20,0,0,1,20.484,34.355A256.4,256.4,0,0,1,255.994,507.95Zm-56.484-355.73c-4.387-9.719-9-10.051-13.176-10.219H175.113a21.537,21.537,0,0,0-15.613,7.3c-5.367,5.84-20.5,19.957-20.5,48.672s20.984,56.465,23.91,60.363,40.512,64.7,100.027,88.094c49.465,19.441,59.531,15.574,70.266,14.6s34.648-14.113,39.523-27.742,4.883-25.3,3.418-27.746-5.367-3.891-11.223-6.809S330.367,281.449,325,279.5s-9.27-2.918-13.176,2.926S296.417,301.762,293,305.653s-6.832,4.387-12.687,1.469-24.523-9.2-46.895-29.078c-17.41-15.473-29.488-35.2-32.906-41.043s-.367-9,2.57-11.91c2.629-2.613,6.188-6.187,9.117-9.594s3.758-5.84,5.707-9.734.977-7.3-.484-10.223-12.707-31.781-17.914-43.32" transform="translate(0 0)" fill="#7540ee"/>
</svg>
