<?xml version="1.0" standalone="no"?><!DOCTYPE svg PUBLIC "-//W3C//DTD SVG 1.1//EN" "http://www.w3.org/Graphics/SVG/1.1/DTD/svg11.dtd"><svg width="17" height="17" viewBox="0 0 17 17" version="1.1" xmlns="http://www.w3.org/2000/svg" xmlns:xlink="http://www.w3.org/1999/xlink" style="border-bottom-color:rgb(65, 65, 65);border-left-color:rgb(65, 65, 65);border-right-color:rgb(65, 65, 65);border-top-color:rgb(65, 65, 65);color:rgb(65, 65, 65);cursor:default;height:17px;outline-color:rgb(0, 153, 255);pointer-events:none;text-decoration:none solid rgb(65, 65, 65);text-decoration-color:rgb(65, 65, 65);width:17px;column-rule-color:rgb(65, 65, 65);perspective-origin:8.5px 8.5px;-webkit-tap-highlight-color:rgba(0, 0, 0, 0);-webkit-text-emphasis-color:rgb(65, 65, 65);-webkit-text-fill-color:rgb(65, 65, 65);-webkit-text-stroke-color:rgb(65, 65, 65);transform-origin:8.5px 8.5px;caret-color:rgb(65, 65, 65);"><path fill="rgba(224,160,253,1)" fill-rule="nonzero" d="M11.0889829,5 L8.87122722,2.77717101 C8.87705127,2.80720407 8.88010204,2.83823183 8.88010204,2.86997552 C8.88010204,3.13687826 8.66443776,3.35334646 8.39806202,3.35334646 C8.13767832,3.35334646 7.92557991,3.14651733 7.91614391,2.88795687 L5.80875613,5 L11.0889829,5 Z M11.7952831,5 L16,5 L16,16 L1,16 L1,5 L5.10242822,5 L8.20121655,1.89436625 C8.33774916,1.75753203 8.55935677,1.75728753 8.69658797,1.89421713 L11.7952831,5 Z M8.49062664,2.39569978 L8.44897293,2.35395079 L8.41586296,2.38713391 C8.44134038,2.38805965 8.46631098,2.39096456 8.49062664,2.39569978 Z M8.63010204,2.86997552 C8.63010204,2.74099776 8.52621955,2.63681102 8.39806202,2.63681102 C8.26984289,2.63681102 8.16581633,2.74105929 8.16581633,2.86997552 C8.16581633,2.99895333 8.26990453,3.10334646 8.39806202,3.10334646 C8.52615792,3.10334646 8.63010204,2.99901487 8.63010204,2.86997552 Z M2.42857143,13.9055118 L14.4693878,13.9055118 L14.4693878,6.43307087 L2.42857143,6.43307087 L2.42857143,13.9055118 Z M4,13 L4,8 L9,8 L9,13 L4,13 Z" style="border-bottom-color:rgb(65, 65, 65);border-left-color:rgb(65, 65, 65);border-right-color:rgb(65, 65, 65);border-top-color:rgb(65, 65, 65);color:rgb(65, 65, 65);cursor:default;height:auto;outline-color:rgb(0, 153, 255);overflow-x:visible;overflow-y:visible;pointer-events:none;text-decoration:none solid rgb(65, 65, 65);text-decoration-color:rgb(65, 65, 65);width:auto;column-rule-color:rgb(65, 65, 65);perspective-origin:0px 0px;-webkit-tap-highlight-color:rgba(0, 0, 0, 0);-webkit-text-emphasis-color:rgb(65, 65, 65);-webkit-text-fill-color:rgb(65, 65, 65);-webkit-text-stroke-color:rgb(65, 65, 65);transform-origin:0px 0px;fill:rgb(224, 160, 253);d:path(&quot;M 11.089 5 L 8.87123 2.77717 C 8.87705 2.8072 8.8801 2.83823 8.8801 2.86998 C 8.8801 3.13688 8.66444 3.35335 8.39806 3.35335 C 8.13768 3.35335 7.92558 3.14652 7.91614 2.88796 L 5.80876 5 L 11.089 5 Z M 11.7953 5 L 16 5 L 16 16 L 1 16 L 1 5 L 5.10243 5 L 8.20122 1.89437 C 8.33775 1.75753 8.55936 1.75729 8.69659 1.89422 L 11.7953 5 Z M 8.49063 2.3957 L 8.44897 2.35395 L 8.41586 2.38713 C 8.44134 2.38806 8.46631 2.39096 8.49063 2.3957 Z M 8.6301 2.86998 C 8.6301 2.741 8.52622 2.63681 8.39806 2.63681 C 8.26984 2.63681 8.16582 2.74106 8.16582 2.86998 C 8.16582 2.99895 8.2699 3.10335 8.39806 3.10335 C 8.52616 3.10335 8.6301 2.99901 8.6301 2.86998 Z M 2.42857 13.9055 L 14.4694 13.9055 L 14.4694 6.43307 L 2.42857 6.43307 L 2.42857 13.9055 Z M 4 13 L 4 8 L 9 8 L 9 13 L 4 13 Z&quot;);caret-color:rgb(65, 65, 65);"/></svg>