<?xml version="1.0" standalone="no"?><!DOCTYPE svg PUBLIC "-//W3C//DTD SVG 1.1//EN" "http://www.w3.org/Graphics/SVG/1.1/DTD/svg11.dtd"><svg width="17" height="17" viewBox="0 0 17 17" version="1.1" xmlns="http://www.w3.org/2000/svg" xmlns:xlink="http://www.w3.org/1999/xlink" style="border-bottom-color:rgb(122, 122, 122);border-left-color:rgb(122, 122, 122);border-right-color:rgb(122, 122, 122);border-top-color:rgb(122, 122, 122);color:rgb(122, 122, 122);cursor:pointer;font-size:12px;height:17px;line-height:14.4px;outline-color:rgb(0, 153, 255);text-decoration:none solid rgb(122, 122, 122);text-decoration-color:rgb(122, 122, 122);width:17px;column-rule-color:rgb(122, 122, 122);perspective-origin:8.5px 8.5px;-webkit-tap-highlight-color:rgba(0, 0, 0, 0);-webkit-text-emphasis-color:rgb(122, 122, 122);-webkit-text-fill-color:rgb(122, 122, 122);-webkit-text-stroke-color:rgb(122, 122, 122);transform-origin:8.5px 8.5px;caret-color:rgb(122, 122, 122);"><path fill="rgba(255,87,207,1)" fill-rule="nonzero" d="M14.5037973,13.6389159 L14.5064295,13.6417231 C15.2581189,14.4558313 15.5097226,15.5513104 14.9377855,16.0441886 C14.3597331,16.5425911 13.3411318,16.0962434 12.6844272,15.1914876 L10.1611045,11.6087366 C9.26568553,12.0646909 8.19274911,12.145783 7.0663253,11.8424055 C5.74346366,11.486203 4.47228017,10.6246067 3.4823837,9.41733708 C2.49319999,8.21053571 1.88465358,6.7802979 1.76996961,5.38585772 C1.64347676,3.847547 2.12137721,2.5185975 3.1216632,1.65630675 C4.12390452,0.792122624 5.48777502,0.536664455 6.94904011,0.930117788 C8.27167659,1.28625967 9.54271498,2.14789782 10.5329842,3.35538334 C11.5220578,4.56208847 12.1307212,5.99253318 12.2453995,7.38690512 C12.3430411,8.57700371 12.0797923,9.64562456 11.4859848,10.4698049 L14.5037973,13.6389159 Z M9.45028208,4.27245768 C7.7967907,2.25548099 5.36497048,1.60066794 4.03325366,2.74866967 C2.69669634,3.90084414 2.9088121,6.48018112 4.56492337,8.5001329 C6.21882001,10.5171631 8.6502735,11.1719071 9.98197476,10.0239188 C11.3185193,8.87193356 11.1063928,6.29240875 9.45028208,4.27245768 Z M4.61611651,2.96189049 C4.63716381,2.68655139 4.87743246,2.48040715 5.15277157,2.50145445 C5.42811067,2.52250175 5.63425491,2.7627704 5.61320761,3.03810951 L5.38388349,6.03810951 C5.36283619,6.31344861 5.12256754,6.51959285 4.84722843,6.49854555 C4.57188933,6.47749825 4.36574509,6.2372296 4.38679239,5.96189049 L4.61611651,2.96189049 Z M8.58156409,6.95705671 C8.60528101,6.68193471 8.84753783,6.47813062 9.12265983,6.50184754 C9.39778184,6.52556446 9.60158593,6.76782128 9.57786901,7.04294329 L9.4054588,9.04294329 C9.38174188,9.31806529 9.13948506,9.52186938 8.86436305,9.49815246 C8.58924105,9.47443554 8.38543696,9.23217872 8.40915388,8.95705671 L8.58156409,6.95705671 Z M6.74378305,3.9519303 C6.77033121,3.67706705 7.01467344,3.4757679 7.28953669,3.50231606 C7.56439994,3.52886422 7.76569909,3.77320645 7.73915093,4.0480697 L7.25621695,9.0480697 C7.22966879,9.32293295 6.98532656,9.5242321 6.71046331,9.49768394 C6.43560006,9.47113578 6.23430091,9.22679355 6.26084907,8.9519303 L6.74378305,3.9519303 Z" style="border-bottom-color:rgb(122, 122, 122);border-left-color:rgb(122, 122, 122);border-right-color:rgb(122, 122, 122);border-top-color:rgb(122, 122, 122);color:rgb(122, 122, 122);cursor:pointer;font-size:12px;height:auto;line-height:14.4px;outline-color:rgb(0, 153, 255);overflow-x:visible;overflow-y:visible;text-decoration:none solid rgb(122, 122, 122);text-decoration-color:rgb(122, 122, 122);width:auto;column-rule-color:rgb(122, 122, 122);perspective-origin:0px 0px;-webkit-tap-highlight-color:rgba(0, 0, 0, 0);-webkit-text-emphasis-color:rgb(122, 122, 122);-webkit-text-fill-color:rgb(122, 122, 122);-webkit-text-stroke-color:rgb(122, 122, 122);transform-origin:0px 0px;fill:rgb(255, 87, 207);d:path(&quot;M 14.5038 13.6389 L 14.5064 13.6417 C 15.2581 14.4558 15.5097 15.5513 14.9378 16.0442 C 14.3597 16.5426 13.3411 16.0962 12.6844 15.1915 L 10.1611 11.6087 C 9.26569 12.0647 8.19275 12.1458 7.06633 11.8424 C 5.74346 11.4862 4.47228 10.6246 3.48238 9.41734 C 2.4932 8.21054 1.88465 6.7803 1.76997 5.38586 C 1.64348 3.84755 2.12138 2.5186 3.12166 1.65631 C 4.1239 0.792123 5.48777 0.536664 6.94904 0.930118 C 8.27168 1.28626 9.54272 2.1479 10.533 3.35538 C 11.5221 4.56209 12.1307 5.99253 12.2454 7.38691 C 12.343 8.577 12.0798 9.64562 11.486 10.4698 L 14.5038 13.6389 Z M 9.45028 4.27246 C 7.79679 2.25548 5.36497 1.60067 4.03325 2.74867 C 2.6967 3.90084 2.90881 6.48018 4.56492 8.50013 C 6.21882 10.5172 8.65027 11.1719 9.98197 10.0239 C 11.3185 8.87193 11.1064 6.29241 9.45028 4.27246 Z M 4.61612 2.96189 C 4.63716 2.68655 4.87743 2.48041 5.15277 2.50145 C 5.42811 2.5225 5.63425 2.76277 5.61321 3.03811 L 5.38388 6.03811 C 5.36284 6.31345 5.12257 6.51959 4.84723 6.49855 C 4.57189 6.4775 4.36575 6.23723 4.38679 5.96189 L 4.61612 2.96189 Z M 8.58156 6.95706 C 8.60528 6.68193 8.84754 6.47813 9.12266 6.50185 C 9.39778 6.52556 9.60159 6.76782 9.57787 7.04294 L 9.40546 9.04294 C 9.38174 9.31807 9.13949 9.52187 8.86436 9.49815 C 8.58924 9.47444 8.38544 9.23218 8.40915 8.95706 L 8.58156 6.95706 Z M 6.74378 3.95193 C 6.77033 3.67707 7.01467 3.47577 7.28954 3.50232 C 7.5644 3.52886 7.7657 3.77321 7.73915 4.04807 L 7.25622 9.04807 C 7.22967 9.32293 6.98533 9.52423 6.71046 9.49768 C 6.4356 9.47114 6.2343 9.22679 6.26085 8.95193 L 6.74378 3.95193 Z&quot;);caret-color:rgb(122, 122, 122);"/></svg>