<?xml version="1.0" standalone="no"?><!DOCTYPE svg PUBLIC "-//W3C//DTD SVG 1.1//EN" "http://www.w3.org/Graphics/SVG/1.1/DTD/svg11.dtd"><svg width="17" height="17" viewBox="0 0 17 17" version="1.1" xmlns="http://www.w3.org/2000/svg" xmlns:xlink="http://www.w3.org/1999/xlink" style="border-bottom-color:rgb(122, 122, 122);border-left-color:rgb(122, 122, 122);border-right-color:rgb(122, 122, 122);border-top-color:rgb(122, 122, 122);color:rgb(122, 122, 122);cursor:pointer;font-size:12px;height:17px;line-height:14.4px;outline-color:rgb(0, 153, 255);text-decoration:none solid rgb(122, 122, 122);text-decoration-color:rgb(122, 122, 122);width:17px;column-rule-color:rgb(122, 122, 122);perspective-origin:8.5px 8.5px;-webkit-tap-highlight-color:rgba(0, 0, 0, 0);-webkit-text-emphasis-color:rgb(122, 122, 122);-webkit-text-fill-color:rgb(122, 122, 122);-webkit-text-stroke-color:rgb(122, 122, 122);transform-origin:8.5px 8.5px;caret-color:rgb(122, 122, 122);"><path fill="rgba(147,62,239,1)" fill-rule="nonzero" d="M12.3317721,3 L15.1801664,0.129568383 C15.3266818,-0.0180804779 15.5959031,-0.0432790149 15.7814892,0.0732858752 C15.8077542,0.0897826678 15.8314975,0.108672446 15.852233,0.129568383 C16.0492557,0.328115335 16.0492557,0.608287607 15.852233,0.806834559 L13.6759052,3 L16,3 L9.17566065,10.2961554 L9.17566065,15.0731684 L12.358334,16.6349087 C12.5102198,16.7093448 12.4686565,17 12.3062516,17 L4.69400496,17 C4.5316001,17 4.49029334,16.7093448 4.64192252,16.6349087 L7.82459591,15.0734047 L7.82459591,10.2961554 L1,3 L12.3317721,3 Z M10.7107329,5.64449006 L10.1621996,5.22835683 C9.96952023,5.143287 9.75375011,5.09578968 9.52592149,5.09578968 C8.71056187,5.09578968 8.0499102,5.70451155 8.0499102,6.45525276 C8.0499102,7.20599398 8.71056187,7.81447954 9.52592149,7.81447954 C10.3410245,7.81447954 11.0019328,7.20599398 11.0019328,6.45525276 C11.0019328,6.15136444 10.8936629,5.87087032 10.7107329,5.64449006 Z" style="border-bottom-color:rgb(122, 122, 122);border-left-color:rgb(122, 122, 122);border-right-color:rgb(122, 122, 122);border-top-color:rgb(122, 122, 122);color:rgb(122, 122, 122);cursor:pointer;font-size:12px;height:auto;line-height:14.4px;outline-color:rgb(0, 153, 255);overflow-x:visible;overflow-y:visible;text-decoration:none solid rgb(122, 122, 122);text-decoration-color:rgb(122, 122, 122);width:auto;column-rule-color:rgb(122, 122, 122);perspective-origin:0px 0px;-webkit-tap-highlight-color:rgba(0, 0, 0, 0);-webkit-text-emphasis-color:rgb(122, 122, 122);-webkit-text-fill-color:rgb(122, 122, 122);-webkit-text-stroke-color:rgb(122, 122, 122);transform-origin:0px 0px;fill:rgb(147, 62, 239);d:path(&quot;M 12.3318 3 L 15.1802 0.129568 C 15.3267 -0.0180805 15.5959 -0.043279 15.7815 0.0732859 C 15.8078 0.0897827 15.8315 0.108672 15.8522 0.129568 C 16.0493 0.328115 16.0493 0.608288 15.8522 0.806835 L 13.6759 3 L 16 3 L 9.17566 10.2962 L 9.17566 15.0732 L 12.3583 16.6349 C 12.5102 16.7093 12.4687 17 12.3063 17 L 4.69401 17 C 4.5316 17 4.49029 16.7093 4.64192 16.6349 L 7.8246 15.0734 L 7.8246 10.2962 L 1 3 L 12.3318 3 Z M 10.7107 5.64449 L 10.1622 5.22836 C 9.96952 5.14329 9.75375 5.09579 9.52592 5.09579 C 8.71056 5.09579 8.04991 5.70451 8.04991 6.45525 C 8.04991 7.20599 8.71056 7.81448 9.52592 7.81448 C 10.341 7.81448 11.0019 7.20599 11.0019 6.45525 C 11.0019 6.15136 10.8937 5.87087 10.7107 5.64449 Z&quot;);caret-color:rgb(122, 122, 122);"/></svg>