<?xml version="1.0" standalone="no"?><!DOCTYPE svg PUBLIC "-//W3C//DTD SVG 1.1//EN" "http://www.w3.org/Graphics/SVG/1.1/DTD/svg11.dtd"><svg width="17" height="17" viewBox="0 0 17 17" version="1.1" xmlns="http://www.w3.org/2000/svg" xmlns:xlink="http://www.w3.org/1999/xlink" style="border-bottom-color:rgb(122, 122, 122);border-left-color:rgb(122, 122, 122);border-right-color:rgb(122, 122, 122);border-top-color:rgb(122, 122, 122);color:rgb(122, 122, 122);cursor:pointer;font-size:12px;height:17px;line-height:14.4px;outline-color:rgb(0, 153, 255);text-decoration:none solid rgb(122, 122, 122);text-decoration-color:rgb(122, 122, 122);width:17px;column-rule-color:rgb(122, 122, 122);perspective-origin:8.5px 8.5px;-webkit-tap-highlight-color:rgba(0, 0, 0, 0);-webkit-text-emphasis-color:rgb(122, 122, 122);-webkit-text-fill-color:rgb(122, 122, 122);-webkit-text-stroke-color:rgb(122, 122, 122);transform-origin:8.5px 8.5px;caret-color:rgb(122, 122, 122);"><path fill="rgba(205,99,79,1)" fill-rule="nonzero" d="M14.1999764,3.84676716 C13.50833,4.3480759 13.2866034,5.29325939 13.7152502,6.05347978 C14.143897,6.81370017 15.0722615,7.12160502 15.865147,6.80012153 L16.891049,8.61984289 C16.9054853,8.64516522 16.8962312,8.67746036 16.8706901,8.69158949 L3.79640826,15.9374458 C3.77068206,15.9515749 3.73829294,15.9424002 3.72385665,15.9170778 L2.69684415,14.0955215 C3.37812601,13.5918274 3.5943002,12.6538002 3.16842964,11.8985342 C2.74255907,11.1432681 1.82326351,10.8344458 1.03370947,11.1458371 L0.00669697456,9.32428075 C-0.00755423512,9.29895842 0.00169979714,9.26666328 0.0272409262,9.25253415 L13.1015228,2.00667784 C13.1270639,1.99254871 13.1596381,2.00153998 13.1738893,2.0270458 L14.1999764,3.84676716 Z M12.1984044,9.70255945 L11.7701708,8.94658004 L4.7951786,12.7970523 L5.22341223,13.5530317 L12.1984044,9.70255945 Z M10.2790496,6.27030138 L9.85099083,5.51432198 L2.87582376,9.36479419 L3.3038825,10.1207736 L10.2790496,6.27030138 Z M9.27367322,9.06507767 L8.84584034,8.31432198 L3.78980226,11.0861469 L4.21782075,11.8369026 L9.27367322,9.06507767 Z" style="border-bottom-color:rgb(122, 122, 122);border-left-color:rgb(122, 122, 122);border-right-color:rgb(122, 122, 122);border-top-color:rgb(122, 122, 122);color:rgb(122, 122, 122);cursor:pointer;font-size:12px;height:auto;line-height:14.4px;outline-color:rgb(0, 153, 255);overflow-x:visible;overflow-y:visible;text-decoration:none solid rgb(122, 122, 122);text-decoration-color:rgb(122, 122, 122);width:auto;column-rule-color:rgb(122, 122, 122);perspective-origin:0px 0px;-webkit-tap-highlight-color:rgba(0, 0, 0, 0);-webkit-text-emphasis-color:rgb(122, 122, 122);-webkit-text-fill-color:rgb(122, 122, 122);-webkit-text-stroke-color:rgb(122, 122, 122);transform-origin:0px 0px;fill:rgb(205, 99, 79);d:path(&quot;M 14.2 3.84677 C 13.5083 4.34808 13.2866 5.29326 13.7153 6.05348 C 14.1439 6.8137 15.0723 7.1216 15.8651 6.80012 L 16.891 8.61984 C 16.9055 8.64517 16.8962 8.67746 16.8707 8.69159 L 3.79641 15.9374 C 3.77068 15.9516 3.73829 15.9424 3.72386 15.9171 L 2.69684 14.0955 C 3.37813 13.5918 3.5943 12.6538 3.16843 11.8985 C 2.74256 11.1433 1.82326 10.8344 1.03371 11.1458 L 0.00669697 9.32428 C -0.00755423 9.29896 0.0016998 9.26666 0.0272409 9.25253 L 13.1015 2.00668 C 13.1271 1.99255 13.1596 2.00154 13.1739 2.02705 L 14.2 3.84677 Z M 12.1984 9.70256 L 11.7702 8.94658 L 4.79518 12.7971 L 5.22341 13.553 L 12.1984 9.70256 Z M 10.279 6.2703 L 9.85099 5.51432 L 2.87582 9.36479 L 3.30388 10.1208 L 10.279 6.2703 Z M 9.27367 9.06508 L 8.84584 8.31432 L 3.7898 11.0861 L 4.21782 11.8369 L 9.27367 9.06508 Z&quot;);caret-color:rgb(122, 122, 122);"/></svg>