<?xml version="1.0" standalone="no"?><!DOCTYPE svg PUBLIC "-//W3C//DTD SVG 1.1//EN" "http://www.w3.org/Graphics/SVG/1.1/DTD/svg11.dtd"><svg width="17" height="17" viewBox="0 0 17 17" version="1.1" xmlns="http://www.w3.org/2000/svg" xmlns:xlink="http://www.w3.org/1999/xlink" style="border-bottom-color:rgb(122, 122, 122);border-left-color:rgb(122, 122, 122);border-right-color:rgb(122, 122, 122);border-top-color:rgb(122, 122, 122);color:rgb(122, 122, 122);cursor:pointer;font-size:12px;height:17px;line-height:14.4px;outline-color:rgb(0, 153, 255);text-decoration:none solid rgb(122, 122, 122);text-decoration-color:rgb(122, 122, 122);width:17px;column-rule-color:rgb(122, 122, 122);perspective-origin:8.5px 8.5px;-webkit-tap-highlight-color:rgba(0, 0, 0, 0);-webkit-text-emphasis-color:rgb(122, 122, 122);-webkit-text-fill-color:rgb(122, 122, 122);-webkit-text-stroke-color:rgb(122, 122, 122);transform-origin:8.5px 8.5px;caret-color:rgb(122, 122, 122);"><path fill="rgba(46,142,245,1)" fill-rule="nonzero" d="M13.1022061,7.06564088 L15.6981864,7.06564088 C15.8424676,7.06564088 15.9826068,7.08424388 15.9793277,7.10337338 L15.7946615,8.28712088 C15.7912098,8.30905838 15.6992219,8.32450238 15.5694378,8.32450238 L1.47319418,8.32432688 C1.34358267,8.32432688 1.25142216,8.30905838 1.24831563,8.28712088 L1.06347685,7.10319788 C1.0605429,7.08406838 1.20033693,7.06564088 1.34461818,7.06564088 L3.91475739,7.06564088 L4.01137433,7.06564088 L7.50537514,2.2812212 C7.65034673,2.0818532 7.92665568,2.0397332 8.1227125,2.1869777 C8.31876932,2.3342222 8.36018977,2.6153732 8.21539077,2.8147412 L5.11086326,7.06564088 L12.0028668,7.06564088 L8.8981897,2.8147412 C8.7533907,2.6153732 8.79481115,2.3342222 8.99086797,2.1869777 C9.18709737,2.0397332 9.46323374,2.0818532 9.60820533,2.2812212 L13.1022061,7.06564088 Z M15.5406161,8.33561153 L13.7842162,14.761895 C13.7593639,14.853155 13.6775585,14.916335 13.5845351,14.916335 L3.45844205,14.916335 C3.36524602,14.916335 3.28344062,14.853155 3.25858835,14.761895 L1.50236108,8.33561153 L15.5406161,8.33561153 Z M5.36742386,13.6884053 C5.75574063,13.6884053 6.07036349,13.3682933 6.07036349,12.9734183 L6.07036349,10.0945163 C6.07036349,9.6996413 5.75574063,9.3795293 5.36742386,9.3795293 C4.9791071,9.3795293 4.66431165,9.6996413 4.66431165,10.0945163 L4.66431165,12.9734183 C4.66431165,13.3682933 4.9791071,13.6884053 5.36742386,13.6884053 Z M8.57255589,13.6884053 C8.96087266,13.6884053 9.27566811,13.3682933 9.27566811,12.9734183 L9.27566811,10.0945163 C9.27566811,9.6996413 8.96087266,9.3795293 8.57255589,9.3795293 C8.18423913,9.3795293 7.86944368,9.6996413 7.86944368,10.0945163 L7.86944368,12.9734183 C7.86944368,13.3682933 8.18423913,13.6884053 8.57255589,13.6884053 Z M11.7776879,13.6884053 C12.1660047,13.6884053 12.4808001,13.3682933 12.4808001,12.9734183 L12.4808001,10.0945163 C12.4808001,9.6996413 12.1660047,9.3795293 11.7776879,9.3795293 C11.3893712,9.3795293 11.0747483,9.6996413 11.0747483,10.0945163 L11.0747483,12.9734183 C11.0747483,13.3682933 11.3893712,13.6884053 11.7776879,13.6884053 Z" style="border-bottom-color:rgb(122, 122, 122);border-left-color:rgb(122, 122, 122);border-right-color:rgb(122, 122, 122);border-top-color:rgb(122, 122, 122);color:rgb(122, 122, 122);cursor:pointer;font-size:12px;height:auto;line-height:14.4px;outline-color:rgb(0, 153, 255);overflow-x:visible;overflow-y:visible;text-decoration:none solid rgb(122, 122, 122);text-decoration-color:rgb(122, 122, 122);width:auto;column-rule-color:rgb(122, 122, 122);perspective-origin:0px 0px;-webkit-tap-highlight-color:rgba(0, 0, 0, 0);-webkit-text-emphasis-color:rgb(122, 122, 122);-webkit-text-fill-color:rgb(122, 122, 122);-webkit-text-stroke-color:rgb(122, 122, 122);transform-origin:0px 0px;fill:rgb(46, 142, 245);d:path(&quot;M 13.1022 7.06564 L 15.6982 7.06564 C 15.8425 7.06564 15.9826 7.08424 15.9793 7.10337 L 15.7947 8.28712 C 15.7912 8.30906 15.6992 8.3245 15.5694 8.3245 L 1.47319 8.32433 C 1.34358 8.32433 1.25142 8.30906 1.24832 8.28712 L 1.06348 7.1032 C 1.06054 7.08407 1.20034 7.06564 1.34462 7.06564 L 3.91476 7.06564 L 4.01137 7.06564 L 7.50537 2.28122 C 7.65035 2.08185 7.92666 2.03973 8.12271 2.18698 C 8.31877 2.33422 8.36019 2.61537 8.21539 2.81474 L 5.11086 7.06564 L 12.0029 7.06564 L 8.89819 2.81474 C 8.75339 2.61537 8.79481 2.33422 8.99087 2.18698 C 9.1871 2.03973 9.46323 2.08185 9.60821 2.28122 L 13.1022 7.06564 Z M 15.5406 8.33561 L 13.7842 14.7619 C 13.7594 14.8532 13.6776 14.9163 13.5845 14.9163 L 3.45844 14.9163 C 3.36525 14.9163 3.28344 14.8532 3.25859 14.7619 L 1.50236 8.33561 L 15.5406 8.33561 Z M 5.36742 13.6884 C 5.75574 13.6884 6.07036 13.3683 6.07036 12.9734 L 6.07036 10.0945 C 6.07036 9.69964 5.75574 9.37953 5.36742 9.37953 C 4.97911 9.37953 4.66431 9.69964 4.66431 10.0945 L 4.66431 12.9734 C 4.66431 13.3683 4.97911 13.6884 5.36742 13.6884 Z M 8.57256 13.6884 C 8.96087 13.6884 9.27567 13.3683 9.27567 12.9734 L 9.27567 10.0945 C 9.27567 9.69964 8.96087 9.37953 8.57256 9.37953 C 8.18424 9.37953 7.86944 9.69964 7.86944 10.0945 L 7.86944 12.9734 C 7.86944 13.3683 8.18424 13.6884 8.57256 13.6884 Z M 11.7777 13.6884 C 12.166 13.6884 12.4808 13.3683 12.4808 12.9734 L 12.4808 10.0945 C 12.4808 9.69964 12.166 9.37953 11.7777 9.37953 C 11.3894 9.37953 11.0747 9.69964 11.0747 10.0945 L 11.0747 12.9734 C 11.0747 13.3683 11.3894 13.6884 11.7777 13.6884 Z&quot;);caret-color:rgb(122, 122, 122);"/></svg>