<?xml version="1.0" encoding="utf-8"?>
<svg viewBox="0 0 97661.458 107467.691" style="shape-rendering:geometricPrecision;text-rendering:geometricPrecision;image-rendering:optimizeQuality;" fill-rule="evenodd" clip-rule="evenodd" xmlns="http://www.w3.org/2000/svg">
  <defs>
    <style type="text/css">
   
    .fil0 {fill:black;fill-rule:nonzero}
   
  </style>
  </defs>
  <g>
    <path class="fil0" d="M 57197.9 103865.995 C 57524.18 104477.594 56593.99 104973.527 56267.72 104361.948 C 51527.53 95507.962 34637.69 86146.326 25520.14 74396.158 C 22081.4 69964.471 18907.66 65514.47 15590.31 61021.521 C 12873.48 57341.912 12264.82 56517.526 12207.58 51625.655 C 12170.63 48467.331 11895.94 46532.055 10725.92 43593.955 C 7757.55 36140.114 14943.77 34532.351 19830.15 39319.242 C 22706.87 42137.437 23997.86 45003.778 23862.06 49015.959 C 26340.07 50699.41 29759.55 54394.225 31170.28 57058.635 C 31523.44 57725.658 31807.68 58072.125 32000.13 58006.265 C 32485.05 57840.324 32952.34 56379.847 33107.3 55878.795 C 34170.39 52441.184 34409.19 49449.07 33511.52 45937.201 C 32072.95 40309.209 28892.64 34357.482 25911.59 28778.685 C 23827.92 24879.201 21891.22 21117.166 20189.56 17020.65 C 19239.22 14732.888 18353.98 12395.59 17488.68 9996.711 C 14496.34 1701.099 23426.61 -2343.342 27412.95 4980.477 C 28565.15 7097.37 29743.81 9122.63 30925.99 11153.958 C 33071.15 14839.966 35079.03 18615.077 37257.05 22270.624 C 38265.28 23962.803 39357.46 25696.639 40509.01 27340.122 C 41922.09 24028.913 43364.4 21149.146 46984.07 20367.088 C 51025.56 19493.897 53594.68 22029.106 55864.72 25285.77 C 57619.52 23640.448 59713.12 23234.658 62050.1 23509.547 C 64838.82 23837.57 67120.65 26190.802 69017.4 28959.802 C 71896.39 27681.471 76425.22 29200.98 78163.7 31752.434 C 80476.05 35146.119 83154.75 39985.275 84570.11 43825.727 C 85771.41 47085.351 86168.91 53115.354 86541.63 58769.668 C 87180.55 68462.256 86955.39 82474.284 95579.24 88783.345 C 96139.33 89193.763 95515.11 90045.141 94955 89634.712 C 85947.27 83044.825 86154.73 68960.179 85487.43 58835.789 C 85119.74 53257.672 84727.6 47308.925 83577.93 44189.419 C 82192.05 40428.913 79555.79 35670.873 77291.4 32347.578 C 76500.98 31187.542 74986.9 30270.573 73370.15 29831.364 C 72051.24 29473.07 70681.96 29437.28 69609.13 29854.317 C 71048.05 32103.5 72184.24 34495.811 73576.34 36747.264 C 73940.21 37336.35 73043.12 37890.156 72679.24 37301.06 C 70239.89 33355.849 66812.53 25133.576 61930.22 24559.296 C 59835.97 24312.979 58008.18 24653.948 56465.79 26172.248 C 57912.47 28358.13 59260.12 30797.397 61016.69 32727.735 C 61483.76 33240.823 60702.41 33951.663 60235.35 33438.585 C 56605.6 29449.747 53399.24 20062.488 47207.31 21400.302 C 43902.18 22114.39 42616.73 25055.769 41228.09 28344.634 C 42635.86 30277.771 44337.54 32518.537 46391.76 33782.603 C 46983.75 34146.365 46429.8 35047.348 45837.8 34683.576 C 43549.1 33275.233 41690.82 30786.8 40133.1 28630.539 C 38781.96 26760.244 37510.38 24756.737 36351.69 22812.024 C 34170.68 19151.468 32160.15 15373.488 30012.35 11682.961 C 28838.64 9666.179 27668.41 7655.415 26486.91 5484.688 C 23112.75 -714.435 15934.38 2581.738 18480.86 9641.276 C 19329.97 11995.279 20207.21 14309.453 21165.2 16615.63 C 22853.03 20678.806 24774.82 24414.569 26841.77 28282.732 C 29855.15 33922.031 33069.96 39938.319 34536.78 45676.838 C 35481.48 49372.743 35235.05 52570.255 34116.02 56188.763 C 33631.65 57754.929 33350.58 58449.873 32164.54 59682.438 C 32039.73 59812.15 31918.72 59937.902 31790.81 60081.72 C 31329.16 60600.236 30539.55 59897.634 31001.19 59379.128 C 31583.32 58724.622 31420.16 59099.801 30877.71 58503.147 C 30655.53 58258.76 30441.73 57939.065 30235.98 57550.45 C 28900.68 55028.497 26039.17 52014.22 23780.77 50258.88 C 23762.87 50448.744 23742.53 50640.547 23719.78 50834.47 C 23640.95 51524.865 22590.88 51405.041 22669.72 50714.625 C 23193.33 46250.468 22346.68 43261.704 19090.15 40071.419 C 15168.58 36229.698 9122.8 36719.522 11705.7 43205.47 C 12928.05 46274.951 13223.19 48318.655 13261.78 51617.398 C 13314.97 56163.801 13886.54 56937.941 16437.81 60393.327 C 19751.13 64880.768 22920.67 69325.141 26355.22 73751.429 C 35582.77 85643.355 52267.75 94657.194 57197.9 103865.995 Z" style="fill: rgb(153, 153, 153);"/>
  </g>
</svg>