<?xml version="1.0" standalone="no"?><!DOCTYPE svg PUBLIC "-//W3C//DTD SVG 1.1//EN" "http://www.w3.org/Graphics/SVG/1.1/DTD/svg11.dtd"><svg width="17" height="17" viewBox="0 0 17 17" version="1.1" xmlns="http://www.w3.org/2000/svg" xmlns:xlink="http://www.w3.org/1999/xlink" style="border-bottom-color:rgb(122, 122, 122);border-left-color:rgb(122, 122, 122);border-right-color:rgb(122, 122, 122);border-top-color:rgb(122, 122, 122);color:rgb(122, 122, 122);cursor:pointer;font-size:12px;height:17px;line-height:14.4px;outline-color:rgb(0, 153, 255);text-decoration:none solid rgb(122, 122, 122);text-decoration-color:rgb(122, 122, 122);width:17px;column-rule-color:rgb(122, 122, 122);perspective-origin:8.5px 8.5px;-webkit-tap-highlight-color:rgba(0, 0, 0, 0);-webkit-text-emphasis-color:rgb(122, 122, 122);-webkit-text-fill-color:rgb(122, 122, 122);-webkit-text-stroke-color:rgb(122, 122, 122);transform-origin:8.5px 8.5px;caret-color:rgb(122, 122, 122);"><path fill="rgba(102,214,147,1)" fill-rule="nonzero" d="M1.83378246,8.899125 L4.09347212,8.899125 C4.32517308,8.899125 4.52652025,8.73993969 4.57998089,8.5144906 L5.42338212,4.95777952 L7.05077482,12.6083141 C7.16532743,13.1468373 7.9390019,13.1318133 8.03256077,12.5892487 L8.61984405,9.18348875 L8.96858531,10.5097225 C9.097617,11.0004193 9.79103497,11.0091349 9.93235915,10.5218363 L11.0617256,6.62767818 L11.9344443,9.2706216 C12.0740229,9.69332194 12.6548307,9.73661039 12.8555281,9.33927132 L13.4487529,8.16480954 L15.5210308,8.18999006 C15.2695907,8.78525912 14.9089958,9.34287743 14.439246,9.83015522 L8.51699505,15.9733856 L8.47460117,15.9733856 L2.55235027,9.83015522 C2.27469203,9.54213661 2.03516943,9.22954299 1.83378246,8.899125 Z M1.36824623,7.92924757 C0.673813262,6.01665999 1.06851461,3.77560789 2.55235027,2.23640522 C4.05908138,0.673452799 6.50153732,0.673452799 8.00848696,2.23640522 L8.49536106,2.74167295 L8.98310926,2.23640522 C10.4896219,0.673452799 12.9325148,0.673452799 14.439246,2.23640522 C15.7415729,3.58732642 16.2049231,5.47889286 15.8292968,7.21452256 C15.784049,7.20040177 15.7360146,7.19252854 15.6861893,7.1919231 L13.149112,7.16109474 C12.9582846,7.15877598 12.7827798,7.26528607 12.6967381,7.43563073 L12.5061928,7.81287083 L11.5055575,4.78254444 C11.3515081,4.31602066 10.6874057,4.32819585 10.5505599,4.80005271 L9.47573128,8.50615936 L9.00173124,6.70357689 C8.86507155,6.18387153 8.11675786,6.21620981 8.02544192,6.74576712 L7.48847769,9.85971806 L5.93891583,2.57507393 C5.82793811,2.05335666 5.08641887,2.044741 4.96334915,2.56373888 L3.69817153,7.899125 L1.53956835,7.899125 C1.4793855,7.899125 1.42168609,7.90975789 1.36824623,7.92924757 Z" style="border-bottom-color:rgb(122, 122, 122);border-left-color:rgb(122, 122, 122);border-right-color:rgb(122, 122, 122);border-top-color:rgb(122, 122, 122);color:rgb(122, 122, 122);cursor:pointer;font-size:12px;height:auto;line-height:14.4px;outline-color:rgb(0, 153, 255);overflow-x:visible;overflow-y:visible;text-decoration:none solid rgb(122, 122, 122);text-decoration-color:rgb(122, 122, 122);width:auto;column-rule-color:rgb(122, 122, 122);perspective-origin:0px 0px;-webkit-tap-highlight-color:rgba(0, 0, 0, 0);-webkit-text-emphasis-color:rgb(122, 122, 122);-webkit-text-fill-color:rgb(122, 122, 122);-webkit-text-stroke-color:rgb(122, 122, 122);transform-origin:0px 0px;fill:rgb(102, 214, 147);d:path(&quot;M 1.83378 8.89913 L 4.09347 8.89913 C 4.32517 8.89913 4.52652 8.73994 4.57998 8.51449 L 5.42338 4.95778 L 7.05078 12.6083 C 7.16533 13.1468 7.939 13.1318 8.03256 12.5892 L 8.61984 9.18349 L 8.96859 10.5097 C 9.09762 11.0004 9.79103 11.0091 9.93236 10.5218 L 11.0617 6.62768 L 11.9344 9.27062 C 12.074 9.69332 12.6548 9.73661 12.8555 9.33927 L 13.4488 8.16481 L 15.521 8.18999 C 15.2696 8.78526 14.909 9.34288 14.4392 9.83016 L 8.517 15.9734 L 8.4746 15.9734 L 2.55235 9.83016 C 2.27469 9.54214 2.03517 9.22954 1.83378 8.89913 Z M 1.36825 7.92925 C 0.673813 6.01666 1.06851 3.77561 2.55235 2.23641 C 4.05908 0.673453 6.50154 0.673453 8.00849 2.23641 L 8.49536 2.74167 L 8.98311 2.23641 C 10.4896 0.673453 12.9325 0.673453 14.4392 2.23641 C 15.7416 3.58733 16.2049 5.47889 15.8293 7.21452 C 15.784 7.2004 15.736 7.19253 15.6862 7.19192 L 13.1491 7.16109 C 12.9583 7.15878 12.7828 7.26529 12.6967 7.43563 L 12.5062 7.81287 L 11.5056 4.78254 C 11.3515 4.31602 10.6874 4.3282 10.5506 4.80005 L 9.47573 8.50616 L 9.00173 6.70358 C 8.86507 6.18387 8.11676 6.21621 8.02544 6.74577 L 7.48848 9.85972 L 5.93892 2.57507 C 5.82794 2.05336 5.08642 2.04474 4.96335 2.56374 L 3.69817 7.89913 L 1.53957 7.89913 C 1.47939 7.89913 1.42169 7.90976 1.36825 7.92925 Z&quot;);caret-color:rgb(122, 122, 122);"/></svg>