<?xml version="1.0" standalone="no"?><!DOCTYPE svg PUBLIC "-//W3C//DTD SVG 1.1//EN" "http://www.w3.org/Graphics/SVG/1.1/DTD/svg11.dtd"><svg width="17" height="17" viewBox="0 0 17 17" version="1.1" xmlns="http://www.w3.org/2000/svg" xmlns:xlink="http://www.w3.org/1999/xlink" style="border-bottom-color:rgb(122, 122, 122);border-left-color:rgb(122, 122, 122);border-right-color:rgb(122, 122, 122);border-top-color:rgb(122, 122, 122);color:rgb(122, 122, 122);cursor:pointer;font-size:12px;height:17px;line-height:14.4px;outline-color:rgb(0, 153, 255);text-decoration:none solid rgb(122, 122, 122);text-decoration-color:rgb(122, 122, 122);width:17px;column-rule-color:rgb(122, 122, 122);perspective-origin:8.5px 8.5px;-webkit-tap-highlight-color:rgba(0, 0, 0, 0);-webkit-text-emphasis-color:rgb(122, 122, 122);-webkit-text-fill-color:rgb(122, 122, 122);-webkit-text-stroke-color:rgb(122, 122, 122);transform-origin:8.5px 8.5px;caret-color:rgb(122, 122, 122);"><path fill="rgba(42,206,230,1)" fill-rule="nonzero" d="M2.28006645,15.3366713 C1.89398421,14.9759188 1.5738477,14.567237 1.68695461,14.4469205 C1.68695461,14.4469205 9.53129836,6.80287419 9.54049079,6.79419562 C9.54049079,6.79419562 9.5141125,6.35454708 9.51051546,6.27565097 C9.47954095,5.59359416 9.65339786,4.99240584 10.0996306,4.46340747 C10.408976,4.09673782 12.1581363,2.50540341 12.5148428,2.1614164 C12.8679521,1.82078247 13.2272564,1.48507955 13.5755697,1.13951461 C13.6960706,1.01998701 13.8605352,0.98744237 13.9854324,1.10164448 C14.1101298,1.21564935 14.0875484,1.37817532 13.9734423,1.50322565 L10.8823863,4.93500893 C10.818439,5.00207062 10.8202375,5.10443831 10.8865829,5.16499107 C10.9263502,5.20148052 10.9661174,5.23796997 11.0058847,5.27426218 C11.0722301,5.33501218 11.1763444,5.32948945 11.2400919,5.26223052 C11.6807293,4.81705925 13.9346742,2.5602362 14.5012079,1.98606981 C14.6203099,1.86535877 14.7837753,1.83182792 14.9084727,1.94603003 C15.0331701,2.06023214 15.0119875,2.22354708 14.8990804,2.34997808 C14.3617227,2.95096916 12.2526586,5.34033766 11.8364012,5.80779708 C11.7732531,5.87545049 11.7756512,5.9784099 11.8419965,6.0391599 C11.8817638,6.07545211 11.9215311,6.11194156 11.9612984,6.14843101 C12.0276437,6.20898377 12.1311586,6.20306656 12.1941067,6.13501867 L15.4266462,2.83282224 C15.5443493,2.71092776 15.7068156,2.67660795 15.831513,2.79061282 C15.9562104,2.90481494 15.936027,3.06911607 15.8243189,3.19673052 C15.5015845,3.56576705 15.1898411,3.94466558 14.8723025,4.31823864 C14.5517663,4.69536201 13.0769801,6.5373888 12.7298658,6.86973864 C12.2292778,7.34903247 11.6351668,7.56560227 10.9437359,7.58690422 C10.8636018,7.5892711 10.4175689,7.59656899 10.4175689,7.59656899 C10.4093757,7.60623377 3.28164211,15.9059067 3.28164211,15.9059067 C3.1685352,16.0262232 2.7314949,15.742 2.33781891,15.3895317 L2.28006645,15.3366713 Z M8.21454211,10.2761371 L9.22770822,9.08579213 L14.1734377,14.2793254 C14.2819484,14.4035868 13.947024,14.8006314 13.5481523,15.1473798 L13.4884015,15.1980705 C13.0821359,15.5365348 12.6349039,15.8047816 12.5263933,15.6805202 C12.5263933,15.6805202 10.1609401,12.7156046 8.21454211,10.2761371 Z M8.22331488,8.03089205 L7.20455337,9.01018994 C7.01251143,8.76955682 6.83225979,8.54371672 6.66799498,8.33779789 L6.62383133,8.36797565 L6.33666768,8.55949594 C5.6128634,9.0168961 4.97678692,9.25752922 4.22640452,8.16422646 C3.76978035,7.49873782 3.18765946,6.55987419 1.82598018,4.51804302 C0.543435773,2.59475325 1.09757969,1.5892224 1.45268742,1.08823214 C1.48206324,1.04681169 1.5572014,1.03044075 1.59217262,1.06732468 L8.22331488,8.03089205 Z" style="border-bottom-color:rgb(122, 122, 122);border-left-color:rgb(122, 122, 122);border-right-color:rgb(122, 122, 122);border-top-color:rgb(122, 122, 122);color:rgb(122, 122, 122);cursor:pointer;font-size:12px;height:auto;line-height:14.4px;outline-color:rgb(0, 153, 255);overflow-x:visible;overflow-y:visible;text-decoration:none solid rgb(122, 122, 122);text-decoration-color:rgb(122, 122, 122);width:auto;column-rule-color:rgb(122, 122, 122);perspective-origin:0px 0px;-webkit-tap-highlight-color:rgba(0, 0, 0, 0);-webkit-text-emphasis-color:rgb(122, 122, 122);-webkit-text-fill-color:rgb(122, 122, 122);-webkit-text-stroke-color:rgb(122, 122, 122);transform-origin:0px 0px;fill:rgb(42, 206, 230);d:path(&quot;M 2.28007 15.3367 C 1.89398 14.9759 1.57385 14.5672 1.68695 14.4469 C 1.68695 14.4469 9.5313 6.80287 9.54049 6.7942 C 9.54049 6.7942 9.51411 6.35455 9.51052 6.27565 C 9.47954 5.59359 9.6534 4.99241 10.0996 4.46341 C 10.409 4.09674 12.1581 2.5054 12.5148 2.16142 C 12.868 1.82078 13.2273 1.48508 13.5756 1.13951 C 13.6961 1.01999 13.8605 0.987442 13.9854 1.10164 C 14.1101 1.21565 14.0875 1.37818 13.9734 1.50323 L 10.8824 4.93501 C 10.8184 5.00207 10.8202 5.10444 10.8866 5.16499 C 10.9264 5.20148 10.9661 5.23797 11.0059 5.27426 C 11.0722 5.33501 11.1763 5.32949 11.2401 5.26223 C 11.6807 4.81706 13.9347 2.56024 14.5012 1.98607 C 14.6203 1.86536 14.7838 1.83183 14.9085 1.94603 C 15.0332 2.06023 15.012 2.22355 14.8991 2.34998 C 14.3617 2.95097 12.2527 5.34034 11.8364 5.8078 C 11.7733 5.87545 11.7757 5.97841 11.842 6.03916 C 11.8818 6.07545 11.9215 6.11194 11.9613 6.14843 C 12.0276 6.20898 12.1312 6.20307 12.1941 6.13502 L 15.4266 2.83282 C 15.5443 2.71093 15.7068 2.67661 15.8315 2.79061 C 15.9562 2.90481 15.936 3.06912 15.8243 3.19673 C 15.5016 3.56577 15.1898 3.94467 14.8723 4.31824 C 14.5518 4.69536 13.077 6.53739 12.7299 6.86974 C 12.2293 7.34903 11.6352 7.5656 10.9437 7.5869 C 10.8636 7.58927 10.4176 7.59657 10.4176 7.59657 C 10.4094 7.60623 3.28164 15.9059 3.28164 15.9059 C 3.16854 16.0262 2.73149 15.742 2.33782 15.3895 L 2.28007 15.3367 Z M 8.21454 10.2761 L 9.22771 9.08579 L 14.1734 14.2793 C 14.2819 14.4036 13.947 14.8006 13.5482 15.1474 L 13.4884 15.1981 C 13.0821 15.5365 12.6349 15.8048 12.5264 15.6805 C 12.5264 15.6805 10.1609 12.7156 8.21454 10.2761 Z M 8.22332 8.03089 L 7.20455 9.01019 C 7.01251 8.76956 6.83226 8.54372 6.66799 8.3378 L 6.62383 8.36798 L 6.33667 8.5595 C 5.61286 9.0169 4.97679 9.25753 4.2264 8.16423 C 3.76978 7.49874 3.18766 6.55987 1.82598 4.51804 C 0.543436 2.59475 1.09758 1.58922 1.45269 1.08823 C 1.48206 1.04681 1.5572 1.03044 1.59217 1.06732 L 8.22332 8.03089 Z&quot;);caret-color:rgb(122, 122, 122);"/></svg>