<?xml version="1.0" standalone="no"?><!DOCTYPE svg PUBLIC "-//W3C//DTD SVG 1.1//EN" "http://www.w3.org/Graphics/SVG/1.1/DTD/svg11.dtd"><svg width="17" height="17" viewBox="0 0 17 17" version="1.1" xmlns="http://www.w3.org/2000/svg" xmlns:xlink="http://www.w3.org/1999/xlink" style="border-bottom-color:rgb(122, 122, 122);border-left-color:rgb(122, 122, 122);border-right-color:rgb(122, 122, 122);border-top-color:rgb(122, 122, 122);color:rgb(122, 122, 122);cursor:pointer;font-size:12px;height:17px;line-height:14.4px;outline-color:rgb(0, 153, 255);text-decoration:none solid rgb(122, 122, 122);text-decoration-color:rgb(122, 122, 122);width:17px;column-rule-color:rgb(122, 122, 122);perspective-origin:8.5px 8.5px;-webkit-tap-highlight-color:rgba(0, 0, 0, 0);-webkit-text-emphasis-color:rgb(122, 122, 122);-webkit-text-fill-color:rgb(122, 122, 122);-webkit-text-stroke-color:rgb(122, 122, 122);transform-origin:8.5px 8.5px;caret-color:rgb(122, 122, 122);"><path fill="rgba(184,160,136,1)" fill-rule="nonzero" d="M6.00020561,8.87756353 C6.00497087,7.47523563 6.09256858,6.64688891 6.26299872,6.39252336 C6.4383312,6.13084112 6.72195727,6 7.11387693,6 L11.8014424,6 C12.2964988,6 12.6265364,6.14018692 12.7915552,6.42056075 C12.9523203,6.69370735 13.0200916,7.49463021 12.9948693,8.82332933 L14.5000022,8.81165905 L14.5000022,7.91619758 C14.5000022,7.90905774 14.5004257,7.90192418 14.5012704,7.89483449 L14.5014809,7.89485956 C14.543407,7.54299972 14.8211846,7.3670698 15.3348135,7.3670698 C15.8437632,7.3670698 16,7.48419982 16,7.90830591 C16,9.16399783 16,10.4196898 16.0000077,11.6753894 C16.0000035,11.8546712 15.8546634,12.0000043 15.6753817,12 L14.8246205,11.9999642 C14.6453417,11.99996 14.5000099,11.8546247 14.5000099,11.6753459 L14.5000022,10.9961221 C14.5000022,10.8168403 14.3546656,10.6715037 14.1753838,10.6715037 L2.78849315,10.6715037 C2.60921141,10.6715037 2.46387483,10.8168403 2.46387483,10.9961221 L2.46386691,11.6753459 C2.46386691,11.8546246 2.31853517,11.9999599 2.13925651,11.9999642 L1.32460934,12.0000011 C1.14532759,12.0000005 0.999991491,11.8546634 0.999992072,11.6753817 L1.00002146,5.37307213 C1.0000215,5.36048396 1.00133809,5.34793031 1.00394973,5.33561604 L1.00414366,5.33565716 C1.05160173,5.11188572 1.24979907,5 1.59873565,5 C2.18352632,5 2.3590262,5.17297092 2.3590262,5.45927448 C2.3590262,5.80658032 2.40099415,6.85123968 2.48493004,8.59325255 C2.49331426,8.76725933 2.63753475,8.90363577 2.81173817,8.9022858 L6.00020561,8.87756353 Z M4,8 C3.44771525,8 3,7.55228475 3,7 C3,6.44771525 3.44771525,6 4,6 C4.55228475,6 5,6.44771525 5,7 C5,7.55228475 4.55228475,8 4,8 Z" style="border-bottom-color:rgb(122, 122, 122);border-left-color:rgb(122, 122, 122);border-right-color:rgb(122, 122, 122);border-top-color:rgb(122, 122, 122);color:rgb(122, 122, 122);cursor:pointer;font-size:12px;height:auto;line-height:14.4px;outline-color:rgb(0, 153, 255);overflow-x:visible;overflow-y:visible;text-decoration:none solid rgb(122, 122, 122);text-decoration-color:rgb(122, 122, 122);width:auto;column-rule-color:rgb(122, 122, 122);perspective-origin:0px 0px;-webkit-tap-highlight-color:rgba(0, 0, 0, 0);-webkit-text-emphasis-color:rgb(122, 122, 122);-webkit-text-fill-color:rgb(122, 122, 122);-webkit-text-stroke-color:rgb(122, 122, 122);transform-origin:0px 0px;fill:rgb(184, 160, 136);d:path(&quot;M 6.00021 8.87756 C 6.00497 7.47524 6.09257 6.64689 6.263 6.39252 C 6.43833 6.13084 6.72196 6 7.11388 6 L 11.8014 6 C 12.2965 6 12.6265 6.14019 12.7916 6.42056 C 12.9523 6.69371 13.0201 7.49463 12.9949 8.82333 L 14.5 8.81166 L 14.5 7.9162 C 14.5 7.90906 14.5004 7.90192 14.5013 7.89483 L 14.5015 7.89486 C 14.5434 7.543 14.8212 7.36707 15.3348 7.36707 C 15.8438 7.36707 16 7.4842 16 7.90831 C 16 9.164 16 10.4197 16 11.6754 C 16 11.8547 15.8547 12 15.6754 12 L 14.8246 12 C 14.6453 12 14.5 11.8546 14.5 11.6753 L 14.5 10.9961 C 14.5 10.8168 14.3547 10.6715 14.1754 10.6715 L 2.78849 10.6715 C 2.60921 10.6715 2.46387 10.8168 2.46387 10.9961 L 2.46387 11.6753 C 2.46387 11.8546 2.31854 12 2.13926 12 L 1.32461 12 C 1.14533 12 0.999992 11.8547 0.999992 11.6754 L 1.00002 5.37307 C 1.00002 5.36048 1.00134 5.34793 1.00395 5.33562 L 1.00414 5.33566 C 1.0516 5.11189 1.2498 5 1.59874 5 C 2.18353 5 2.35903 5.17297 2.35903 5.45927 C 2.35903 5.80658 2.40099 6.85124 2.48493 8.59325 C 2.49331 8.76726 2.63753 8.90364 2.81174 8.90229 L 6.00021 8.87756 Z M 4 8 C 3.44772 8 3 7.55228 3 7 C 3 6.44772 3.44772 6 4 6 C 4.55228 6 5 6.44772 5 7 C 5 7.55228 4.55228 8 4 8 Z&quot;);caret-color:rgb(122, 122, 122);"/></svg>