<?xml version="1.0" standalone="no"?><!DOCTYPE svg PUBLIC "-//W3C//DTD SVG 1.1//EN" "http://www.w3.org/Graphics/SVG/1.1/DTD/svg11.dtd"><svg width="17" height="17" viewBox="0 0 17 17" version="1.1" xmlns:xlink="http://www.w3.org/1999/xlink" style="border-bottom-color:rgb(122, 122, 122);border-left-color:rgb(122, 122, 122);border-right-color:rgb(122, 122, 122);border-top-color:rgb(122, 122, 122);color:rgb(122, 122, 122);cursor:pointer;font-size:12px;height:17px;line-height:14.4px;outline-color:rgb(0, 153, 255);text-decoration:none solid rgb(122, 122, 122);text-decoration-color:rgb(122, 122, 122);width:17px;column-rule-color:rgb(122, 122, 122);perspective-origin:8.5px 8.5px;-webkit-tap-highlight-color:rgba(0, 0, 0, 0);-webkit-text-emphasis-color:rgb(122, 122, 122);-webkit-text-fill-color:rgb(122, 122, 122);-webkit-text-stroke-color:rgb(122, 122, 122);transform-origin:8.5px 8.5px;caret-color:rgb(122, 122, 122);" xmlns="http://www.w3.org/2000/svg"><path fill="rgba(184,160,136,1)" fill-rule="nonzero" d="M9.40076336,4.47657484 C13.1875971,4.9290226 16.1227903,8.11683101 16.1227903,11.9833343 L16.1227903,12.2333343 L13.8759542,12.2333343 L13.8759542,13.1030485 L16.1422442,13.1030485 L16.1422442,14.9601772 C16.1422442,15.6288572 15.6075642,16.1726625 14.9457499,16.1726625 L2.0013625,16.1726625 C1.33952324,16.1726625 0.804636355,15.6288308 0.804636355,14.9601772 L0.804636355,13.1030485 L3.1240458,13.1030485 L3.1240458,12.2333343 L0.824136641,12.2333343 L0.824136641,11.9833343 C0.824136641,8.13773378 3.72769916,4.96345941 7.48473282,4.48414032 L7.48473282,3.79109589 L7.19841641,3.79109589 C6.92223122,3.79109589 6.70419847,3.56022393 6.70419847,3.28232414 L6.70419847,2.98504916 C6.70419847,2.70717138 6.92219706,2.4760274 7.19841641,2.4760274 L9.68707977,2.4760274 C9.96349324,2.4760274 10.1812977,2.70711973 10.1812977,2.98504916 L10.1812977,3.28232414 C10.1812977,3.5602754 9.963459,3.79109589 9.68707977,3.79109589 L9.40076336,3.79109589 L9.40076336,4.47657484 Z" style="border-bottom-color:rgb(122, 122, 122);border-left-color:rgb(122, 122, 122);border-right-color:rgb(122, 122, 122);border-top-color:rgb(122, 122, 122);color:rgb(122, 122, 122);cursor:pointer;font-size:12px;height:auto;line-height:14.4px;outline-color:rgb(0, 153, 255);overflow-x:visible;overflow-y:visible;text-decoration:none solid rgb(122, 122, 122);text-decoration-color:rgb(122, 122, 122);width:auto;column-rule-color:rgb(122, 122, 122);perspective-origin:0px 0px;-webkit-tap-highlight-color:rgba(0, 0, 0, 0);-webkit-text-emphasis-color:rgb(122, 122, 122);-webkit-text-fill-color:rgb(122, 122, 122);-webkit-text-stroke-color:rgb(122, 122, 122);transform-origin:0px 0px;fill:rgb(184, 160, 136);d:path(&quot;M 9.40076 4.47657 C 13.1876 4.92902 16.1228 8.11683 16.1228 11.9833 L 16.1228 12.2333 L 13.876 12.2333 L 13.876 13.103 L 16.1422 13.103 L 16.1422 14.9602 C 16.1422 15.6289 15.6076 16.1727 14.9458 16.1727 L 2.00136 16.1727 C 1.33952 16.1727 0.804636 15.6288 0.804636 14.9602 L 0.804636 13.103 L 3.12405 13.103 L 3.12405 12.2333 L 0.824137 12.2333 L 0.824137 11.9833 C 0.824137 8.13773 3.7277 4.96346 7.48473 4.48414 L 7.48473 3.7911 L 7.19842 3.7911 C 6.92223 3.7911 6.7042 3.56022 6.7042 3.28232 L 6.7042 2.98505 C 6.7042 2.70717 6.9222 2.47603 7.19842 2.47603 L 9.68708 2.47603 C 9.96349 2.47603 10.1813 2.70712 10.1813 2.98505 L 10.1813 3.28232 C 10.1813 3.56028 9.96346 3.7911 9.68708 3.7911 L 9.40076 3.7911 L 9.40076 4.47657 Z&quot;);caret-color:rgb(122, 122, 122);"/></svg>