<svg width="119" height="349" xmlns="http://www.w3.org/2000/svg" xmlns:xlink="http://www.w3.org/1999/xlink" overflow="hidden"><defs><clipPath id="clip0"><rect x="963" y="213" width="119" height="349"/></clipPath></defs><g clip-path="url(#clip0)" transform="translate(-963 -213)"><path d="M1080.71 216.034 1068.02 237.034 1068.03 237.027 1055.47 258.027 1055.48 258 1043.36 279 1043.38 278.967 1031.81 299.904 1031.84 299.849 1021.09 320.849 1021.13 320.782 1011.38 341.719 1011.41 341.637 1002.79 362.574 1002.82 362.499 999.004 372.936 999.025 372.876 995.587 383.313 995.615 383.221 992.552 394.284 992.577 394.185 989.89 406.247 989.904 406.175 987.529 419.05 987.538 418.998 985.413 432.498 985.424 432.421 982.174 460.046 982.178 460.004 980.866 473.629 980.869 473.587 979.869 486.9 979.87 486.889 978.995 499.451 978.997 499.419 978.372 511.169 978.373 511.157 977.873 521.724 977.622 526.541 977.624 526.494 977.499 530.931 977.374 534.937 977.249 539.064 973.251 538.943 973.376 534.813 973.501 530.819 973.626 526.357 973.878 521.521 973.877 521.53 974.378 510.962 975.004 499.19 975.88 486.606 976.882 473.267 978.199 459.6 981.456 431.915 983.591 418.351 985.977 405.413 988.684 393.265 991.773 382.108 995.235 371.594 999.073 361.088 1007.73 340.072 1017.52 319.059 1028.3 297.998 1039.88 277.016 1052.03 255.987 1064.6 234.969 1077.29 213.966ZM981.298 537.154 975 549 969.302 536.854Z" fill="#BFBFBF"/></g></svg>