<svg xmlns="http://www.w3.org/2000/svg" width="309.952" height="79.975" viewBox="0 0 309.952 79.975">
  <g id="logo_forest_primary" transform="translate(11880.91 -13929)">
    <g id="Group_7020" data-name="Group 7020" transform="translate(-11771.572 13940.488)">
      <path id="Path_21960" data-name="Path 21960" d="M1944.94-2031.843v16.9c0,9.124,4.841,13.962,15.628,13.962h5.394v-9.442h-4.548c-3.727,0-5.394-1.427-5.394-5.071v-16.342h10v-9.837h-10v-10.472h-11.028v10.472" transform="translate(-1765.402 2055.774)" fill="#0a1f44"/>
      <path id="Path_21961" data-name="Path 21961" d="M1922.507-2018.228c.243,7.776,7.062,13.566,18.168,13.566,10.233,0,18.323-4.046,18.323-13.725,0-15.471-24.593-9.043-24.593-16.342,0-2.536,2.644-3.57,5.8-3.57,4.919,0,6.107,2.22,6.267,5.156h11.026c-.634-8.17-7.14-13.486-17.452-13.486s-16.766,5.8-16.766,13.116c0,17.19,24.038,9.838,24.038,16.978,0,1.905-1.9,3.8-6.029,3.8-5.87-.08-7.536-3.1-7.536-5.553Z" transform="translate(-1783.599 2060.249)" fill="#0a1f44"/>
      <path id="Path_21962" data-name="Path 21962" d="M1895.259-2005.406v-18.512c0-7.064,3.649-11.592,11.742-11.592V-2046.7a14.219,14.219,0,0,0-11.823,6.109v-5.555h-11.028v40.7Z" transform="translate(-1814.714 2060.194)" fill="#0a1f44"/>
      <path id="Path_21963" data-name="Path 21963" d="M1879.553-2046.749a21.243,21.243,0,0,0-21.81,20.66c-.006.2-.009.4-.007.6a21.091,21.091,0,0,0,21.017,21.167q.4,0,.8-.011c12.56,0,21.9-9.362,21.9-21.156a21.279,21.279,0,0,0-21.285-21.271C1879.958-2046.758,1879.755-2046.756,1879.553-2046.749Zm10.947,21.261a11.106,11.106,0,0,1-10.854,11.345h-.329a10.727,10.727,0,0,1-10.73-10.728c0-.206.006-.413.018-.618a10.877,10.877,0,0,1,10.447-11.265h.5a10.854,10.854,0,0,1,10.961,10.747h0c0,.172,0,.344-.017.515Z" transform="translate(-1836.14 2060.144)" fill="#0a1f44"/>
      <path id="Path_21964" data-name="Path 21964" d="M1866.034-2045.1v-9.045h-4.284c-10.579,0-15.938,5-15.938,13.725v.475h0v9.837h0v30.862h11.025v-30.862h9.257v-9.837h-9.264v-.4c0-3.41,1.819-4.76,5.4-4.76Z" transform="translate(-1845.812 2054.149)" fill="#0a1f44"/>
      <path id="Path_21965" data-name="Path 21965" d="M1939.444-2026.04c0-11.82-7.773-20.707-20.633-20.707a20.778,20.778,0,0,0-21.492,20.041c-.014.407-.016.813-.007,1.221,0,12.059,8.41,21.156,21.421,21.156,9.031,0,15.3-3.73,19.265-9.664l-8.237-5.071a12.637,12.637,0,0,1-10.789,5.4,10.471,10.471,0,0,1-10.789-8.489h31.107C1939.29-2022.391,1939.444-2024.453,1939.444-2026.04Zm-30.888-4.178a10,10,0,0,1,10.155-7.377h.054a9.4,9.4,0,0,1,9.6,7.377Z" transform="translate(-1804.04 2060.142)" fill="#0a1f44"/>
    </g>
    <g id="Group_31" data-name="Group 31" transform="translate(-11880.91 13929)">
      <g id="Group_1" data-name="Group 1" transform="translate(19.061 0)">
        <path id="Path_1" data-name="Path 1" d="M1815.338-2034.892l-8.113-8.113,7.86-7.858a17.773,17.773,0,0,1,25.11,0l7.861,7.858-8.114,8.113-7.861-7.861a6.289,6.289,0,0,0-8.882,0Z" transform="translate(-1807.225 2056.056)" fill="#7540ee"/>
      </g>
      <g id="Group_2" data-name="Group 2" transform="translate(58.811 20.084)">
        <path id="Path_2" data-name="Path 2" d="M1832.956-2006.326l-8.113-8.114,7.859-7.858a6.289,6.289,0,0,0,0-8.885l-7.859-7.859,8.113-8.114,7.858,7.859a17.777,17.777,0,0,1,0,25.112Z" transform="translate(-1824.843 2047.155)" fill="#ffab00"/>
      </g>
      <g id="Group_3" data-name="Group 3" transform="translate(20.083 58.81)">
        <path id="Path_3" data-name="Path 3" d="M1815.539-2014.017l-7.861-7.861,8.114-8.113,7.86,7.86a6.286,6.286,0,0,0,8.883,0l7.861-7.86,8.114,8.113-7.861,7.861A17.776,17.776,0,0,1,1815.539-2014.017Z" transform="translate(-1807.678 2029.991)" fill="#5b7fff"/>
      </g>
      <g id="Group_4" data-name="Group 4" transform="translate(0 19.062)">
        <path id="Path_4" data-name="Path 4" d="M1811.827-2006.779l-7.858-7.859a17.777,17.777,0,0,1,0-25.111l7.858-7.859,8.113,8.114-7.858,7.858a6.289,6.289,0,0,0,0,8.885l7.858,7.858Z" transform="translate(-1798.776 2047.608)" fill="#36b37e"/>
      </g>
    </g>
  </g>
</svg>
