<svg id="cafe" xmlns="http://www.w3.org/2000/svg" width="512" height="511.999" viewBox="0 0 512 511.999">
  <g id="Group_4" data-name="Group 4">
    <g id="Group_3" data-name="Group 3">
      <path id="Path_5" data-name="Path 5" d="M191,120a20,20,0,0,0,20-20c0-4.5,7.754-11.41,15.253-18.09C240.918,68.849,261,50.959,261,20a20,20,0,0,0-40,0c0,12.393-8.114,20.249-21.352,32.042C186.884,63.411,171,77.56,171,100A20,20,0,0,0,191,120Z" fill="#7540ee"/>
      <path id="Path_6" data-name="Path 6" d="M281,120a20,20,0,0,0,20-20c0-4.5,7.754-11.41,15.253-18.09C330.918,68.849,351,50.959,351,20a20,20,0,0,0-40,0c0,12.393-8.114,20.249-21.352,32.042C276.884,63.411,261,77.56,261,100A20,20,0,0,0,281,120Z" fill="#7540ee"/>
      <path id="Path_7" data-name="Path 7" d="M101,120a20,20,0,0,0,20-20c0-4.5,7.754-11.41,15.253-18.09C150.917,68.849,171,50.959,171,20a20,20,0,0,0-40,0c0,12.393-8.114,20.249-21.352,32.042C96.884,63.411,81,77.56,81,100A20,20,0,0,0,101,120Z" fill="#7540ee"/>
      <path id="Path_8" data-name="Path 8" d="M506.236,225.952A20,20,0,0,0,492,220H425.274l7.992-35.622A20,20,0,0,0,413.751,160H20A20,20,0,0,0,.5,184.438L43.5,373.4A178.792,178.792,0,0,0,104.725,472H20a20,20,0,0,0,0,40H414a20,20,0,0,0,0-40H329.673q6.791-5.549,13.1-11.814a20,20,0,1,0-28.2-28.371A138.119,138.119,0,0,1,82.5,364.53L45.063,200h343.7L351.945,364.121c-.01.042-.013.084-.022.126-.085.394-.144.8-.206,1.2-.044.284-.1.569-.13.853s-.039.557-.058.836c-.029.415-.06.829-.063,1.241,0,.041-.006.081-.006.123,0,.173.022.341.026.513.012.461.027.921.07,1.377.023.245.063.485.1.727.053.4.105.8.183,1.2.058.3.135.594.206.889.08.326.155.654.251.975.1.339.219.669.337,1,.1.27.188.541.3.806.14.347.3.684.458,1.022.114.243.225.487.349.725.171.326.357.642.545.958.143.24.282.482.435.716.187.287.388.563.59.84.181.249.36.5.553.74s.4.471.6.7c.226.258.451.514.69.76.2.2.4.389.6.581.267.253.535.5.816.742.2.173.42.335.632.5.294.229.588.457.9.67.235.163.479.311.721.464.3.188.6.376.9.549.291.163.593.308.894.457.274.135.543.274.824.4.37.162.751.3,1.132.442.23.084.455.176.69.252.435.142.88.257,1.327.369.168.042.327.1.5.138.041.009.081.012.122.021.4.086.8.146,1.208.208.283.044.566.1.849.13s.549.038.824.057c.42.029.84.06,1.257.063.04,0,.078.006.118.006,30.978,0,65.6-14.652,92.622-39.2,30.822-28,47.812-64.987,47.852-104.167l.064-4.87A20,20,0,0,0,506.236,225.952ZM397.541,343.61,416.3,260h54.438C463.979,301.927,429.706,332.276,397.541,343.61Z" fill="#7540ee"/>
    </g>
  </g>
</svg>
