<svg xmlns="http://www.w3.org/2000/svg" width="324.267" height="323.534" viewBox="0 0 324.267 323.534">
  <g id="call-answer" transform="translate(0 -0.394)">
    <g id="Group_8" data-name="Group 8" transform="translate(0 0.394)">
      <g id="Group_7" data-name="Group 7">
        <path id="Path_3" data-name="Path 3" d="M317,256.293,266.919,206.21c-9.975-9.935-26.493-9.633-36.815.693l-25.229,25.224c-1.594-.878-3.244-1.8-4.978-2.77-15.932-8.828-37.738-20.927-60.684-43.89-23.014-23.011-35.125-44.851-43.98-60.793-.934-1.689-1.83-3.317-2.714-4.864L109.451,102.9l8.325-8.335c10.338-10.341,10.623-26.854.672-36.818L68.37,7.66c-9.951-9.949-26.477-9.648-36.815.693L17.441,22.548l.386.383A81.614,81.614,0,0,0,6.2,43.445,85.05,85.05,0,0,0,1.023,64.252c-6.612,54.819,18.438,104.919,86.422,172.9,93.975,93.968,169.706,86.869,172.973,86.523a84.615,84.615,0,0,0,20.865-5.242,81.338,81.338,0,0,0,20.44-11.58l.308.274,14.3-14C326.646,282.791,326.944,266.272,317,256.293Z" transform="translate(0 -0.394)" fill="#8a94a6"/>
      </g>
    </g>
  </g>
</svg>
