<svg width="131" height="98" xmlns="http://www.w3.org/2000/svg" xmlns:xlink="http://www.w3.org/1999/xlink" overflow="hidden"><defs><clipPath id="clip0"><rect x="456" y="200" width="131" height="98"/></clipPath><clipPath id="clip1"><rect x="457" y="201" width="130" height="96"/></clipPath><clipPath id="clip2"><rect x="457" y="201" width="130" height="96"/></clipPath><clipPath id="clip3"><rect x="457" y="183" width="130" height="163"/></clipPath></defs><g clip-path="url(#clip0)" transform="translate(-456 -200)"><g clip-path="url(#clip1)"><g clip-path="url(#clip2)"><g clip-path="url(#clip3)"><path d="M54.6733 105.553C54.6733 102.226 54.6733 98.8985 54.6733 95.5712 54.6733 95.0923 54.6733 94.6007 54.6733 94.1218 54.6733 92.7606 53.5138 91.6011 52.1526 91.6011 47.4138 91.6011 42.6875 91.6011 37.9487 91.6011 30.4623 91.6011 22.9759 91.6011 15.4895 91.6011 13.7755 91.6011 12.074 91.6011 10.36 91.6011 11.2044 92.4455 12.0362 93.2774 12.8806 94.1218 12.8806 88.9796 12.8806 83.8375 12.8806 78.6953 12.8806 77.9769 12.8806 77.2585 12.8806 76.5275 12.0362 77.3719 11.2044 78.2038 10.36 79.0482 15.0988 79.0482 19.8251 79.0482 24.5639 79.0482 32.0503 79.0482 39.5367 79.0482 47.0231 79.0482 48.7371 79.0482 50.4386 79.0482 52.1526 79.0482 53.5138 79.0482 54.6733 77.8887 54.6733 76.5275 54.6733 73.2002 54.6733 69.873 54.6733 66.5457 54.6733 66.0667 54.6733 65.5752 54.6733 65.0963 53.2365 65.6886 51.7998 66.281 50.3756 66.8734 53.1735 69.1546 55.9715 71.4484 58.7694 73.7296 63.1932 77.3467 67.6296 80.9639 72.0533 84.5811 73.0742 85.4255 74.1077 86.2573 75.1285 87.1017 75.1285 85.917 75.1285 84.7197 75.1285 83.535 72.3306 85.8162 69.5327 88.11 66.7347 90.3912 62.3109 94.0084 57.8746 97.6255 53.4508 101.243 52.4299 102.087 51.3964 102.919 50.3756 103.763 49.3547 104.595 49.4429 106.473 50.3756 107.33 51.4595 108.326 52.8458 108.225 53.9423 107.33 56.7403 105.049 59.5382 102.755 62.3362 100.474 66.7599 96.8567 71.1963 93.2396 75.6201 89.6224 76.641 88.778 77.6744 87.9462 78.6953 87.1017 79.6784 86.2951 79.6784 84.3416 78.6953 83.535 75.8974 81.2538 73.0994 78.96 70.3015 76.6788 65.8777 73.0616 61.4413 69.4444 57.0175 65.8273 55.9967 64.9829 54.9632 64.151 53.9423 63.3066 53.1357 62.6512 52.2031 62.3614 51.1948 62.7899 50.2747 63.1806 49.6446 64.088 49.6446 65.0963 49.6446 68.4236 49.6446 71.7509 49.6446 75.0781 49.6446 75.5571 49.6446 76.0486 49.6446 76.5275 50.489 75.6831 51.3208 74.8513 52.1653 74.0069 47.4264 74.0069 42.7001 74.0069 37.9613 74.0069 30.4749 74.0069 22.9885 74.0069 15.5021 74.0069 13.7881 74.0069 12.0866 74.0069 10.3726 74.0069 9.01139 74.0069 7.85189 75.1664 7.85189 76.5275 7.85189 81.6697 7.85189 86.8119 7.85189 91.954 7.85189 92.6724 7.85189 93.3908 7.85189 94.1218 7.85189 95.483 9.01139 96.6425 10.3726 96.6425 15.1114 96.6425 19.8377 96.6425 24.5765 96.6425 32.0629 96.6425 39.5493 96.6425 47.0357 96.6425 48.7497 96.6425 50.4512 96.6425 52.1653 96.6425 51.3208 95.798 50.489 94.9662 49.6446 94.1218 49.6446 97.4491 49.6446 100.776 49.6446 104.104 49.6446 104.583 49.6446 105.074 49.6446 105.553 49.6446 106.876 50.8041 108.137 52.1653 108.074 53.5138 108.011 54.6733 106.965 54.6733 105.553Z" fill="#40698C" transform="matrix(1.0073 0 0 1 457 183.887)"/><path d="M79.4263 63.962C79.4263 60.6347 79.4263 57.3074 79.4263 53.9801 79.4263 53.5012 79.4263 53.0097 79.4263 52.5308 78.5819 53.3752 77.7501 54.207 76.9056 55.0514 81.6445 55.0514 86.3707 55.0514 91.1096 55.0514 98.596 55.0514 106.082 55.0514 113.569 55.0514 115.283 55.0514 116.984 55.0514 118.698 55.0514 120.059 55.0514 121.219 53.8919 121.219 52.5308 121.219 47.3886 121.219 42.2464 121.219 37.1043 121.219 36.3859 121.219 35.6675 121.219 34.9365 121.219 33.5753 120.059 32.4158 118.698 32.4158 113.959 32.4158 109.233 32.4158 104.494 32.4158 97.008 32.4158 89.5216 32.4158 82.0352 32.4158 80.3211 32.4158 78.6197 32.4158 76.9056 32.4158 77.7501 33.2602 78.5819 34.0921 79.4263 34.9365 79.4263 31.6092 79.4263 28.2819 79.4263 24.9546 79.4263 24.4757 79.4263 23.9842 79.4263 23.5052 79.4263 22.497 78.7961 21.5895 77.8761 21.1988 76.8804 20.7829 75.9352 21.0602 75.1285 21.7156 72.3306 23.9968 69.5327 26.2906 66.7347 28.5718 62.3109 32.1889 57.8746 35.8061 53.4508 39.4233 52.4299 40.2677 51.3964 41.0995 50.3756 41.9439 49.3925 42.7506 49.3925 44.7041 50.3756 45.5107 53.1735 47.7919 55.9715 50.0857 58.7694 52.3669 63.1932 55.9841 67.6296 59.6012 72.0533 63.2184 73.0742 64.0628 74.1077 64.8946 75.1285 65.7391 76.1494 66.5709 77.7122 66.8103 78.6953 65.7391 79.5397 64.819 79.7918 63.0671 78.6953 62.1723 75.8974 59.8911 73.0994 57.5973 70.3015 55.3161 65.8777 51.6989 61.4413 48.0818 57.0175 44.4646 55.9967 43.6202 54.9632 42.7884 53.9423 41.9439 53.9423 43.1287 53.9423 44.326 53.9423 45.5107 56.7403 43.2295 59.5382 40.9357 62.3362 38.6545 66.7599 35.0373 71.1963 31.4201 75.6201 27.803 76.641 26.9586 77.6744 26.1267 78.6953 25.2823 77.2585 24.69 75.8217 24.0976 74.3976 23.5052 74.3976 26.8325 74.3976 30.1598 74.3976 33.4871 74.3976 33.966 74.3976 34.4576 74.3976 34.9365 74.3976 36.2976 75.5571 37.4571 76.9182 37.4571 81.6571 37.4571 86.3833 37.4571 91.1222 37.4571 98.6086 37.4571 106.095 37.4571 113.581 37.4571 115.295 37.4571 116.997 37.4571 118.711 37.4571 117.867 36.6127 117.035 35.7809 116.19 34.9365 116.19 40.0786 116.19 45.2208 116.19 50.363 116.19 51.0814 116.19 51.7998 116.19 52.5308 117.035 51.6863 117.867 50.8545 118.711 50.0101 113.972 50.0101 109.246 50.0101 104.507 50.0101 97.0206 50.0101 89.5342 50.0101 82.0478 50.0101 80.3337 50.0101 78.6323 50.0101 76.9182 50.0101 75.5571 50.0101 74.3976 51.1696 74.3976 52.5308 74.3976 55.858 74.3976 59.1853 74.3976 62.5126 74.3976 62.9915 74.3976 63.4831 74.3976 63.962 74.3976 65.2853 75.5571 66.5457 76.9182 66.4827 78.2794 66.4196 79.4263 65.3736 79.4263 63.962Z" fill="#40698C" transform="matrix(1.0073 0 0 1 457 183.887)"/><text fill="#40698C" font-family="Arial,Arial_MSFontService,sans-serif" font-weight="700" font-size="5" transform="matrix(0.126953 0 0 0.126033 457 315)">Created by shashank singh<tspan font-size="5" x="0" y="0">from the Noun Project</tspan></text></g></g></g></g></svg>