<svg xmlns="http://www.w3.org/2000/svg" width="462.51" height="114.681" viewBox="0 0 462.51 114.681">
  <path id="forest_mailchimp" d="M149.272,70.332v0ZM463.991,98.866l.159,0c9.476,0,16.145-6.565,16.217-15.961a18.865,18.865,0,0,0-3.784-11.989,13.288,13.288,0,0,0-10.6-5.028H465.9c-5.827,0-11.238,4.421-16.542,13.517l-.422.726-.271-.791c-1.339-3.9-2.532-7.146-3.245-9.09-.5-1.356-.72-1.964-.773-2.162a2.141,2.141,0,0,0-2.2-1.6,3.924,3.924,0,0,0-2.079.664,2.43,2.43,0,0,0-1.188,1.657l-.034.106c-5.309,16.556-9.685,24.594-13.394,24.594a1.64,1.64,0,0,1-1.275-.531c-.971-1.073-.733-3.626-.4-7.161a65.688,65.688,0,0,0,.4-8.655c-.218-6-3.5-9.6-8.774-9.637-6.7,0-11.048,7.138-13.05,11.394l-.6,1.268-.132-1.4c-.5-5.266-2.267-11.556-7.848-11.6-6.509,0-11.468,7.638-14.493,14.048l-.811,1.718.08-1.9c.359-8.549.654-13.6.877-15s.1-2.348-.355-2.888a2.916,2.916,0,0,0-2.461-.617c-2.084.132-3.149,1.4-4.754,5.651-2.635,6.982-9.338,23.225-14.691,23.225a3.2,3.2,0,0,1-2.518-1.077c-2.244-2.572-1.346-9.529-.1-19.154l.094-.728c.588-4.557-.414-5.53-2.89-5.985a4.262,4.262,0,0,0-.752-.073c-1.977,0-2.9,1.893-4.748,7.155-3.286,9.363-7.512,19.209-12.452,19.209a3.454,3.454,0,0,1-.541-.042c-2.618-.446-2.561-4.329-2.489-9.25a53.233,53.233,0,0,0-.328-8.4c-.739-4.888-3.617-7.939-7.517-7.97-7.78,0-13.027,9.963-15.467,15.9l-.553,1.344-.185-1.443q-.719-5.72-.944-11.485l-.007-.143.088-.112c14.561-18.329,21.1-31.557,21.183-42.89.056-7.24-3.284-11.589-8.935-11.633-4.132,0-13.956,3.442-17.37,35.318Q300.076,58.961,300,68l0,.119-.068.1c-6.662,9.642-20.88,26.229-34.8,26.229-12.577,0-22.612-10.176-22.612-28.137,0-24.078,17.043-38.862,29.869-38.862h.107a10.722,10.722,0,0,1,6.911,2.251A7.616,7.616,0,0,1,282.13,35.8a11.142,11.142,0,0,1-2.156,6.684c-.267.425-.537.847-.782,1.295a1.707,1.707,0,0,0-.145,1.667,2.592,2.592,0,0,0,2.248.944c3.053,0,7.67-4.42,7.72-11.078.053-6.969-5.818-14.15-16.292-14.15-15.85,0-37.2,17.413-37.2,45.634,0,19.963,12.516,33.76,29.471,33.76,12.031,0,23.933-8.615,34.473-23l.646-.872.046,1.083c.224,5.267.606,9.416.884,12.447.18,1.948.311,3.356.306,4.132a5.666,5.666,0,0,0,.851,3.609,3.522,3.522,0,0,0,2.93,1.078c2.367,0,2.842-1.614,3.779-5.6l.269-1.136c1.165-4.825,5.468-20.573,11.939-20.573a3.253,3.253,0,0,1,2.452.936c1.429,1.516,1.273,4.627,1.092,8.232a45.918,45.918,0,0,0,0,6.834c.609,6.108,3.247,9.1,8.062,9.13,4.945,0,10.106-5.325,12.829-10.274l.514-.932.2,1.048c.5,2.649,2.75,11.344,9.788,11.344,6.379,0,11.851-6.717,17.849-20.542l.786-1.805-.048,1.969c-.127,5.239-.411,11.636-.413,16.582,0,3.826.384,5.286,2.153,5.286l.4.018c1.7,0,2.848-1.013,3.422-3.015,4.514-15.731,8.414-23.057,12.279-23.057,3.784.029,4.139,6.949,4.443,19.176l.021.858c.092,4.276.247,6.169,2.9,6.188,2.016,0,2.517-1.584,3.56-5.483.2-.743.415-1.559.671-2.439,3.645-12.644,6.665-17.8,10.427-17.8,3.22.024,3.4,3.344,3.459,4.435a48.247,48.247,0,0,1-.349,7.143,48.969,48.969,0,0,0-.355,6.575c.2,4.945,2.9,7.689,7.624,7.725,6.126,0,11.656-7.165,16.5-21.292l.336-.984.384.969c.88,2.22,2.024,5.226,3.083,8.812l.04.136-.059.13c-4.69,10.413-8,22.012-8.046,28.209-.063,8.162,3.63,13.466,9.408,13.511h.1c3.143,0,10.47-1.263,10.613-12.942.059-4.787-1.073-11.555-3.359-20.121l-.263-.981.843.562a17.538,17.538,0,0,0,9.528,3Zm-157.9-39.61c.131-2.927.377-5.776.727-8.471,2.268-17.365,7-29.491,11.513-29.491h.021c2.151.016,3.227,1.643,3.205,4.834-.062,7.841-5.03,19.066-14.764,33.363l-.762,1.119.06-1.353Zm143.894,62.429a3.526,3.526,0,0,1-2.97,1.442,3.85,3.85,0,0,1-3.254-1.5c-2.06-2.751-1.479-9.219,1.881-20.959.4-1.4.837-2.813,1.3-4.193l.39-1.171.343,1.185C451.586,110.045,452.364,118.52,449.984,121.685Zm1.218-34.72-.071-.13-.142-.451.067-.134c4.463-9.2,9.578-14.469,14.028-14.469h.046c5.025.038,8.5,4.561,8.452,10.993a10.138,10.138,0,0,1-3.507,8.084,10.44,10.44,0,0,1-6.592,2.365,16.145,16.145,0,0,1-12.28-6.258Zm13.881-14.8v0ZM166.524,97.345c6.89-.55,12.356-9.921,14.386-13.926l.523-1.032.2,1.14c.975,5.631,4.038,15.092,13.62,15.168h.08c4.145,0,8.846-2.536,13.6-7.33l.349-.352.253.423c3.2,5.351,7.491,8.194,12.06,7.96,6.726-.35,10.809-5.116,11.168-8.427a2.786,2.786,0,0,0-.614-2.174,1.414,1.414,0,0,0-2.127-.134l-.308.291c-1.565,1.5-4.483,4.305-7.662,4.47-3.892.19-6.771-2.137-8.631-6.939l-.077-.2.131-.17c10.7-14,18.214-35.36,17.472-49.687-.342-6.631-2.27-14.536-9.512-14.536l-.54.014a10.7,10.7,0,0,0-7.5,3.928c-6.719,7.517-10.235,26.02-8.959,47.138A47.409,47.409,0,0,0,206.7,85.154l.07.208-.141.167c-3.971,4.641-7.89,7.2-11.035,7.2-7.566,0-7.311-12.686-6.713-23.2.13-2.268.321-3.713-.35-4.534a3.009,3.009,0,0,0-2.452-.888h-.136c-2.693,0-3.256.554-4.633,4.549-2.866,8.3-8.523,22.231-14.214,22.231a4.371,4.371,0,0,1-3.606-1.6c-2.76-3.523-.664-12.31,1.02-19.373.3-1.27.593-2.489.842-3.617.368-1.674.256-2.9-.336-3.635s-1.779-1.036-3.342-.912c-2.437.195-4,1.216-4.749,5.85l-.151.963-.567-.686a7.956,7.956,0,0,0-6.991-3.443q-.506,0-1.048.042c-4.11.337-8.79,3.2-12.216,7.475a25.027,25.027,0,0,0-5.377,17.786c.028.343.077.672.126,1l.028.18-.124.136c-2.392,2.606-4.83,3.929-7.246,3.929-3.728-.028-5.867-2.8-5.867-7.414,0-7.768,5.265-31.19,5.265-39.668,0-9.023-4.021-13.935-11-13.989h-.106c-10.2,0-18.14,11.568-25.744,35.369Q84.82,72.7,83.8,76.142l-1.068,3.579L83.047,76q1.032-11.967,1.441-23.976c.379-11.5-1.175-18.905-4.755-22.63a10.345,10.345,0,0,0-7.809-3.024h-.085c-12.475,0-18.451,21.039-22.8,35.885-1.313,4.482-3.9,14.591-5.63,21.5l1.024-1.664c.767-8.7,2.991-30.5,2.845-42.325-.158-12.686-4.381-18.373-13.7-18.444h-.115a14.424,14.424,0,0,0-10.45,4.548,18.136,18.136,0,0,0-5.151,12.4c.069,2.555,1.636,4.829,2.825,4.829.774,0,1.2-1.033,1.389-1.649,2.883-9.529,6.614-14.162,11.4-14.162a5.921,5.921,0,0,1,4.569,1.789c3.741,4.013,3.06,14.848,1.827,34.519-.4,6.34-.849,13.522-1.228,21.693q-.1,2.022-.236,4.043c-.364,5.673-.653,10.157,1.5,10.491,2.8.437,4.623-.7,5.556-3.471C46.847,92.241,49.949,81,55.952,60.463c5.759-19.709,10.11-26.88,15.677-26.88,6.431,0,6.911,11.043,5.732,34.346-.251,4.94-.587,10.536-.845,16.624-.036.856-.076,1.686-.117,2.484-.248,5.043-.443,9.019,1,10.544a2.448,2.448,0,0,0,1.868.714c2.788,0,3.626-2.444,5.015-6.5.245-.714.506-1.478.8-2.276,9.553-26.353,16.616-49.217,26.1-49.217,2.843,0,5.056,2.31,5.056,6.814,0,10.4-5.085,30.489-5.085,40.677a14.043,14.043,0,0,0,3.034,9.228,10.642,10.642,0,0,0,8.241,3.653h.073c3.172,0,6.476-1.541,9.825-4.58l.314-.284.252.341a10.784,10.784,0,0,0,9.6,4.26c5.892-.459,10.836-5.705,12.676-10.653l.36-.968.359.968c1.367,3.671,4.323,8.1,10.641,7.583Zm54.295-68.857.1,0a2.154,2.154,0,0,1,1.756,1c2.339,3.163,2.375,14.708-1.649,27.843a93.731,93.731,0,0,1-8.941,20.506l-.567.94-.145-1.088c-.417-3.177-.624-6.484-.768-9.3-1.026-19.855,4.979-39.634,10.212-39.906Zm-65.377,46.4c-2.062,8.3-6.016,18.313-13.146,18.887l-.58.024c-2.958,0-4.616-1.936-4.929-5.757a19.821,19.821,0,0,1,5.249-14.264c2.279-2.475,4.85-3.837,7.239-3.837h.048c3.015.023,5.129,2.444,6.1,4.7l.052.117-.032.128Zm33.068-30.419a4.659,4.659,0,1,0-.071,9.316l.038.382v-.382a4.658,4.658,0,1,0,.033-9.316Zm165.477,0a4.659,4.659,0,1,0-.071,9.316l.037.382v-.382a4.658,4.658,0,1,0,.034-9.316Z" transform="translate(-17.858 -14.666)" fill="#010101"/>
</svg>
