<svg xmlns="http://www.w3.org/2000/svg" width="303.048" height="301.27" viewBox="0 0 303.048 301.27">
  <g id="forest_slack_mark" transform="translate(2713.288 2390.666)">
    <path id="Path_27" data-name="Path 27" d="M27.258,169.253A25.056,25.056,0,0,1,2.841,152.084q-.2-.6-.366-1.2a26.255,26.255,0,0,1,16.99-32.07L234,46.939a29.078,29.078,0,0,1,7.835-1.144A25.709,25.709,0,0,1,266.906,63.33l.321,1.037c4.013,14.028-5.958,26.55-17.906,30.563-.008.006-2.182.741-213.349,72.839a27.763,27.763,0,0,1-8.714,1.484Z" transform="translate(-2714.752 -2400.443)" fill="#70cadb"/>
    <path id="Path_28" data-name="Path 28" d="M44.689,221.035c-11.4.082-21.007-6.561-24.5-16.928q-.2-.592-.37-1.192a26.437,26.437,0,0,1,16.973-32.385L251.341,98a27.629,27.629,0,0,1,8.514-1.426,25.925,25.925,0,0,1,25.008,17.379l.329,1.091a27.147,27.147,0,0,1-3.272,21.818c-3.071,4.779-12.756,8.986-12.756,8.986L53.8,219.482a29.548,29.548,0,0,1-9.113,1.558Z" transform="translate(-2696.424 -2346.715)" fill="#e01765"/>
    <path id="Path_29" data-name="Path 29" d="M168.638,293.739a26.34,26.34,0,0,1-25.222-17.953L71.814,63.1l-.358-1.194a26.374,26.374,0,0,1,50.362-15.634l71.6,212.668.208.683c4.022,14.082-3.423,28.237-16.794,32.745a26.622,26.622,0,0,1-8.189,1.371Z" transform="translate(-2641.776 -2418.96)" fill="#e8a723"/>
    <path id="Path_30" data-name="Path 30" d="M116.923,311.134a26.35,26.35,0,0,1-25.233-17.967L20.107,80.489a26.338,26.338,0,0,1,16.57-33.4,26.673,26.673,0,0,1,8.2-1.375A26.336,26.336,0,0,1,70.105,63.664L141.691,276.35a26.367,26.367,0,0,1-24.776,34.782h.008Z" transform="translate(-2696.494 -2400.531)" fill="#3eb890"/>
    <path id="Path_31" data-name="Path 31" d="M109.418,167.691l49.926-17.07-16.321-48.469L93.039,119.043Z" transform="translate(-2617.855 -2340.808)" fill="#cc2027"/>
    <path id="Path_32" data-name="Path 32" d="M57.844,185.534l49.922-17.068L91.321,119.627l-49.971,16.9Z" transform="translate(-2672.548 -2322.317)" fill="#361238"/>
    <path id="Path_33" data-name="Path 33" d="M92.067,116.092,142,99.045l-16.129-47.9L75.845,67.9Z" transform="translate(-2636.048 -2394.783)" fill="#65863a"/>
    <path id="Path_34" data-name="Path 34" d="M40.53,134.037l49.93-17.047L74.133,68.475,24.11,85.232Z" transform="translate(-2690.79 -2376.443)" fill="#1a937d"/>
  </g>
</svg>
