<svg xmlns="http://www.w3.org/2000/svg" width="600" height="101.194" viewBox="0 0 600 101.194">
  <g id="forest_digitalocean" transform="translate(-1.5 -0.906)">
    <g id="XMLID_2638_">
      <g id="XMLID_2639_">
        <g id="Group_3" data-name="Group 3">
          <g id="XMLID_44_">
            <g id="XMLID_48_">
              <path id="XMLID_49_" d="M52.1,102.1V82.5c20.8,0,36.8-20.6,28.9-42.4A29.4,29.4,0,0,0,63.5,22.6c-21.8-7.9-42.4,8.1-42.4,28.9H1.5c0-33.1,32-58.9,66.7-48.1a48.676,48.676,0,0,1,31.9,31.9C110.9,70.1,85.2,102.1,52.1,102.1Z" fill="#0080ff"/>
            </g>
            <path id="XMLID_47_" d="M52.1,82.5H32.6V63H52.1Z" fill="#0080ff" fill-rule="evenodd"/>
            <path id="XMLID_46_" d="M32.6,97.5h-15v-15h15Z" fill="#0080ff" fill-rule="evenodd"/>
            <path id="XMLID_45_" d="M17.6,82.5H5V70H17.6Z" fill="#0080ff" fill-rule="evenodd"/>
          </g>
        </g>
      </g>
    </g>
    <g id="XMLID_2370_">
      <path id="XMLID_2635_" d="M181.5,30.2c-5.8-4-13-6.1-21.4-6.1H141.8V82.2h18.3c8.4,0,15.6-2.1,21.4-6.4a21.5,21.5,0,0,0,7.4-9.3,34.16,34.16,0,0,0,2.6-13.7,34.006,34.006,0,0,0-2.6-13.6A20.627,20.627,0,0,0,181.5,30.2Zm-29,3.8h5.8c6.4,0,11.7,1.3,15.7,3.7,4.4,2.7,6.7,7.8,6.7,15.1,0,7.6-2.3,12.9-6.7,15.8h0c-3.8,2.5-9.1,3.8-15.6,3.8h-5.8V34Z" fill="#0080ff"/>
      <path id="XMLID_2634_" d="M204.3,23.4a6.318,6.318,0,0,0-6.4,6.2,5.826,5.826,0,0,0,1.9,4.5,6.19,6.19,0,0,0,4.5,1.9,5.826,5.826,0,0,0,4.5-1.9,6.362,6.362,0,0,0,1.9-4.5,5.479,5.479,0,0,0-1.9-4.4A6.267,6.267,0,0,0,204.3,23.4Z" fill="#0080ff"/>
      <rect id="XMLID_2564_" width="10.3" height="41" transform="translate(199 41.3)" fill="#0080ff"/>
      <path id="XMLID_2561_" d="M246.8,44.7a15.387,15.387,0,0,0-10.3-4.4,18.919,18.919,0,0,0-14.1,5.8c-3.7,3.8-5.5,8.8-5.5,14.7a20.808,20.808,0,0,0,5.5,14.7,18.919,18.919,0,0,0,14.1,5.8A16,16,0,0,0,246.7,78v1c0,3.4-.9,6-2.7,7.9a10.052,10.052,0,0,1-7.4,2.7c-4.8,0-7.7-1.9-11.4-6.8l-7,6.7.2.3a25.089,25.089,0,0,0,6.9,6.2,20.713,20.713,0,0,0,11.5,3c6.1,0,11.1-1.9,14.7-5.6,3.7-3.7,5.5-8.7,5.5-14.9V41.3H246.9v3.4Zm-2.7,24.2a9,9,0,0,1-7.1,3,8.654,8.654,0,0,1-7-3,11.565,11.565,0,0,1-2.7-8,11.83,11.83,0,0,1,2.7-8.1,9.014,9.014,0,0,1,7-3.1,8.766,8.766,0,0,1,7.1,3.1,11.83,11.83,0,0,1,2.7,8.1A12.066,12.066,0,0,1,244.1,68.9Z" fill="#0080ff"/>
      <rect id="XMLID_2560_" width="10.3" height="41" transform="translate(265.7 41.3)" fill="#0080ff"/>
      <path id="XMLID_2552_" d="M271,23.4a6.318,6.318,0,0,0-6.4,6.2,5.826,5.826,0,0,0,1.9,4.5A6.19,6.19,0,0,0,271,36a5.826,5.826,0,0,0,4.5-1.9,6.362,6.362,0,0,0,1.9-4.5,5.479,5.479,0,0,0-1.9-4.4A6.267,6.267,0,0,0,271,23.4Z" fill="#0080ff"/>
      <path id="XMLID_2509_" d="M298.6,30.3H288.5V41.4h-5.9v9.4h5.9v17c0,5.3,1.1,9.1,3.2,11.3s5.8,3.3,11.1,3.3c1.7,0,3.4-.1,5-.2h.5V72.8l-3.5.2c-2.5,0-4.1-.4-4.9-1.3s-1.2-2.7-1.2-5.4V50.7h9.6V41.3h-9.6v-11Z" fill="#0080ff"/>
      <rect id="XMLID_2508_" width="10.3" height="58.1" transform="translate(356.5 24.1)" fill="#0080ff"/>
      <path id="XMLID_2470_" d="M470.9,67.6a24.446,24.446,0,0,1-5.2,4.8h0a9.712,9.712,0,0,1-5.3,1.4,9.484,9.484,0,0,1-7.5-3.4,12.781,12.781,0,0,1-3-8.7,12.776,12.776,0,0,1,2.9-8.6,9.286,9.286,0,0,1,7.4-3.4c3.3,0,6.8,2.1,9.8,5.6l6.8-6.5h0a20.224,20.224,0,0,0-16.9-8.5,20.017,20.017,0,0,0-14.6,6.1,20.881,20.881,0,0,0-6,15.3,21.042,21.042,0,0,0,6,15.3,19.635,19.635,0,0,0,14.6,6.1A20.215,20.215,0,0,0,477.4,74Z" fill="#0080ff"/>
      <path id="XMLID_2460_" d="M513.2,47a16.688,16.688,0,0,0-5.9-4.9,19.3,19.3,0,0,0-8.5-1.8,17.347,17.347,0,0,0-14,6.3A23.694,23.694,0,0,0,479.6,62q0,9.3,5.7,15.3c3.7,3.9,8.8,5.9,14.9,5.9a20.264,20.264,0,0,0,16.9-8.4l.2-.3L510.6,68h0a25.513,25.513,0,0,1-2.3,2.4,11.477,11.477,0,0,1-3,2.2,11.032,11.032,0,0,1-5.2,1.1,9.7,9.7,0,0,1-7-2.5,8.888,8.888,0,0,1-2.9-6.2h27.3l.1-3.8a26.846,26.846,0,0,0-1.1-7.6A22.693,22.693,0,0,0,513.2,47Zm-22.5,9.7a10.232,10.232,0,0,1,2.7-4.9,7.31,7.31,0,0,1,5.4-2.1,7.4,7.4,0,0,1,5.7,2.1,8.124,8.124,0,0,1,2.1,4.8H490.7Z" fill="#0080ff"/>
      <path id="XMLID_2456_" d="M552.8,44.4h0c-3.1-2.7-7.4-4-12.8-4a21.738,21.738,0,0,0-9.5,2.2,17.01,17.01,0,0,0-7,6.6l.1.1,6.6,6.3c2.7-4.3,5.7-5.8,9.7-5.8a8.211,8.211,0,0,1,5.3,1.7,5.271,5.271,0,0,1,2,4.4v2a25.608,25.608,0,0,0-7.6-1.2c-5.1,0-9.3,1.2-12.4,3.6a12.313,12.313,0,0,0-4.7,10.2,11.688,11.688,0,0,0,4,9.3,15.235,15.235,0,0,0,9.9,3.4,17.253,17.253,0,0,0,10.9-4.3v3.4h10.1V55.9C557.6,51,556,47.1,552.8,44.4ZM534.5,66.6a8.661,8.661,0,0,1,4.9-1.2,22.42,22.42,0,0,1,7.8,1.5v4C545,73,542,74,538.3,74a6.082,6.082,0,0,1-4.1-1.2,3.749,3.749,0,0,1-1.4-3A3.855,3.855,0,0,1,534.5,66.6Z" fill="#0080ff"/>
      <path id="XMLID_2454_" d="M597.2,45.2q-4.35-4.8-12-4.8a14.075,14.075,0,0,0-9.9,3.5V41.4H565.2v41h10.3V59.7c0-3.1.7-5.6,2.2-7.3a7.279,7.279,0,0,1,6.1-2.6,6.8,6.8,0,0,1,5.4,2.3,9.8,9.8,0,0,1,2,6.4V82.2h10.3V58.5C601.5,52.9,600.1,48.4,597.2,45.2Z" fill="#0080ff"/>
      <path id="XMLID_2450_" d="M343.6,44.4h0c-3.1-2.7-7.4-4-12.8-4a21.738,21.738,0,0,0-9.5,2.2,17.01,17.01,0,0,0-7,6.6l.1.1,6.6,6.3c2.7-4.3,5.7-5.8,9.7-5.8a8.212,8.212,0,0,1,5.3,1.7,5.271,5.271,0,0,1,2,4.4v2a25.608,25.608,0,0,0-7.6-1.2c-5.1,0-9.3,1.2-12.4,3.6a12.313,12.313,0,0,0-4.7,10.2,11.688,11.688,0,0,0,4,9.3,15.235,15.235,0,0,0,9.9,3.4,17.253,17.253,0,0,0,10.9-4.3v3.4h10.1V55.9C348.3,51,346.7,47.1,343.6,44.4ZM325.3,66.6a8.66,8.66,0,0,1,4.9-1.2,22.42,22.42,0,0,1,7.8,1.5v4c-2.2,2.1-5.2,3.1-8.9,3.1a6.082,6.082,0,0,1-4.1-1.2,3.749,3.749,0,0,1-1.4-3A3.622,3.622,0,0,1,325.3,66.6Z" fill="#0080ff"/>
      <path id="XMLID_2371_" d="M404.2,83.1a30,30,0,1,1,30-30A30.024,30.024,0,0,1,404.2,83.1Zm0-49.3a19.4,19.4,0,1,0,19.4,19.4A19.418,19.418,0,0,0,404.2,33.8Z" fill="#0080ff"/>
    </g>
  </g>
</svg>
