<svg xmlns="http://www.w3.org/2000/svg" width="100" height="100" viewBox="0 0 100 100">
  <path id="forest_linkedin" d="M85.352,0h-70.7A14.666,14.666,0,0,0,0,14.648v70.7A14.666,14.666,0,0,0,14.648,100h70.7A14.666,14.666,0,0,0,100,85.352v-70.7A14.666,14.666,0,0,0,85.352,0Zm-50,79.3H23.633V38.281H35.352Zm0-46.875H23.633V20.7H35.352ZM76.367,79.3H64.648V55.859a5.859,5.859,0,0,0-11.719,0V79.3H41.211V38.281H52.93V40.49c3.07-.954,5.064-2.209,8.789-2.209,7.948.008,14.648,7.138,14.648,15.564Zm0,0" transform="translate(0 0)" fill="#8a94a6"/>
</svg>
