<svg xmlns="http://www.w3.org/2000/svg" width="475.905" height="61.355" viewBox="0 0 475.905 61.355">
  <g id="forest_nbc" transform="translate(-8.503 -85.049)">
    <path id="Path_16" data-name="Path 16" d="M299.071,87.375,326.1,146.4l11.858-24.181L349.808,146.4l26.551-59.029H362.844l-14.227,32.24-5.213-10.9,9.957-21.1L340.8,87.372,337.95,95.2l-3.791-7.823h-12.1l9.721,20.862L326.8,119.38l-15.17-32H299.071ZM50.923,85.052l35.221,33.209V87.167h11.4v57.6L62.4,110.9V142.87H50.923V85.052Zm53,2.266H127.97c3.675,0,14.119,2.795,14.487,14.043a14.06,14.06,0,0,1-6.613,12.28,15.95,15.95,0,0,1,9.483,14.923c0,8.606-7.571,14.926-14.049,14.926H103.927V87.318Zm11.544,22.646h8.752a6.754,6.754,0,0,0,6.1-6.837c0-3.972-3.458-6.174-6.323-6.4h-8.53Zm.07,24.487H125.69c2.575-.227,6.981-2.426,6.981-7.5a7.412,7.412,0,0,0-6.691-7.357H115.538v14.855h0Zm73.31-35.11c-12.058-8.015-28.381.146-29.413,15-.444,18.021,17.349,25.446,29.413,17.65v11.546c-21.325,7.94-40.884-7.059-40.957-28.825.073-18.454,20.442-34.777,40.957-26.618V99.341ZM397.1,122.583c-17-11.335-15.643-10.136-16.886-12.093s-4.8-12.088,3.374-20.8S408.3,88.442,408.3,88.442v11.2s-14.049-8.181-17.956-.712,10.666,11.909,10.666,11.909,9.778,5.692,10.666,11.912.173,18.671-9.778,20.981c0,0-9.6,5.337-22.584-1.416l.179-12.624s5.511,6.044,13.339,5.692,10.133-8.89,4.268-12.8h0ZM265,86.917v56.541h30.938l.181-9.423H277.223V120.52h18.893v-10.49H277.223V97.408h18.893V86.917H265Zm-52.054-1.749L248.162,118.7V87.3h11.4v58.157l-35.151-34.184v32.281H212.944Z" transform="translate(72.448 0)" fill-rule="evenodd"/>
    <path id="Path_17" data-name="Path 17" d="M101.418,142.214a13.1,13.1,0,0,1-5.37,1.048L18.879,143.2a11.834,11.834,0,0,1-9.865-8.246,12.378,12.378,0,0,1,2.808-11.89,11.867,11.867,0,0,1,10.22-3.574,11.361,11.361,0,0,1-4.717-11.143,12.09,12.09,0,0,1,6.9-9.21,11.656,11.656,0,0,1,12.524,2.269c-.669-2.269-1.021-5.529-.1-7.861a11.851,11.851,0,0,1,8.313-7.726,11.459,11.459,0,0,1,12.264,4.95,21.1,21.1,0,0,1,1.259,2.494A12.044,12.044,0,0,1,68,85.557a11.564,11.564,0,0,1,10.867,4.825A12.361,12.361,0,0,1,80.3,101.3h.157a11.545,11.545,0,0,1,11.655-2.231,11.866,11.866,0,0,1,3.244,20.3,12.055,12.055,0,0,1,11.874,7.054c1.806,4.089,1.278,9.556-1.79,12.873a12.88,12.88,0,0,1-4.029,2.919h.005Z" transform="translate(0 0.705)" fill="#fff" fill-rule="evenodd"/>
    <path id="Path_18" data-name="Path 18" d="M57.8,110.7,29.257,129.785l9.613-22.846L43.427,96.3A10.623,10.623,0,0,1,52.55,90.6a10.442,10.442,0,0,1,8.9,4.888,11.163,11.163,0,0,1,.119,11.444A13.111,13.111,0,0,1,57.8,110.7H57.8v0Z" transform="translate(35.445 9.489)" fill="#08c" fill-rule="evenodd"/>
    <path id="Path_19" data-name="Path 19" d="M47.07,100.723,32.957,134.087l-.628-3.639L28.085,103.1a4.162,4.162,0,0,1,1.844-4l2.028-1.205c.119-.42-.471-.563-.747-.707l-3.97-.038a10.445,10.445,0,0,1,4.815-9.675,10.3,10.3,0,0,1,9.437-.764,10.78,10.78,0,0,1,6.429,9.613,11.876,11.876,0,0,1-.845,4.406v0H47.07Z" transform="translate(31.959 1.451)" fill="#6360a6" fill-rule="evenodd"/>
    <path id="Path_20" data-name="Path 20" d="M33.8,134.186,19.91,100.738A11.151,11.151,0,0,1,21.6,89.557a10.4,10.4,0,0,1,10.553-3.3,10.739,10.739,0,0,1,7.333,7.482,12.849,12.849,0,0,1,.257,4.243l-5.936,36.2H33.8Z" transform="translate(18.122 1.471)" fill="#b44549" fill-rule="evenodd"/>
    <path id="Path_21" data-name="Path 21" d="M15.96,109.5A10.669,10.669,0,0,1,12.245,99.9,10.934,10.934,0,0,1,19.34,91.1a10.3,10.3,0,0,1,10.515,2.556,11.208,11.208,0,0,1,2.434,3.7l13.431,32.5L15.96,109.5V109.5Z" transform="translate(6.263 9.489)" fill="#d76f2c" fill-rule="evenodd"/>
    <path id="Path_22" data-name="Path 22" d="M18.369,119.772a10.291,10.291,0,0,1-8.321-5.827,11.2,11.2,0,0,1,1.07-11.36,10.46,10.46,0,0,1,10.114-3.9,10.73,10.73,0,0,1,4.043,1.676l28.89,19.426Z" transform="translate(0.805 22.958)" fill="#ecb731" fill-rule="evenodd"/>
    <path id="Path_23" data-name="Path 23" d="M63.989,119.772a10.291,10.291,0,0,0,8.321-5.827,11.208,11.208,0,0,0-1.07-11.36,10.46,10.46,0,0,0-10.114-3.9,10.73,10.73,0,0,0-4.043,1.676L28.191,119.785l35.793-.011h.005Z" transform="translate(33.624 22.958)" fill="#64b054" fill-rule="evenodd"/>
  </g>
</svg>
