<svg xmlns="http://www.w3.org/2000/svg" width="18.6" height="18.599" viewBox="0 0 18.6 18.599">
  <g id="ico_f" transform="translate(0 0)">
    <path id="Path_22054" data-name="Path 22054" d="M18.6,0H0V18.6H18.6Zm0,0H0V18.6H18.6ZM0,18.6H18.6V0H0Z" fill="none"/>
    <path id="Path_22055" data-name="Path 22055" d="M14.586,6.823,10.75,2.994a.772.772,0,0,0-1.093,0L5.813,6.823a6.2,6.2,0,1,0,8.773,0ZM5.55,11.472a4.412,4.412,0,0,1,1.364-3.41L10.2,4.707,13.486,8.1a4.315,4.315,0,0,1,1.364,3.371Z" transform="translate(-0.9 -0.623)" fill="#fff"/>
  </g>
</svg>
