<svg xmlns="http://www.w3.org/2000/svg" width="219.63" height="202.47" viewBox="0 0 219.63 202.47">
  <g id="icon" transform="translate(-16743 -8749)">
    <path id="website" d="M193.892,0H25.739A25.765,25.765,0,0,0,0,25.739V168.167a34.369,34.369,0,0,0,34.317,34.3H185.311a34.369,34.369,0,0,0,34.317-34.317,8.58,8.58,0,1,0-17.16,0,17.185,17.185,0,0,1-17.157,17.158H34.317a17.185,17.185,0,0,1-17.158-17.158V51.9H202.47v73.34a8.58,8.58,0,1,0,17.16,0v-99.5A25.765,25.765,0,0,0,193.892,0ZM159.144,17.158a8.581,8.581,0,1,1-8.581,8.581,8.581,8.581,0,0,1,8.581-8.581Zm42.9,8.581a8.581,8.581,0,1,1-8.581-8.581,8.581,8.581,0,0,1,8.581,8.581Zm-184.883,0a8.589,8.589,0,0,1,8.581-8.581H134.885a25.684,25.684,0,0,0,.154,17.587H17.158Zm92.648,59.214a28.424,28.424,0,0,0-20.389-7.739,28.66,28.66,0,0,0-20.473,8.231,30.292,30.292,0,0,0-8.482,21.7c0,18,15.618,29.5,28.165,38.738a84.5,84.5,0,0,1,14.517,12.256,8.581,8.581,0,0,0,13.3,0,84.5,84.5,0,0,1,14.517-12.256c12.548-9.239,28.165-20.735,28.165-38.738a29.173,29.173,0,0,0-49.32-22.189Zm32.173,22.189c0,9.32-10.777,17.252-21.178,24.915-3.74,2.752-7.555,5.56-11,8.537-3.44-2.977-7.252-5.785-11-8.537-10.413-7.663-21.178-15.591-21.178-24.915,0-7.756,4.631-12.769,11.8-12.769a10.328,10.328,0,0,1,9.728,4.5,14.473,14.473,0,0,1,2.1,5.662,8.566,8.566,0,0,0,17.1,0,14.473,14.473,0,0,1,2.1-5.662,10.328,10.328,0,0,1,9.743-4.5c7.168,0,11.8,5.013,11.8,12.769Zm0,0" transform="translate(16743 8749)" fill="#7540ee"/>
  </g>
</svg>
