<svg id="icon" xmlns="http://www.w3.org/2000/svg" width="212.555" height="212.555" viewBox="0 0 212.555 212.555">
  <g id="Group_944" data-name="Group 944" transform="translate(105.862 121.223)">
    <g id="Group_943" data-name="Group 943">
      <path id="Path_54" data-name="Path 54" d="M354.322,320l-25.806-25.6a8.3,8.3,0,0,0-11.694,11.79l23.775,23.58H330.464c-23.978,0-46.1-10.374-60.7-28.463a8.3,8.3,0,1,0-12.922,10.429c17.766,22.014,44.6,34.64,73.622,34.64h9.3l-22.938,22.75a8.3,8.3,0,0,0,11.694,11.79l25.806-25.6a24.85,24.85,0,0,0,0-35.326Z" transform="translate(-255 -292)" fill="#7540ee"/>
    </g>
  </g>
  <g id="Group_946" data-name="Group 946" transform="translate(0 0)">
    <g id="Group_945" data-name="Group 945">
      <path id="Path_55" data-name="Path 55" d="M205.184,28,179.378,2.408A8.3,8.3,0,1,0,167.684,14.2l22.938,22.75h-9.3c-33.9,0-65.29,17.872-81.914,46.642l-3.519,6.091-5.678-9.827C73.594,51.084,42.206,33.212,8.3,33.212a8.3,8.3,0,0,0,0,16.606c27.992,0,53.87,14.692,67.535,38.344L86.3,106.277,75.838,124.393C62.173,148.045,36.295,162.737,8.3,162.737a8.3,8.3,0,0,0,0,16.606c33.9,0,65.29-17.872,81.914-46.642l12.795-22.145q.07-.117.136-.235L113.791,91.9c13.665-23.651,39.543-38.344,67.535-38.344h10.132l-23.775,23.58a8.3,8.3,0,0,0,11.694,11.79l25.806-25.595a24.85,24.85,0,0,0,0-35.326Z" transform="translate(0 0)" fill="#7540ee"/>
    </g>
  </g>
</svg>
