<svg xmlns="http://www.w3.org/2000/svg" width="207.338" height="206.91" viewBox="0 0 207.338 206.91">
  <g id="icon" transform="translate(-16345.999 -8836.999)">
    <path id="vector" d="M207.328,103.259A14.174,14.174,0,1,1,183.944,92.5a81.16,81.16,0,0,0-69.219-69.469,14.163,14.163,0,0,1-22.12,0A81.16,81.16,0,0,0,23.4,92.5,14.171,14.171,0,1,1,7.259,90.889,96.455,96.455,0,0,1,34.946,34.541,98.221,98.221,0,0,1,49.892,22.272H25.8a14.174,14.174,0,1,1,0-16.2H92.039a14.165,14.165,0,0,1,23.255,0H181.53a14.174,14.174,0,1,1,0,16.2H157.439A98.22,98.22,0,0,1,172.4,34.541a96.455,96.455,0,0,1,27.676,56.348,14.168,14.168,0,0,1,7.256,12.373Zm-62.485,5.452a31.922,31.922,0,0,1-.91,31.619,8.1,8.1,0,0,1-13.813-8.457,15.672,15.672,0,0,0,.456-15.5l-19.618-36.04v31.259A32.015,32.015,0,0,1,115,122.953a12.149,12.149,0,0,1-24.3,0,32.1,32.1,0,0,1,4.055-11.394V82.068L75.952,116.58a15.672,15.672,0,0,0,.412,15.455L92.358,157.52h27.094a8.1,8.1,0,0,1,8.1,8.1v22.4A18.9,18.9,0,0,1,108.7,206.909H97.841a18.878,18.878,0,0,1-18.87-18.842V166.654L62.614,140.583l-.052-.085a31.927,31.927,0,0,1-.872-31.619l.025-.047,34.52-63.307a8.1,8.1,0,0,1,7.11-4.22h0a8.1,8.1,0,0,1,7.109,4.224l34.369,63.135.025.047Zm-33.486,65.006H95.166v14.35a2.681,2.681,0,0,0,2.681,2.67h10.833a2.684,2.684,0,0,0,2.675-2.684Zm0,0" transform="translate(16346.001 8837)" fill="#7540ee"/>
  </g>
</svg>
