<svg xmlns="http://www.w3.org/2000/svg" width="229.613" height="229.163" viewBox="0 0 229.613 229.163">
  <path id="icon" d="M220.66,0H76.089A35.848,35.848,0,0,0,40.282,35.807v135.17H8.952A8.952,8.952,0,0,0,0,179.928v13.428a35.847,35.847,0,0,0,35.807,35.807h132.04a8.9,8.9,0,0,0,.9-.045,35.851,35.851,0,0,0,34.017-35.763,8.952,8.952,0,0,0-17.9,0,17.461,17.461,0,1,1-34.912,0V179.929a8.952,8.952,0,0,0-8.951-8.952H58.186V35.807a17.924,17.924,0,0,1,17.9-17.9H189.658a35.589,35.589,0,0,0-4.8,17.9V148.6a8.952,8.952,0,1,0,17.9,0V35.807a17.924,17.924,0,0,1,17.9-17.9,8.952,8.952,0,0,0,0-17.9ZM136.842,211.259H35.807a17.923,17.923,0,0,1-17.9-17.9V188.88H132.036v4.476a35.584,35.584,0,0,0,4.805,17.9Zm0,0" fill="#7540ee"/>
</svg>
