<svg xmlns="http://www.w3.org/2000/svg" width="227.074" height="227.074" viewBox="0 0 227.074 227.074">
  <g id="icon" transform="translate(0 0.001)">
    <path id="Path_22071" data-name="Path 22071" d="M224.463,156.677l-45.047-44.863L213.764,77.56a45.432,45.432,0,1,0-64.251-64.25L115.335,47.482,70.261,2.586A8.871,8.871,0,0,0,57.7,2.628L2.569,58.3a8.868,8.868,0,0,0,.042,12.527l44.782,44.6-24.85,24.85a8.871,8.871,0,0,0-2.274,3.894L.326,215.826a8.868,8.868,0,0,0,10.967,10.91l71.649-20.354A8.868,8.868,0,0,0,86.8,191.588l-45.17-45.309L146.882,41.032,186.029,80.18l-80.578,80.346a8.868,8.868,0,0,0,.015,12.575l51.8,51.4a8.871,8.871,0,0,0,6.249,2.575h.039a8.868,8.868,0,0,0,6.264-2.629l54.692-55.24a8.868,8.868,0,0,0-.042-12.527ZM63.6,193.437,21.655,205.349l11.744-42.2Zm-3.671-90.551L21.4,64.5,64.049,21.44,78.124,35.455,60.658,53.222A8.871,8.871,0,1,0,73.306,65.665L90.7,47.982l12.106,12.045Zm99.5-74.4,2.635-2.635A27.7,27.7,0,0,1,201.231,65l-2.644,2.638Zm4.017,177.167-39.148-38.846,42.565-42.46,11.967,11.919L161.8,153.431a8.871,8.871,0,0,0,12.584,12.494l17.011-17.132L205.675,163Z" transform="translate(0 -0.001)" fill="#7540ee"/>
  </g>
</svg>
