<svg xmlns="http://www.w3.org/2000/svg" width="165.888" height="76.747" viewBox="0 0 165.888 76.747">
  <g id="logo-placeholder-6" transform="translate(-851.329 -688.322)">
    <g id="Group_3" data-name="Group 3" transform="translate(-355.727 600.45)">
      <path id="Path_8" data-name="Path 8" d="M1296.136,128.085a11.954,11.954,0,0,1,3.276.5c.041-2.613-.456-3.649-2.571-3.649a17.611,17.611,0,0,0-4.645.746c-.5.124-.788-.207-.913-.663l-.332-1.535a.745.745,0,0,1,.539-.954,17.1,17.1,0,0,1,5.724-.954c5.309,0,5.807,3.235,5.807,7.382v8.834a.816.816,0,0,1-.789.788h-1.161c-.373,0-.539-.166-.705-.58l-.414-1.12a7.161,7.161,0,0,1-5.1,2.115c-3.11,0-5.35-2.115-5.35-5.557C1289.5,130.407,1291.906,128.085,1296.136,128.085Zm-.5,7.963a4.91,4.91,0,0,0,3.733-2.074V131.32a6.238,6.238,0,0,0-2.9-.664c-1.991,0-3.36,1.037-3.36,2.737A2.5,2.5,0,0,0,1295.638,136.048Z" fill="#201b3d"/>
      <path id="Path_9" data-name="Path 9" d="M1315.711,121.573a7.353,7.353,0,0,1,6.014,2.944.813.813,0,0,1-.166,1.162l-1.369,1.244c-.5.456-.788.125-1.12-.166a4.609,4.609,0,0,0-3.318-1.576,5.124,5.124,0,1,0,3.816,8.337.757.757,0,0,1,1.119-.083l1.12.912c.415.332.581.747.291,1.162a7.358,7.358,0,0,1-6.429,3.483,8.637,8.637,0,0,1-8.668-8.668A8.825,8.825,0,0,1,1315.711,121.573Z" fill="#201b3d"/>
      <path id="Path_10" data-name="Path 10" d="M1326.245,122.776a.815.815,0,0,1,.787-.788h1.162a.724.724,0,0,1,.705.5l.456,1.411a7.7,7.7,0,0,1,5.475-2.323,6.157,6.157,0,0,1,5.35,2.654,9.239,9.239,0,0,1,6.014-2.654c5.06,0,6.843,3.567,6.843,7.88v8.336a.787.787,0,0,1-.788.788h-2.323a.787.787,0,0,1-.787-.788v-8.5c0-2.613-1.2-4.106-3.443-4.106a5.977,5.977,0,0,0-4.272,2.032,11.6,11.6,0,0,1,.125,1.991v8.585a.816.816,0,0,1-.788.788h-2.2a.788.788,0,0,1-.789-.788v-8.5c0-2.654-1.2-4.106-3.525-4.106a4.708,4.708,0,0,0-4.106,2.489v10.119a.815.815,0,0,1-.788.788h-2.323a.815.815,0,0,1-.787-.788Z" fill="#201b3d"/>
      <path id="Path_11" data-name="Path 11" d="M1365.313,121.573a7.469,7.469,0,0,1,7.631,7.673,10.268,10.268,0,0,1-.083,1.119.763.763,0,0,1-.746.706h-11.282a4.8,4.8,0,0,0,4.77,4.438,7.075,7.075,0,0,0,3.691-1.2c.5-.29.788-.457,1.12-.042l1.161,1.576a.643.643,0,0,1-.083,1.078,9.529,9.529,0,0,1-6.138,2.074c-5.018,0-8.336-3.94-8.336-8.709C1357.018,125.6,1360.336,121.573,1365.313,121.573Zm3.774,6.885a3.925,3.925,0,0,0-3.816-3.691,4.2,4.2,0,0,0-4.23,3.691Z" fill="#201b3d"/>
    </g>
    <path id="Path_12" data-name="Path 12" d="M1263.543,105.25h-19.934l10.172-13.781a2.257,2.257,0,1,0-3.632-2.68L1238,105.25h-.671l-7.915-7.915a2.257,2.257,0,0,0-3.192,3.192l4.723,4.723h-18.187a5.718,5.718,0,0,0-5.7,5.7v33.064a14.691,14.691,0,0,0,14.648,14.648h7.985l-2.684,1.763a2.257,2.257,0,1,0,2.478,3.773l8.426-5.536h.478l8.477,5.584a2.257,2.257,0,0,0,2.483-3.77l-2.754-1.814h8a14.692,14.692,0,0,0,14.648-14.648V110.951A5.719,5.719,0,0,0,1263.543,105.25Zm-.131,37.444a9.741,9.741,0,0,1-9.713,9.712h-31.1a9.741,9.741,0,0,1-9.712-9.712V115.911a4.419,4.419,0,0,1,4.405-4.405h41.713a4.419,4.419,0,0,1,4.406,4.406Z" transform="translate(-355.727 600.45)" fill="#201b3d"/>
  </g>
</svg>
