<svg xmlns="http://www.w3.org/2000/svg" width="191.906" height="43.353" viewBox="0 0 191.906 43.353">
  <g id="logo-placeholder-8" transform="translate(-1878.32 -704.815)">
    <g id="Group_7" data-name="Group 7" transform="translate(-355.727 600.45)">
      <path id="Path_26" data-name="Path 26" d="M2416.623,144.319a1.112,1.112,0,0,0-1.522.406,1.531,1.531,0,0,1-2.857-.765v-2.385a1.53,1.53,0,0,1,2.8-.855,1.114,1.114,0,0,0,1.846-1.247,3.758,3.758,0,0,0-6.856,1.742,1.229,1.229,0,0,0-.018.183v2.9a1.114,1.114,0,0,0,.069.375,3.758,3.758,0,0,0,6.944,1.171A1.113,1.113,0,0,0,2416.623,144.319Z" fill="#201b3d"/>
      <path id="Path_27" data-name="Path 27" d="M2425.942,141.3v-.017a.983.983,0,0,0-.013-.111,3.756,3.756,0,0,0-7.474.052,1.15,1.15,0,0,0-.018.178v2.9a1.114,1.114,0,0,0,.069.375,3.764,3.764,0,0,0,3.689,3.049,1.01,1.01,0,0,0,.112-.011,3.754,3.754,0,0,0,3-1.653,3.715,3.715,0,0,0,.569-1.372,1.085,1.085,0,0,0,.074-.388v-2.9A.829.829,0,0,0,2425.942,141.3Zm-3.748,4.187c-.017,0-.034,0-.051.005a1.531,1.531,0,0,1-1.479-1.528v-2.385a1.531,1.531,0,1,1,3.061,0v2.377a1.531,1.531,0,0,1-1.531,1.531Z" fill="#201b3d"/>
    </g>
    <g id="Group_8" data-name="Group 8" transform="translate(-355.727 600.45)">
      <path id="Path_28" data-name="Path 28" d="M2321.985,141.047l-.016-.014c-.049.059-.094.12-.146.176Z" fill="#201b3d"/>
      <path id="Path_29" data-name="Path 29" d="M2363.481,142.769a4.755,4.755,0,0,1-4.755-4.755V116.821a6.532,6.532,0,0,0-12.8-1.839,6.523,6.523,0,0,1,8.373,6.267v21.193a4.749,4.749,0,0,0,7.943,3.521l.043.04,4.94-4.956-.065-.054A4.722,4.722,0,0,1,2363.481,142.769Z" fill="#201b3d"/>
      <path id="Path_30" data-name="Path 30" d="M2336.147,128.5V116.821a6.532,6.532,0,0,0-12.8-1.839,6.523,6.523,0,0,1,8.373,6.267v11.683a4.755,4.755,0,0,0,7.419,3.939l.033.03.215-.215a4.8,4.8,0,0,0,.85-.853l3.609-3.621a4.73,4.73,0,0,1-7.7-3.708Z" fill="#201b3d"/>
      <path id="Path_31" data-name="Path 31" d="M2313.568,138.014V116.141a4.722,4.722,0,0,1,.07-.688,15.94,15.94,0,0,1,2.667-7.542,16.051,16.051,0,0,0-7.1,11.97,4.877,4.877,0,0,0-.069.688v21.873a4.75,4.75,0,0,0,7.9,3.558l0,0,.057-.057c.107-.1.209-.2.307-.308l4.116-4.129a4.739,4.739,0,0,1-7.957-3.495Z" fill="#201b3d"/>
      <path id="Path_32" data-name="Path 32" d="M2305.136,136.947c.007-.01.012-.018.019-.027-.032.042-.068.081-.1.123Z" fill="#201b3d"/>
      <path id="Path_33" data-name="Path 33" d="M2292.488,143.122a16.065,16.065,0,0,1-15.749-13.02,4.693,4.693,0,0,1-.3-1.6V116.141a4.67,4.67,0,0,1,.079-.781,15.965,15.965,0,0,1,3.636-8.69l-2.339,2.314a16.238,16.238,0,0,0-1.963,1.943l-.009.009h0a15.981,15.981,0,0,0-3.754,8.851,4.67,4.67,0,0,0-.079.781v12.363a4.71,4.71,0,0,0,.3,1.6,16.016,16.016,0,0,0,25.085,10.006l0,.008.086-.072a16.108,16.108,0,0,0,2.2-1.927,61.937,61.937,0,0,0,4.609-4.62A16.1,16.1,0,0,1,2292.488,143.122Z" fill="#201b3d"/>
      <path id="Path_34" data-name="Path 34" d="M2305.363,136.64c-.017.022-.032.046-.049.068C2305.329,136.686,2305.349,136.661,2305.363,136.64Z" fill="#201b3d"/>
      <path id="Path_35" data-name="Path 35" d="M2306.007,112.891l-.017-.008c-.011.018-.019.037-.029.055Z" fill="#201b3d"/>
      <path id="Path_36" data-name="Path 36" d="M2297.91,113.245a6.532,6.532,0,0,0-11.688,1.811,6.522,6.522,0,0,1,7.26,2.617,4.756,4.756,0,0,0,7.94-.09l2.863-2.931a4.724,4.724,0,0,1-6.375-1.407Z" fill="#201b3d"/>
      <path id="Path_37" data-name="Path 37" d="M2254.52,110.286a6.543,6.543,0,0,0-6.267,4.7,6.523,6.523,0,0,1,8.373,6.267v3.376h4.428v-7.8A6.542,6.542,0,0,0,2254.52,110.286Z" fill="#201b3d"/>
      <path id="Path_38" data-name="Path 38" d="M2244.43,104.365l-.082.082c.03-.025.059-.051.089-.075Z" fill="#201b3d"/>
      <path id="Path_39" data-name="Path 39" d="M2269.471,141.047l-.016-.014c-.049.059-.095.12-.146.176Z" fill="#201b3d"/>
      <path id="Path_40" data-name="Path 40" d="M2238.475,138.014V116.141a4.722,4.722,0,0,1,.07-.688,15.965,15.965,0,0,1,3.572-8.763l-2,2.008a16.166,16.166,0,0,0-2.611,2.626l-.008.008h0a15.978,15.978,0,0,0-3.384,8.548,4.6,4.6,0,0,0-.07.688v21.873a4.749,4.749,0,0,0,7.9,3.558l0,0,.056-.057c.108-.1.21-.2.308-.309l4.116-4.128a4.739,4.739,0,0,1-7.957-3.495Z" fill="#201b3d"/>
      <path id="Path_41" data-name="Path 41" d="M2261.054,138.014v-3.879h-13.069v3.879a4.765,4.765,0,0,1-.055.55h8.7v3.878a4.75,4.75,0,0,0,7.9,3.558l0,0,.056-.057c.108-.1.21-.2.308-.308l4.115-4.129a4.738,4.738,0,0,1-7.956-3.495Z" fill="#201b3d"/>
      <path id="Path_42" data-name="Path 42" d="M2246.892,141.047l-.017-.014c-.048.059-.094.12-.145.177Z" fill="#201b3d"/>
      <path id="Path_43" data-name="Path 43" d="M2402.509,125.18h-17.824v1.684a6.477,6.477,0,0,0,.612,2.744h11.959a4.728,4.728,0,0,1,4.867-1.7l4.043-4.447-.012-.019A4.725,4.725,0,0,1,2402.509,125.18Z" fill="#201b3d"/>
      <path id="Path_44" data-name="Path 44" d="M2396.64,113.031a6.512,6.512,0,0,0-11.666,1.828,6.461,6.461,0,0,1,1.817-.284,6.526,6.526,0,0,1,3.608,1.1h7.274A6.465,6.465,0,0,0,2396.64,113.031Z" fill="#201b3d"/>
      <path id="Path_45" data-name="Path 45" d="M2391.219,142.908a16.062,16.062,0,0,1-15.632-12.482,4.729,4.729,0,0,1-.412-1.922V116.141a4.714,4.714,0,0,1,.055-.547,15.959,15.959,0,0,1,3.539-8.977l-2.035,2.013a16.043,16.043,0,0,0-5.932,11.392,4.714,4.714,0,0,0-.055.547v12.363a4.729,4.729,0,0,0,.412,1.922,16.062,16.062,0,0,0,15.632,12.482l.021,0a16.053,16.053,0,0,0,9.053-2.828l.013.038s.136-.113.374-.314a16.078,16.078,0,0,0,2.262-2c1.158-1.065,2.545-2.408,3.838-3.826a16.092,16.092,0,0,1-11.112,4.505Z" fill="#201b3d"/>
      <path id="Path_46" data-name="Path 46" d="M2269.309,141.209l-.3.3C2269.115,141.413,2269.213,141.314,2269.309,141.209Z" fill="#201b3d"/>
      <path id="Path_47" data-name="Path 47" d="M2246.73,141.21l-.3.3C2246.536,141.413,2246.635,141.314,2246.73,141.21Z" fill="#201b3d"/>
      <path id="Path_48" data-name="Path 48" d="M2321.823,141.209l-.3.3C2321.629,141.413,2321.728,141.314,2321.823,141.209Z" fill="#201b3d"/>
      <path id="Path_49" data-name="Path 49" d="M2305.314,136.708c-.048.068-.1.138-.159.212C2305.209,136.851,2305.261,136.779,2305.314,136.708Z" fill="#201b3d"/>
      <path id="Path_50" data-name="Path 50" d="M2305.054,137.043c-.245.295-.5.589-.758.882C2304.559,137.64,2304.812,137.347,2305.054,137.043Z" fill="#201b3d"/>
    </g>
  </g>
</svg>
