<svg xmlns="http://www.w3.org/2000/svg" width="220.927" height="61.818" viewBox="0 0 220.927 61.818">
  <g id="logo-placeholder-5" transform="translate(-822.369 -499.238)">
    <g id="Group_13" data-name="Group 13" transform="translate(-355.727 600.45)">
      <path id="Rectangle_1" data-name="Rectangle 1" d="M3.87,0H6.025A3.87,3.87,0,0,1,9.9,3.87V31.46a3.446,3.446,0,0,1-3.446,3.446H3.87A3.87,3.87,0,0,1,0,31.036V3.87A3.87,3.87,0,0,1,3.87,0Z" transform="translate(1178.096 -87.756)" fill="#201b3d"/>
      <path id="Rectangle_2" data-name="Rectangle 2" d="M3.87,0H6.025A3.87,3.87,0,0,1,9.9,3.87v54.5a3.446,3.446,0,0,1-3.446,3.446H3.87A3.87,3.87,0,0,1,0,57.948V3.87A3.87,3.87,0,0,1,3.87,0Z" transform="translate(1232.451 -101.212)" fill="#201b3d"/>
      <path id="Rectangle_3" data-name="Rectangle 3" d="M3.87,0H6.025A3.87,3.87,0,0,1,9.9,3.87v54.5a3.446,3.446,0,0,1-3.446,3.446H3.87A3.87,3.87,0,0,1,0,57.948V3.87A3.87,3.87,0,0,1,3.87,0Z" transform="translate(1196.214 -101.212)" fill="#201b3d"/>
      <path id="Rectangle_4" data-name="Rectangle 4" d="M3.87,0H6.025A3.87,3.87,0,0,1,9.9,3.87V31.46a3.446,3.446,0,0,1-3.446,3.446H3.87A3.87,3.87,0,0,1,0,31.036V3.87A3.87,3.87,0,0,1,3.87,0Z" transform="translate(1250.569 -87.756)" fill="#201b3d"/>
      <path id="Rectangle_5" data-name="Rectangle 5" d="M3.87,0H6.025A3.87,3.87,0,0,1,9.9,3.87V30.689a3.446,3.446,0,0,1-3.446,3.446H3.87A3.87,3.87,0,0,1,0,30.265V3.87A3.87,3.87,0,0,1,3.87,0Z" transform="translate(1214.333 -85.89)" fill="#201b3d"/>
    </g>
    <g id="Group_14" data-name="Group 14" transform="translate(-355.727 600.45)">
      <path id="Path_62" data-name="Path 62" d="M1293.047-61.608l8.4-18.061a.546.546,0,0,1,.456-.295h.269a.544.544,0,0,1,.456.295l8.4,18.061a.474.474,0,0,1-.456.7h-2.979c-.483,0-.7-.161-.94-.671l-.966-2.12h-7.3l-.966,2.147a1,1,0,0,1-.966.644H1293.5A.474.474,0,0,1,1293.047-61.608Zm11.03-5.743-2.039-4.428h-.027L1300-67.351Z" fill="#201b3d"/>
      <path id="Path_63" data-name="Path 63" d="M1332.121-79.964a9.014,9.014,0,0,1,6.494,2.5.5.5,0,0,1,.027.751l-2.093,2.174a.47.47,0,0,1-.671,0,5.481,5.481,0,0,0-3.623-1.369,5.348,5.348,0,0,0-5.26,5.529,5.316,5.316,0,0,0,5.287,5.448,5.676,5.676,0,0,0,3.6-1.289.53.53,0,0,1,.7.027l2.093,2.228a.536.536,0,0,1-.027.724,9.212,9.212,0,0,1-6.521,2.6,9.621,9.621,0,0,1-9.688-9.634A9.667,9.667,0,0,1,1332.121-79.964Z" fill="#201b3d"/>
      <path id="Path_64" data-name="Path 64" d="M1354.448-79.534a.514.514,0,0,1,.483-.43h.43a.59.59,0,0,1,.456.269l6.226,11.593h.054l6.226-11.593a.59.59,0,0,1,.456-.269h.429a.514.514,0,0,1,.484.43l3.032,18.034a.492.492,0,0,1-.51.59h-3.167a.547.547,0,0,1-.51-.429l-1.207-8.293h-.054l-4.508,8.7a.628.628,0,0,1-.457.3h-.482a.584.584,0,0,1-.457-.3l-4.535-8.7h-.054l-1.181,8.293a.521.521,0,0,1-.509.429h-3.167a.492.492,0,0,1-.51-.59Z" fill="#201b3d"/>
      <path id="Path_65" data-name="Path 65" d="M1386.893-79.186a.509.509,0,0,1,.51-.509h11.11a.509.509,0,0,1,.51.509v2.926a.509.509,0,0,1-.51.509h-7.433v3.328h6.118a.528.528,0,0,1,.51.51v2.925a.509.509,0,0,1-.51.51h-6.118v3.623h7.433a.509.509,0,0,1,.51.51v2.925a.51.51,0,0,1-.51.51H1387.4a.51.51,0,0,1-.51-.51Z" fill="#201b3d"/>
    </g>
  </g>
</svg>
