<svg xmlns="http://www.w3.org/2000/svg" width="382.729" height="300.716" viewBox="0 0 382.729 300.716">
  <g id="envelope-of-white-paper" transform="translate(0 -54.817)">
    <path id="Path_6" data-name="Path 6" d="M372.691,64.854a32.9,32.9,0,0,0-24.133-10.037H34.173A32.905,32.905,0,0,0,10.037,64.854,32.9,32.9,0,0,0,0,88.99V321.363a32.887,32.887,0,0,0,10.037,24.13,32.888,32.888,0,0,0,24.135,10.04H348.558a34.276,34.276,0,0,0,34.171-34.171V88.99A32.9,32.9,0,0,0,372.691,64.854Zm-17.3,256.5a6.924,6.924,0,0,1-6.833,6.83H34.171a6.921,6.921,0,0,1-6.834-6.83V157.332a125.018,125.018,0,0,0,14.737,14.1q57.24,44,90.985,72.188,10.892,9.185,17.727,14.31a98.446,98.446,0,0,0,18.473,10.358q11.639,5.238,21.892,5.23h.427q10.249,0,21.891-5.23a98.323,98.323,0,0,0,18.478-10.358q6.832-5.127,17.728-14.31,33.746-28.194,90.982-72.188a124.4,124.4,0,0,0,14.732-14.1V321.358Zm0-226.816V96.89q0,12.6-9.928,28.084T324,149.641q-41.226,32.469-85.649,67.7-1.279,1.067-7.478,6.3t-9.823,8.013q-3.637,2.781-9.5,6.727a56.993,56.993,0,0,1-10.786,5.873,25.373,25.373,0,0,1-9.182,1.917h-.427a25.379,25.379,0,0,1-9.182-1.917,56.9,56.9,0,0,1-10.785-5.873q-5.87-3.949-9.5-6.727t-9.824-8.013q-6.194-5.23-7.477-6.3-44.423-35.24-85.643-67.7-31.4-24.771-31.4-60.655a6.931,6.931,0,0,1,6.834-6.834H348.56a3.705,3.705,0,0,0,2.99.535c.855-.288,1.495.248,1.92,1.6s.819,1.993,1.174,1.923.572.818.643,2.671.1,2.781.1,2.781v2.879Z" transform="translate(0)" fill="#8a94a6"/>
  </g>
</svg>
