<svg id="play-button" xmlns="http://www.w3.org/2000/svg" width="512" height="512" viewBox="0 0 512 512">
  <g id="Group_2" data-name="Group 2">
    <g id="Group_1" data-name="Group 1">
      <path id="Path_1" data-name="Path 1" d="M437.02,74.98A256,256,0,0,0,74.98,437.02a256.1,256.1,0,0,0,313.482,38.087,20,20,0,1,0-20.725-34.213A215.593,215.593,0,0,1,256,472C136.9,472,40,375.1,40,256S136.9,40,256,40s216,96.9,216,216a215.128,215.128,0,0,1-36.626,119.884,20,20,0,0,0,33.252,22.232A255.37,255.37,0,0,0,437.02,74.98Z" fill="#fff"/>
      <path id="Path_2" data-name="Path 2" d="M234.665,151.423a45.07,45.07,0,0,0-67.65,39.1V321.483a44.953,44.953,0,0,0,67.65,39.094L347.512,295.1a45.227,45.227,0,0,0,0-78.19ZM327.436,260.5,214.589,325.979a4.761,4.761,0,0,1-4.994.01,4.947,4.947,0,0,1-2.58-4.507V190.518a4.947,4.947,0,0,1,2.58-4.507,5.014,5.014,0,0,1,2.5-.7,4.921,4.921,0,0,1,2.5.713L327.436,251.5a5.226,5.226,0,0,1,0,8.994Z" fill="#fff"/>
    </g>
  </g>
</svg>
