<svg xmlns="http://www.w3.org/2000/svg" width="512" height="512" viewBox="0 0 512 512">
  <path id="team-leader" d="M100,160a60,60,0,1,0-60-60A60.066,60.066,0,0,0,100,160Zm0-80a20,20,0,1,1-20,20A20.024,20.024,0,0,1,100,80Zm312,80a60,60,0,1,0-60-60A60.066,60.066,0,0,0,412,160Zm0-80a20,20,0,1,1-20,20A20.024,20.024,0,0,1,412,80ZM512,239v88a60.11,60.11,0,0,1-40,56.574V492a20,20,0,0,1-40,0V367a20,20,0,0,1,20-20,20.024,20.024,0,0,0,20-20V239a20.024,20.024,0,0,0-20-20H416a20,20,0,0,1,0-40h36a60.066,60.066,0,0,1,60,60ZM392,367V492a20,20,0,0,1-40,0V383.574a60.278,60.278,0,0,1-29.008-22.008A59.35,59.35,0,0,1,316,364.574V492a20,20,0,0,1-40,0V348a20,20,0,0,1,20-20,20.024,20.024,0,0,0,20-20V199a20.024,20.024,0,0,0-20-20H216a20.024,20.024,0,0,0-20,20V308a20.024,20.024,0,0,0,20,20,20,20,0,0,1,20,20V492a20,20,0,0,1-40,0V364.574a59.35,59.35,0,0,1-6.992-3.008A60.279,60.279,0,0,1,160,383.574V492a20,20,0,0,1-40,0V367a20,20,0,0,1,20-20,20.021,20.021,0,0,0,19.871-17.8A59.759,59.759,0,0,1,156,308V199a60.066,60.066,0,0,1,60-60h80a60.066,60.066,0,0,1,60,60V308a59.758,59.758,0,0,1-3.871,21.2A20.021,20.021,0,0,0,372,347,20,20,0,0,1,392,367ZM116,199a20,20,0,0,1-20,20H60a20.024,20.024,0,0,0-20,20v88a20.024,20.024,0,0,0,20,20,20,20,0,0,1,20,20V492a20,20,0,0,1-40,0V383.574A60.11,60.11,0,0,1,0,327V239a60.066,60.066,0,0,1,60-60H96a20,20,0,0,1,20,20Zm140-79a60,60,0,1,0-60-60A60.066,60.066,0,0,0,256,120Zm0-80a20,20,0,1,1-20,20A20.024,20.024,0,0,1,256,40Zm0,0" fill="#7540ee"/>
</svg>
