<svg xmlns="http://www.w3.org/2000/svg" width="238.904" height="60.82" viewBox="0 0 238.904 60.82">
  <g id="logo_forest" transform="translate(-685.005 -1415)">
    <g id="Group_7020" data-name="Group 7020" transform="translate(766.746 1424)">
      <path id="Path_21960" data-name="Path 21960" d="M1944.94-2036.24V-2023c0,7.148,3.793,10.938,12.243,10.938h4.226v-7.4h-3.563c-2.92,0-4.225-1.118-4.225-3.973v-12.8h7.831v-7.706h-7.831v-8.2h-8.64v8.2" transform="translate(-1804.288 2054.988)" fill="#0a1f44"/>
      <path id="Path_21961" data-name="Path 21961" d="M1922.507-2024.379c.19,6.092,5.532,10.628,14.233,10.628,8.017,0,14.355-3.17,14.355-10.752,0-12.12-19.267-7.085-19.267-12.8,0-1.987,2.071-2.8,4.54-2.8,3.853,0,4.784,1.74,4.909,4.04h8.638c-.5-6.4-5.593-10.565-13.672-10.565s-13.135,4.541-13.135,10.276c0,13.467,18.832,7.707,18.832,13.3,0,1.492-1.491,2.98-4.723,2.98-4.6-.062-5.9-2.425-5.9-4.351Z" transform="translate(-1813.685 2057.299)" fill="#0a1f44"/>
      <path id="Path_21962" data-name="Path 21962" d="M1892.853-2014.349v-14.5c0-5.534,2.859-9.081,9.2-9.081v-8.763a11.139,11.139,0,0,0-9.262,4.786v-4.352h-8.64v31.884Z" transform="translate(-1829.753 2057.271)" fill="#0a1f44"/>
      <path id="Path_21963" data-name="Path 21963" d="M1874.827-2046.751a16.642,16.642,0,0,0-17.086,16.186c0,.157-.007.313-.006.471a16.523,16.523,0,0,0,16.465,16.583c.209,0,.417,0,.627-.009,9.84,0,17.153-7.334,17.153-16.574a16.67,16.67,0,0,0-16.675-16.664C1875.145-2046.758,1874.986-2046.757,1874.827-2046.751Zm8.576,16.656a8.7,8.7,0,0,1-8.5,8.888h-.258a8.4,8.4,0,0,1-8.406-8.4c0-.162,0-.324.014-.484a8.521,8.521,0,0,1,8.184-8.825h.393a8.5,8.5,0,0,1,8.587,8.419h0c0,.135,0,.27-.013.4Z" transform="translate(-1840.818 2057.245)" fill="#0a1f44"/>
      <path id="Path_21964" data-name="Path 21964" d="M1861.654-2047.063v-7.086H1858.3c-8.288,0-12.486,3.916-12.486,10.752v.372h0v7.706h0v24.178h8.637v-24.178h7.252v-7.706h-7.258v-.311c0-2.672,1.425-3.729,4.227-3.729Z" transform="translate(-1845.812 2054.149)" fill="#0a1f44"/>
      <path id="Path_21965" data-name="Path 21965" d="M1930.318-2030.528c0-9.26-6.09-16.222-16.164-16.222a16.278,16.278,0,0,0-16.837,15.7c-.011.319-.013.637-.006.956,0,9.447,6.588,16.574,16.781,16.574,7.075,0,11.985-2.923,15.093-7.571l-6.453-3.973a9.9,9.9,0,0,1-8.452,4.227,8.2,8.2,0,0,1-8.452-6.65h24.37C1930.2-2027.669,1930.318-2029.285,1930.318-2030.528Zm-24.2-3.273a7.832,7.832,0,0,1,7.956-5.779h.042a7.362,7.362,0,0,1,7.52,5.779Z" transform="translate(-1824.241 2057.244)" fill="#0a1f44"/>
    </g>
    <g id="Group_31" data-name="Group 31" transform="translate(0 -0.313)">
      <g id="Group_1" data-name="Group 1" transform="translate(699.502 1415.313)">
        <path id="Path_1" data-name="Path 1" d="M1813.4-2039.961l-6.17-6.17,5.978-5.976a13.516,13.516,0,0,1,19.1,0l5.978,5.976-6.17,6.17-5.978-5.978a4.783,4.783,0,0,0-6.755,0Z" transform="translate(-1807.225 2056.057)" fill="#7540ee"/>
      </g>
      <g id="Group_2" data-name="Group 2" transform="translate(729.731 1430.587)">
        <path id="Path_2" data-name="Path 2" d="M1831.013-2016.105l-6.17-6.17,5.976-5.976a4.783,4.783,0,0,0,0-6.757l-5.976-5.976,6.17-6.17,5.976,5.976a13.52,13.52,0,0,1,0,19.1Z" transform="translate(-1824.843 2047.155)" fill="#ffab00"/>
      </g>
      <g id="Group_3" data-name="Group 3" transform="translate(700.279 1460.037)">
        <path id="Path_3" data-name="Path 3" d="M1813.656-2017.843l-5.978-5.978,6.17-6.17,5.978,5.978a4.78,4.78,0,0,0,6.755,0l5.978-5.978,6.17,6.17-5.978,5.978A13.519,13.519,0,0,1,1813.656-2017.843Z" transform="translate(-1807.678 2029.991)" fill="#5b7fff"/>
      </g>
      <g id="Group_4" data-name="Group 4" transform="translate(685.005 1429.81)">
        <path id="Path_4" data-name="Path 4" d="M1808.7-2016.558l-5.976-5.976a13.52,13.52,0,0,1,0-19.1l5.976-5.976,6.17,6.17-5.976,5.976a4.783,4.783,0,0,0,0,6.757l5.976,5.976Z" transform="translate(-1798.777 2047.608)" fill="#36b37e"/>
      </g>
    </g>
  </g>
</svg>
