<svg xmlns="http://www.w3.org/2000/svg" viewBox="0 0 25 31.25" x="0px" y="0px"><g><path d="M17.5,3H7.5A2.5,2.5,0,0,0,5,5.5v14A2.5,2.5,0,0,0,7.5,22h10A2.5,2.5,0,0,0,20,19.5V5.5A2.5,2.5,0,0,0,17.5,3ZM19,19.5A1.5,1.5,0,0,1,17.5,21H7.5A1.5,1.5,0,0,1,6,19.5V5.5A1.5,1.5,0,0,1,7.5,4h10A1.5,1.5,0,0,1,19,5.5ZM17.5,5H7.5a.5.5,0,0,0-.5.5v4a.5.5,0,0,0,.5.5h10a.5.5,0,0,0,.5-.5v-4A.5.5,0,0,0,17.5,5ZM17,9H8V6h9Zm-5,3.5a.5.5,0,0,1-.5.5h-1a.5.5,0,0,1,0-1h1A.5.5,0,0,1,12,12.5Zm-3,0a.5.5,0,0,1-.5.5h-1a.5.5,0,0,1,0-1h1A.5.5,0,0,1,9,12.5Zm6,0a.5.5,0,0,1-.5.5h-1a.5.5,0,0,1,0-1h1A.5.5,0,0,1,15,12.5Zm3,0a.5.5,0,0,1-.5.5h-1a.5.5,0,0,1,0-1h1A.5.5,0,0,1,18,12.5Zm-6,2a.5.5,0,0,1-.5.5h-1a.5.5,0,0,1,0-1h1A.5.5,0,0,1,12,14.5Zm-3,0a.5.5,0,0,1-.5.5h-1a.5.5,0,0,1,0-1h1A.5.5,0,0,1,9,14.5Zm6,0a.5.5,0,0,1-.5.5h-1a.5.5,0,0,1,0-1h1A.5.5,0,0,1,15,14.5Zm3,0a.5.5,0,0,1-.5.5h-1a.5.5,0,0,1,0-1h1A.5.5,0,0,1,18,14.5Zm-6,2a.5.5,0,0,1-.5.5h-1a.5.5,0,0,1,0-1h1A.5.5,0,0,1,12,16.5Zm-3,0a.5.5,0,0,1-.5.5h-1a.5.5,0,0,1,0-1h1A.5.5,0,0,1,9,16.5Zm6,0a.5.5,0,0,1-.5.5h-1a.5.5,0,0,1,0-1h1A.5.5,0,0,1,15,16.5Zm3,0a.5.5,0,0,1-.5.5h-1a.5.5,0,0,1,0-1h1A.5.5,0,0,1,18,16.5Zm-6,2a.5.5,0,0,1-.5.5h-1a.5.5,0,0,1,0-1h1A.5.5,0,0,1,12,18.5Zm-3,0a.5.5,0,0,1-.5.5h-1a.5.5,0,0,1,0-1h1A.5.5,0,0,1,9,18.5Zm6,0a.5.5,0,0,1-.5.5h-1a.5.5,0,0,1,0-1h1A.5.5,0,0,1,15,18.5Zm3,0a.5.5,0,0,1-.5.5h-1a.5.5,0,0,1,0-1h1A.5.5,0,0,1,18,18.5Z"/></g><text x="0" y="40" fill="#000000" font-size="5px" font-weight="bold" font-family="'Helvetica Neue', Helvetica, Arial-Unicode, Arial, Sans-serif">Created by The Icon Z</text><text x="0" y="45" fill="#000000" font-size="5px" font-weight="bold" font-family="'Helvetica Neue', Helvetica, Arial-Unicode, Arial, Sans-serif">from the Noun Project</text></svg>