<svg width="25" height="26" xmlns="http://www.w3.org/2000/svg" xmlns:xlink="http://www.w3.org/1999/xlink" overflow="hidden"><defs><clipPath id="clip0"><rect x="696" y="162" width="25" height="26"/></clipPath><clipPath id="clip1"><rect x="697" y="163" width="23" height="24"/></clipPath><clipPath id="clip2"><rect x="697" y="163" width="23" height="24"/></clipPath><clipPath id="clip3"><rect x="697" y="163" width="23" height="29"/></clipPath></defs><g clip-path="url(#clip0)" transform="translate(-696 -162)"><g clip-path="url(#clip1)"><g clip-path="url(#clip2)"><g clip-path="url(#clip3)"><path d="M19.4656 4.35066 15.4676 4.35066C15.0103 2.04011 12.7665 0.537778 10.456 0.995101 8.76097 1.33059 7.43589 2.65566 7.10043 4.35066L3.10246 4.35066C2.8428 4.35067 2.63231 4.56117 2.6323 4.82082L2.6323 21.1842C2.63223 21.4438 2.84262 21.6543 3.10222 21.6543 3.1023 21.6543 3.10238 21.6543 3.10246 21.6543L19.4656 21.6543C19.7252 21.6544 19.9357 21.444 19.9358 21.1844 19.9358 21.1844 19.9358 21.1843 19.9358 21.1842L19.9358 4.82082C19.9357 4.56117 19.7252 4.35067 19.4656 4.35066ZM11.284 1.85427C12.7996 1.85697 14.122 2.88321 14.5008 4.35066L8.06728 4.35066C8.4461 2.88321 9.76849 1.85697 11.284 1.85427ZM18.9954 20.714 3.57263 20.714 3.57263 5.29099 7.0181 5.29099 7.0181 7.2316C7.0181 7.49123 7.2286 7.70177 7.48827 7.70177 7.7479 7.70177 7.95844 7.49123 7.95844 7.2316L7.95844 5.29099 14.6096 5.29099 14.6096 7.2316C14.6096 7.49123 14.8202 7.70177 15.0798 7.70177 15.3395 7.70177 15.55 7.49123 15.55 7.2316L15.55 5.29099 18.9954 5.29099Z" stroke="#00B5CC" stroke-width="0.68388" fill="#00B5CC" transform="matrix(1.01914 0 0 1 697 163)"/><text fill="#00B5CC" font-family="Arial,Arial_MSFontService,sans-serif" font-weight="700" font-size="5" transform="matrix(0.479167 0 0 0.470168 697 193)">Created by Fahmi Ramdani<tspan font-size="5" x="0" y="4.2538">from the Noun Project</tspan></text></g></g></g></g></svg>