<svg width="28" height="21" xmlns="http://www.w3.org/2000/svg" xmlns:xlink="http://www.w3.org/1999/xlink" overflow="hidden"><defs><clipPath id="clip0"><rect x="694" y="194" width="28" height="21"/></clipPath><clipPath id="clip1"><rect x="695" y="195" width="26" height="19"/></clipPath><clipPath id="clip2"><rect x="698" y="195" width="23" height="19"/></clipPath><clipPath id="clip3"><rect x="698" y="195" width="23" height="28"/></clipPath></defs><g clip-path="url(#clip0)" transform="translate(-694 -194)"><g clip-path="url(#clip1)"><g clip-path="url(#clip2)"><g clip-path="url(#clip3)"><path d="M20.8648 4.77803 1.39098 4.77803C1.19893 4.77803 1.04324 4.93372 1.04324 5.12577L1.04324 6.55849C1.04324 6.75054 1.19893 6.90623 1.39098 6.90623L1.71786 6.90623 1.71786 17.13C1.71786 17.322 1.87356 17.4777 2.06561 17.4777L3.47746 17.4777C3.66951 17.4777 3.8252 17.322 3.8252 17.13L3.8252 8.86056 11.4339 8.86056 11.4339 10.4672 11.4339 10.4672 11.4339 14.3689C11.4339 14.5609 11.5896 14.7166 11.7816 14.7166L18.4097 14.7166 18.4097 17.13C18.4097 17.322 18.5654 17.4777 18.7574 17.4777L20.1693 17.4777C20.3613 17.4777 20.517 17.322 20.517 17.13L20.517 6.90623 20.8648 6.90623C21.0568 6.90623 21.2125 6.75054 21.2125 6.55849L21.2125 5.12577C21.2125 4.93372 21.0568 4.77803 20.8648 4.77803ZM1.73873 5.47352 20.517 5.47352 20.517 6.21074 1.73873 6.21074ZM18.4305 10.1194 12.1711 10.1194 12.1711 6.90623 18.4305 6.90623ZM3.15058 16.7822 2.41336 16.7822 2.41336 6.90623 3.15058 6.90623ZM3.84607 8.16507 3.84607 6.90623 11.4339 6.90623 11.4339 8.16507ZM12.1294 14.0211 12.1294 10.8149 18.3888 10.8149 18.3888 14.0211ZM19.8424 16.8031 19.1052 16.8031 19.1052 10.4672 19.1052 10.4672 19.1052 6.90623 19.8424 6.90623ZM14.5149 8.51282C14.5149 8.32079 14.6706 8.16507 14.8627 8.16507L15.6764 8.16507C15.8684 8.16507 16.0241 8.32079 16.0241 8.51282 16.0241 8.70484 15.8684 8.86056 15.6764 8.86056L14.8627 8.86056C14.6706 8.86056 14.5149 8.70484 14.5149 8.51282ZM15.9963 12.4215C15.9926 12.612 15.8391 12.7655 15.6486 12.7692L14.8627 12.7692C14.6706 12.7692 14.5149 12.6135 14.5149 12.4215 14.5149 12.2295 14.6706 12.0737 14.8627 12.0737L15.6764 12.0737C15.8575 12.0883 15.9969 12.2398 15.9963 12.4215Z" stroke="#00B5CC" stroke-width="0.57066" fill="#00B5CC" transform="matrix(1.02728 0 0 1 698.137 195)"/><text fill="#00B5CC" font-family="Arial,Arial_MSFontService,sans-serif" font-weight="700" font-size="5" transform="matrix(0.714462 0 0 0.695492 698.137 228)">Created by The Icon Z<tspan font-size="5" x="0" y="4.31349">from the Noun Project</tspan></text></g></g></g></g></svg>