<svg width="40" height="26" xmlns="http://www.w3.org/2000/svg" xmlns:xlink="http://www.w3.org/1999/xlink" overflow="hidden"><defs><clipPath id="clip0"><rect x="691" y="246" width="40" height="26"/></clipPath><clipPath id="clip1"><rect x="692" y="247" width="39" height="24"/></clipPath><clipPath id="clip2"><rect x="692" y="247" width="39" height="24"/></clipPath><clipPath id="clip3"><rect x="692" y="238" width="39" height="50"/></clipPath></defs><g clip-path="url(#clip0)" transform="translate(-691 -246)"><g clip-path="url(#clip1)"><g clip-path="url(#clip2)"><g clip-path="url(#clip3)"><path d="M32.0266 18.8511 34.0536 17.8376 19.4592 10.5404 4.8648 17.8376 19.4592 25.1348 31.2158 19.2565 31.2158 24.7294 30.405 27.9726 31.2158 27.9726 31.6212 26.351 32.0266 27.9726 32.8374 27.9726 32.0266 24.7294 32.0266 18.8511ZM19.4592 24.2429 6.6891 17.8376 19.4592 11.4323 32.2293 17.8376 19.4592 24.2429Z" stroke="#00B5CC" stroke-width="0.665272" fill="#00B5CC" transform="matrix(1.0021 0 0 1 692 238.568)"/><path d="M27.5672 22.824 27.5672 25.7024C25.0537 26.9186 22.297 27.5672 19.4592 27.5672 16.6214 27.5672 13.8647 26.9186 11.3512 25.6618L11.3512 22.7835 19.4592 26.878 27.5672 22.824 27.5672 22.824ZM28.378 21.4862 19.4592 25.9861 10.5404 21.4862 10.5404 26.1888C13.216 27.5672 16.216 28.378 19.4592 28.378 22.7024 28.378 25.7024 27.5672 28.378 26.1888L28.378 21.4862 28.378 21.4862Z" stroke="#00B5CC" stroke-width="0.665272" fill="#00B5CC" transform="matrix(1.0021 0 0 1 692 238.568)"/><text fill="#00B5CC" font-family="Arial,Arial_MSFontService,sans-serif" font-weight="700" font-size="5" transform="matrix(0.40625 0 0 0.4054 692 284)">Created by Sae Sim<tspan font-size="5" x="0" y="4.9334">from the Noun Project</tspan></text></g></g></g></g></svg>