<svg width="33" height="31" xmlns="http://www.w3.org/2000/svg" xmlns:xlink="http://www.w3.org/1999/xlink" overflow="hidden"><defs><clipPath id="clip0"><rect x="701" y="270" width="33" height="31"/></clipPath><clipPath id="clip1"><rect x="702" y="270" width="32" height="31"/></clipPath><clipPath id="clip2"><rect x="702" y="270" width="32" height="31"/></clipPath><clipPath id="clip3"><rect x="702" y="270" width="32" height="41"/></clipPath></defs><g clip-path="url(#clip0)" transform="translate(-701 -270)"><g clip-path="url(#clip1)"><g clip-path="url(#clip2)"><g clip-path="url(#clip3)"><path d="M5.0835 20 2.875 20C2.38184 19.989 1.99051 19.5812 2 19.088L2 11 15.7085 11C15.9846 11 16.2085 10.7761 16.2085 10.5 16.2085 10.2239 15.9846 10 15.7085 10L2 10 2 8 23 8 23 10 19.375 10C19.0989 10 18.875 10.2239 18.875 10.5 18.875 10.7761 19.0989 11 19.375 11L23 11 23 12.9705C23 13.2466 23.2239 13.4705 23.5 13.4705 23.7761 13.4705 24 13.2466 24 12.9705L24 5.912C24.0089 4.86679 23.1702 4.01154 22.125 4L2.875 4C1.82969 4.01126 0.99084 4.86667 1 5.912L1 19.088C0.99084 20.1333 1.82969 20.9888 2.875 21L5.0835 21C5.35965 21 5.5835 20.7761 5.5835 20.5 5.5835 20.2239 5.35965 20 5.0835 20ZM2.875 5 22.125 5C22.6182 5.01095 23.0095 5.4188 23 5.912L23 7 2 7 2 5.912C1.99051 5.4188 2.38184 5.01095 2.875 5Z" fill="#00B5CC" transform="matrix(1 0 0 1.00649 702 270)"/><path d="M18.5 18C16.8431 18 15.5 19.3431 15.5 21 15.5 22.6569 16.8431 24 18.5 24 20.1569 24 21.5 22.6569 21.5 21 21.4984 19.3438 20.1562 18.0016 18.5 18ZM18.5 23C17.3955 23 16.5 22.1045 16.5 21 16.5 19.8955 17.3955 19 18.5 19 19.6045 19 20.5 19.8955 20.5 21 20.5 22.1045 19.6045 23 18.5 23Z" fill="#00B5CC" transform="matrix(1 0 0 1.00649 702 270)"/><path d="M28.5 17.6875C27.8549 17.6763 27.3405 17.1451 27.35 16.5 27.35 16.2239 27.1262 16 26.85 16L21.5 16C21.2239 16 21 16.2239 21 16.5 21 16.7761 21.2239 17 21.5 17L26.406 17C26.5886 17.7994 27.2046 18.4286 28 18.628L28 23.372C27.2046 23.5714 26.5886 24.2006 26.406 25L21.7405 25C21.4643 25 21.2405 25.2239 21.2405 25.5 21.2405 25.7761 21.4643 26 21.7405 26L26.85 26C27.1262 26 27.35 25.7761 27.35 25.5 27.3405 24.8549 27.8549 24.3237 28.5 24.3125 28.7761 24.3125 29 24.0886 29 23.8125L29 18.1875C29 17.9114 28.7761 17.6875 28.5 17.6875Z" fill="#00B5CC" transform="matrix(1 0 0 1.00649 702 270)"/><path d="M15.237 25 10.55 25C10.3784 24.2108 9.7802 23.5837 9 23.375L9 18.625C9.7802 18.4163 10.3784 17.7892 10.55 17L15.5 17C15.7761 17 16 16.7761 16 16.5 16 16.2239 15.7761 16 15.5 16L10.104 16C9.82785 16 9.604 16.2239 9.604 16.5 9.6251 17.132 9.1319 17.6625 8.5 17.6875 8.22385 17.6875 8 17.9114 8 18.1875L8 23.8125C8 24.0886 8.22385 24.3125 8.5 24.3125 9.1319 24.3375 9.6251 24.868 9.604 25.5 9.604 25.7761 9.82785 26 10.104 26L15.237 26C15.5132 26 15.737 25.7761 15.737 25.5 15.737 25.2239 15.5132 25 15.237 25Z" fill="#00B5CC" transform="matrix(1 0 0 1.00649 702 270)"/><path d="M29.6725 14 7.3275 14C6.5988 13.9966 6.00495 14.5838 6 15.3125L6 26.6875C6.00495 27.4161 6.5988 28.0033 7.3275 28L29.6725 28C30.4012 28.0033 30.9951 27.4161 31 26.6875L31 15.3125C30.9951 14.5838 30.4012 13.9966 29.6725 14ZM30 26.6875C29.9956 26.8641 29.8491 27.0039 29.6725 27L7.3275 27C7.15085 27.0039 7.00435 26.8641 7 26.6875L7 15.3125C7.00435 15.1358 7.15085 14.9961 7.3275 15L29.6725 15C29.8491 14.9961 29.9956 15.1358 30 15.3125Z" fill="#00B5CC" transform="matrix(1 0 0 1.00649 702 270)"/><text fill="#00B5CC" font-family="Arial,Arial_MSFontService,sans-serif" font-weight="700" font-size="5" transform="matrix(0.5 0 0 0.503247 702 310)">Created by Momento Design<tspan font-size="5" x="0" y="3.97419">from the Noun Project</tspan></text></g></g></g></g></svg>