<svg width="39" height="40" xmlns="http://www.w3.org/2000/svg" xmlns:xlink="http://www.w3.org/1999/xlink" overflow="hidden"><defs><clipPath id="clip0"><rect x="698" y="294" width="39" height="40"/></clipPath><clipPath id="clip1"><rect x="699" y="295" width="38" height="38"/></clipPath><clipPath id="clip2"><rect x="699" y="295" width="38" height="38"/></clipPath><clipPath id="clip3"><rect x="699" y="295" width="38" height="48"/></clipPath></defs><g clip-path="url(#clip0)" transform="translate(-698 -294)"><g clip-path="url(#clip1)"><g clip-path="url(#clip2)"><g clip-path="url(#clip3)"><path d="M7.56067 24.6537C7.63807 25.3852 7.31305 26.2692 7.99773 26.4258L10.3123 26.9539C10.4684 27.4505 10.6708 27.9362 10.917 28.4053 10.0338 30.0326 9.19748 30.581 9.73218 31.1153 11.812 33.0071 12.1311 33.9789 12.7955 33.5603L14.8038 32.2969C15.2658 32.5379 15.7534 32.7388 16.2601 32.8967L16.7882 35.2108C16.9618 35.9711 17.8503 35.5137 20.6864 35.6477 21.4437 35.6477 21.2395 34.6598 21.7576 32.8967 22.2515 32.7424 22.7383 32.5412 23.2115 32.2961 24.8567 33.1913 25.3852 34.0137 25.9177 33.4824L28.2899 31.1158C28.8255 30.5815 27.9862 30.0298 27.1045 28.4087 27.3483 27.9384 27.5506 27.4515 27.7086 26.9542 29.4767 26.4301 30.4562 26.6322 30.4562 25.8777L30.4562 24.6192C34.3788 24.0997 37.3817 20.7299 37.3817 16.715 37.3817 12.3135 33.8009 8.73266 29.3995 8.73266 28.8777 8.73266 28.3625 8.78376 27.8615 8.88449 26.6449 4.80242 22.9116 1.99863 18.5952 1.99863 14.3271 1.99863 10.6015 4.77443 9.35932 8.81147 8.99247 8.75902 8.62563 8.73266 8.26328 8.73266 3.86191 8.73266 0.281066 12.3135 0.281066 16.715 0.281066 20.849 3.49987 24.2948 7.56067 24.6537ZM29.332 25.4295C25.4997 26.4803 27.5663 25.3188 25.9644 28.1531 25.6846 28.6485 26.1902 28.9068 27.178 30.6371L25.4408 32.3699C23.7526 31.4063 23.4554 30.8738 22.9564 31.1559 22.3696 31.4872 21.7574 31.7397 21.1366 31.9063 20.5784 32.0562 20.7549 32.6225 20.2373 34.5235L17.7845 34.5235C16.7114 30.6085 17.9174 32.7965 15.0641 31.1578 14.5659 30.8716 14.2996 31.3871 12.5765 32.3697L10.8438 30.6371 12.0448 28.723C12.1551 28.547 12.1595 28.3247 12.056 28.1446 11.7246 27.5668 11.4709 26.9572 11.3018 26.3325 11.2474 26.1319 11.0869 25.9776 10.8842 25.9312L8.68493 25.4295C8.68493 25.3427 8.68493 22.9201 8.68493 22.9767 8.7412 22.964 11.3495 22.3747 11.2141 22.4053 11.8073 20.3711 12.0417 20.3679 12.2246 19.9616L10.8444 17.7729 12.577 16.036C12.6333 16.0715 14.8898 17.4907 14.7686 17.4144 17.1954 16.1943 16.6489 16.6306 17.208 16.4024L17.7843 13.8819 20.2372 13.8819 20.8089 16.4112C23.3498 17.2366 22.7043 17.1868 23.2483 17.4144 23.4354 17.2967 25.5731 15.9522 25.4403 16.0357L27.1779 17.7732 25.7992 19.9594C27.0223 22.394 26.5819 21.8424 26.8112 22.4058L29.332 22.9764C29.332 23.1615 29.332 25.5727 29.332 25.4295ZM8.26333 9.85692C8.71782 9.85692 9.18214 9.90577 9.64337 10.0027L10.203 10.0145 10.3095 9.58878C11.2613 5.78175 14.6684 3.1229 18.5952 3.1229 22.5776 3.1229 25.998 5.82295 26.913 9.68867L27.0481 10.2593 27.6125 10.1002C28.1852 9.93877 28.7865 9.85698 29.3995 9.85698 33.181 9.85698 36.2575 12.9336 36.2575 16.7151 36.2575 20.1148 33.7541 22.9825 30.4562 23.4916 30.4562 23.431 30.4562 21.9887 30.4562 22.0784L27.7086 21.4562C27.5498 20.9549 27.3475 20.4664 27.1046 19.997L28.6079 17.6134 25.6012 14.6063 25.2217 14.8449 25.2214 14.8451 23.2115 16.1093C22.7383 15.8642 22.2515 15.663 21.7576 15.5088L21.1358 12.7576C21.0771 12.7576 16.8054 12.7576 16.8881 12.7576L16.2597 15.506C15.7603 15.6652 15.2732 15.8672 14.8055 16.1096 14.749 16.074 12.7387 14.8094 12.7952 14.8449L12.4153 14.606 9.41486 17.6137 10.9165 19.9954C10.6706 20.4647 10.4681 20.9541 10.3116 21.4567 10.2299 21.4752 7.3497 22.1258 7.56067 22.0781 7.56067 22.1619 7.56067 23.6121 7.56067 23.5331 4.11773 23.1793 1.40533 20.2336 1.40533 16.715 1.40533 12.9336 4.48182 9.85692 8.26333 9.85692Z" fill="#00B5CC" transform="matrix(1.00895 0 0 1 699 295.07)"/><path d="M19.0098 17.5319C15.3321 17.5319 12.34 20.524 12.34 24.2017 12.34 27.8798 15.3321 30.8718 19.0098 30.8718 22.6876 30.8718 25.6796 27.8798 25.6796 24.2017 25.6796 20.524 22.6876 17.5319 19.0098 17.5319ZM19.0098 30.0286C15.7971 30.0286 13.1832 27.4148 13.1832 24.2017 13.1832 20.989 15.7971 18.3751 19.0098 18.3751 22.2226 18.3751 24.8364 20.989 24.8364 24.2017 24.8364 27.4148 22.2226 30.0286 19.0098 30.0286Z" fill="#00B5CC" transform="matrix(1.00895 0 0 1 699 295.07)"/><path d="M19.0098 22.0067C19.4988 22.0067 19.8965 22.4044 19.8965 22.8935 19.8965 23.1263 20.0852 23.3151 20.3181 23.3151 20.551 23.3151 20.7397 23.1263 20.7397 22.8935 20.7397 22.0859 20.181 21.4111 19.4314 21.2216L19.4314 20.7891C19.4314 20.5564 19.2427 20.3675 19.0098 20.3675 18.7769 20.3675 18.5882 20.5564 18.5882 20.7891L18.5882 21.2216C17.8386 21.4111 17.2799 22.0859 17.2799 22.8936 17.2799 23.8474 18.056 24.6233 19.0098 24.6233 19.4988 24.6233 19.8965 25.021 19.8965 25.5101 19.8965 25.999 19.4988 26.3967 19.0098 26.3967 18.5208 26.3967 18.1231 25.999 18.1231 25.5101 18.1231 25.2774 17.9344 25.0885 17.7015 25.0885 17.4686 25.0885 17.2799 25.2774 17.2799 25.5101 17.2799 26.3178 17.8386 26.9924 18.5882 27.1819L18.5882 27.6146C18.5882 27.8474 18.7769 28.0362 19.0098 28.0362 19.2427 28.0362 19.4314 27.8474 19.4314 27.6146L19.4314 27.1819C20.181 26.9924 20.7397 26.3178 20.7397 25.5101 20.7397 24.5564 19.9636 23.7801 19.0098 23.7801 18.5208 23.7801 18.1231 23.3824 18.1231 22.8936 18.1231 22.4044 18.5208 22.0067 19.0098 22.0067Z" fill="#00B5CC" transform="matrix(1.00895 0 0 1 699 295.07)"/><text fill="#00B5CC" font-family="Arial,Arial_MSFontService,sans-serif" font-weight="700" font-size="5" transform="matrix(0.567164 0 0 0.562132 699 341)">Created by Vectors Point<tspan font-size="5" x="0" y="5.33683">from the Noun Project</tspan></text></g></g></g></g></svg>