<svg width="34" height="34" xmlns="http://www.w3.org/2000/svg" xmlns:xlink="http://www.w3.org/1999/xlink" overflow="hidden"><defs><clipPath id="clip0"><rect x="698" y="333" width="34" height="34"/></clipPath><clipPath id="clip1"><rect x="699" y="333" width="32" height="33"/></clipPath><clipPath id="clip2"><rect x="699" y="333" width="32" height="33"/></clipPath><clipPath id="clip3"><rect x="699" y="333" width="32" height="41"/></clipPath></defs><g clip-path="url(#clip0)" transform="translate(-698 -333)"><g clip-path="url(#clip1)"><g clip-path="url(#clip2)"><g clip-path="url(#clip3)"><path d="M16.26 1.5C15.6379 1.49618 15.0164 1.53627 14.4 1.62 7.1654 2.54266 1.74926 8.70685 1.765 16 1.76445 23.2857 7.1702 29.4404 14.395 30.38 15.0131 30.4636 15.6363 30.5037 16.26 30.5 24.2682 30.5 30.76 24.0082 30.76 16 30.76 7.99185 24.2682 1.5 16.26 1.5ZM16.26 29.5C15.6798 29.504 15.1 29.4672 14.525 29.39 7.80405 28.5032 2.77689 22.7792 2.765 16 2.74404 9.20385 7.7926 3.45828 14.535 2.605 15.1068 2.52913 15.6833 2.49405 16.26 2.5 23.7159 2.5 29.76 8.54415 29.76 16 29.76 23.4559 23.7159 29.5 16.26 29.5Z" fill="#00B5CC" transform="matrix(1 0 0 1.01345 699 333)"/><path d="M24.705 12.435 19.83 12.435 19.83 7.56C19.83 7.28385 19.6061 7.06 19.33 7.06L13.19 7.06C12.9138 7.06 12.69 7.28385 12.69 7.56L12.69 12.435 7.835 12.435C7.55885 12.435 7.335 12.6588 7.335 12.935L7.335 19.06C7.335 19.3361 7.55885 19.56 7.835 19.56L12.69 19.56 12.69 24.435C12.69 24.7111 12.9138 24.935 13.19 24.935L19.33 24.935C19.6061 24.935 19.83 24.7111 19.83 24.435L19.83 19.56 24.705 19.56C24.9811 19.56 25.205 19.3361 25.205 19.06L25.205 12.935C25.205 12.6588 24.9811 12.435 24.705 12.435ZM24.205 18.56 19.33 18.56C19.0539 18.56 18.83 18.7838 18.83 19.06L18.83 23.935 13.69 23.935 13.69 19.06C13.69 18.7838 13.4662 18.56 13.19 18.56L8.335 18.56 8.335 13.435 13.19 13.435C13.4662 13.435 13.69 13.2112 13.69 12.935L13.69 8.06 18.83 8.06 18.83 12.935C18.83 13.2112 19.0539 13.435 19.33 13.435L24.205 13.435Z" fill="#00B5CC" transform="matrix(1 0 0 1.01345 699 333)"/><text fill="#00B5CC" font-family="Arial,Arial_MSFontService,sans-serif" font-weight="700" font-size="5" transform="matrix(0.5 0 0 0.506726 699 373)">Created by Ladalle CS<tspan font-size="5" x="0" y="5.92036">from the Noun Project</tspan></text></g></g></g></g></svg>