<svg width="34" height="36" xmlns="http://www.w3.org/2000/svg" xmlns:xlink="http://www.w3.org/1999/xlink" overflow="hidden"><defs><clipPath id="clip0"><rect x="697" y="369" width="34" height="36"/></clipPath><clipPath id="clip1"><rect x="697" y="370" width="34" height="35"/></clipPath><clipPath id="clip2"><rect x="697" y="370" width="34" height="35"/></clipPath><clipPath id="clip3"><rect x="697" y="370" width="34" height="42"/></clipPath></defs><g clip-path="url(#clip0)" transform="translate(-697 -369)"><g clip-path="url(#clip1)"><g clip-path="url(#clip2)"><g clip-path="url(#clip3)"><path d="M17.8259 3.18245 17.8259 2.09716C17.8259 1.51805 17.3564 1.04858 16.7773 1.04858 16.1982 1.04858 15.7287 1.51805 15.7287 2.09716L15.7287 3.18245C8.01856 3.6503 1.63097 9.33584 0.272631 16.9398 0.26743 17.0149 0.26743 17.0902 0.272631 17.1653 0.270432 17.299 0.291727 17.4322 0.335546 17.5585 0.532633 18.1027 1.13338 18.3843 1.67773 18.1877 4.32746 17.2396 7.20439 17.128 9.91959 17.8678 10.3405 17.9828 10.7552 18.1193 11.1622 18.2768L11.2723 18.3082 11.3352 18.3082 11.4453 18.3082 11.5344 18.3502 11.6078 18.3502 11.7441 18.3502 11.8385 18.324 11.9276 18.324C12.336 18.1658 12.7526 18.0293 13.1754 17.915 14.0086 17.6696 14.8638 17.5063 15.7287 17.4274L15.7287 29.3603C15.7287 29.9394 15.2593 30.4089 14.6802 30.4089 14.101 30.4089 13.6316 29.9394 13.6316 29.3603L13.6316 28.3117C13.6316 27.7326 13.1621 27.2631 12.583 27.2631 12.0039 27.2631 11.5344 27.7326 11.5344 28.3117L11.5344 29.3603C11.5344 31.0976 12.9428 32.5061 14.6802 32.5061 16.4175 32.5061 17.8259 31.0976 17.8259 29.3603L17.8259 17.4274C18.6929 17.4898 19.5516 17.6373 20.3897 17.8678 20.8125 17.9821 21.2291 18.1186 21.6375 18.2768 21.6849 18.2956 21.7341 18.3097 21.7843 18.3187L21.8105 18.3187 21.8105 18.3187C21.8789 18.3375 21.9493 18.348 22.0202 18.3502L22.0202 18.3502C22.1144 18.3495 22.2079 18.3354 22.2981 18.3082L22.34 18.3082 22.403 18.3082C22.8099 18.1508 23.2246 18.0143 23.6455 17.8993 26.3607 17.1595 29.2377 17.2711 31.8874 18.2191 32.4318 18.4158 33.0325 18.1342 33.2296 17.59 33.2734 17.4636 33.2947 17.3305 33.2925 17.1967 33.2977 17.1217 33.2977 17.0464 33.2925 16.9713 31.9462 9.35131 25.5499 3.64884 17.8259 3.18245ZM10.381 15.8231C7.87737 15.1656 5.25062 15.1332 2.73156 15.7287 4.23131 10.6514 8.36187 6.78365 13.5267 5.6204 11.8962 7.50261 10.1975 10.706 10.381 15.8231ZM21.0713 15.8808 20.9716 15.8441C18.2428 15.0997 15.3643 15.0997 12.6354 15.8441L12.5096 15.8808C12.2055 9.15937 15.5347 6.29149 16.7773 5.48933 18.0251 6.29149 21.3491 9.16461 21.0713 15.8808ZM30.2778 15.5767C30.1415 15.5505 29.9999 15.5347 29.8636 15.5138 29.6067 15.4666 29.3393 15.4246 29.0877 15.3932L28.6473 15.3565C28.3956 15.3565 28.123 15.3093 27.887 15.2988L27.4257 15.2988C27.1793 15.2988 26.9328 15.2988 26.6864 15.2988L26.2093 15.3303C25.9681 15.3303 25.727 15.3565 25.491 15.3879 25.2551 15.4194 25.1607 15.4351 24.993 15.4613 24.8252 15.4876 24.5316 15.519 24.3009 15.5662 24.0702 15.6134 23.9653 15.6448 23.7766 15.6815 23.5879 15.7182 23.3624 15.7654 23.1579 15.8231 23.3414 10.706 21.6427 7.50261 20.0122 5.6204 25.1831 6.77856 29.3206 10.6473 30.8231 15.7287 30.6448 15.6606 30.4613 15.6134 30.2778 15.5767Z" fill="#00B5CC" transform="matrix(1.01327 0 0 1 697 370)"/><text fill="#00B5CC" font-family="Arial,Arial_MSFontService,sans-serif" font-weight="700" font-size="5" transform="matrix(0.53125 0 0 0.524291 697 411)">Created by Dika Darma<tspan font-size="5" x="0" y="5.72201">from the Noun Project</tspan></text></g></g></g></g></svg>