<svg width="44" height="36" xmlns="http://www.w3.org/2000/svg" xmlns:xlink="http://www.w3.org/1999/xlink" overflow="hidden"><defs><clipPath id="clip0"><rect x="690" y="408" width="44" height="36"/></clipPath><clipPath id="clip1"><rect x="690" y="409" width="44" height="34"/></clipPath><clipPath id="clip2"><rect x="690" y="409" width="44" height="34"/></clipPath></defs><g clip-path="url(#clip0)" transform="translate(-690 -408)"><g clip-path="url(#clip1)"><g clip-path="url(#clip2)"><path d="M20.0386 14.4363 18.413 8.37266C22.0524 7.397 25.6959 6.42084 29.3353 5.44669L30.9599 11.5098 33.4161 10.8513C33.9205 12.7276 34.4228 14.6079 34.9256 16.4842L32.4695 17.1426 34.0936 23.2047C30.4536 24.1804 26.8121 25.1565 23.1727 26.1327L21.5481 20.0691 5.11096 24.4741C4.60662 22.5973 4.10428 20.7175 3.60144 18.8407L20.0386 14.4363ZM16.9049 35.6076 36.3236 35.6076C37.8536 35.6076 37.8536 33.285 36.3236 33.285 29.8502 33.285 23.3783 33.285 16.9049 33.285 15.3889 33.285 15.3889 35.6076 16.9049 35.6076ZM19.5807 28.3487 33.6513 28.3487C35.5225 28.3487 36.6973 30.364 35.8257 31.9781L36.3236 31.9781C39.5723 31.9781 39.5723 36.9145 36.3236 36.9145L16.9049 36.9145C13.7283 36.9145 13.6152 31.9781 16.9049 31.9781L17.4058 31.9781C16.5347 30.364 17.711 28.3487 19.5807 28.3487ZM33.6513 29.6556 19.5807 29.6556C18.0167 29.6556 18.0952 31.9781 19.5807 31.9781L33.6513 31.9781C35.2068 31.9781 35.1468 29.6556 33.6513 29.6556ZM20.3323 10.4841 28.7284 8.23357 28.4107 7.04677 20.0145 9.29729 20.3323 10.4841ZM29.0677 9.49643 20.6715 11.7449 23.4384 22.0809 31.8365 19.8324 29.0677 9.49643ZM24.0953 24.5306 32.4935 22.2816 32.1743 21.0933 23.7761 23.3433 24.0953 24.5306ZM20.3768 15.6986 5.20202 19.7654 6.03358 22.8735 21.2083 18.8067 20.3768 15.6986ZM32.4935 12.4514 31.2977 12.7721 32.1312 15.8802 33.325 15.5595 32.4935 12.4514Z" fill="#00B5CC" transform="matrix(1.03794 0 0 1 690.016 405.527)"/><text fill="#00B5CC" font-family="Arial,Arial_MSFontService,sans-serif" font-weight="700" font-size="5" transform="matrix(0.0519321 0 0 0.0500339 690.016 449)">Created by achmad<tspan font-size="5" x="0" y="0">from the Noun Project</tspan></text></g></g></g></svg>