<svg width="40" height="50" xmlns="http://www.w3.org/2000/svg" xmlns:xlink="http://www.w3.org/1999/xlink" overflow="hidden"><defs><clipPath id="clip0"><rect x="700" y="443" width="40" height="50"/></clipPath><clipPath id="clip1"><rect x="700" y="443" width="39" height="49"/></clipPath><clipPath id="clip2"><rect x="700" y="443" width="39" height="49"/></clipPath></defs><g clip-path="url(#clip0)" transform="translate(-700 -443)"><g clip-path="url(#clip1)"><g clip-path="url(#clip2)"><path d="M31.98 36.725C31.98 39.1661 30.0011 41.145 27.56 41.145 25.1189 41.145 23.14 39.1661 23.14 36.725 23.14 34.2839 25.1189 32.305 27.56 32.305 30.0011 32.305 31.98 34.2839 31.98 36.725Z" stroke="#00B5CC" stroke-width="1.14035" stroke-miterlimit="10" fill="none" transform="matrix(1 0 0 1.00061 684.834 435.818)"/><path d="M37.83 39.195 35.75 37.96C35.815 37.57 35.88 37.18 35.88 36.725 35.88 35.815 35.75 34.905 35.425 34.125L37.31 32.695C37.635 32.435 37.7 31.98 37.44 31.655L35.035 28.47C34.775 28.145 34.32 28.08 33.995 28.34L32.045 29.835C31.46 29.445 30.875 29.185 30.225 28.99L30.225 26.65C30.225 26.26 29.9 25.87 29.445 25.87L25.48 25.87C25.09 25.87 24.7 26.195 24.7 26.65L24.7 28.99C23.92 29.25 23.27 29.64 22.62 30.095L20.475 28.73C20.15 28.535 19.63 28.6 19.435 28.925L17.29 32.24C17.095 32.565 17.16 33.085 17.485 33.28L19.5 34.58C19.305 35.23 19.24 35.945 19.24 36.66 19.24 37.18 19.305 37.635 19.37 38.09L17.225 39.65C16.9 39.91 16.77 40.365 17.03 40.69L19.24 44.005C19.5 44.33 19.955 44.46 20.28 44.2L22.1 42.965C22.815 43.615 23.595 44.07 24.505 44.46L24.505 46.8C24.505 47.19 24.83 47.58 25.285 47.58L29.25 47.58C29.64 47.58 30.03 47.255 30.03 46.8L30.03 44.59C31.2 44.2 32.24 43.615 33.15 42.77L35.035 43.875C35.425 44.07 35.88 43.94 36.075 43.615L38.09 40.17C38.285 39.845 38.155 39.39 37.83 39.195ZM27.56 42.38C24.44 42.38 21.97 39.845 21.97 36.79 21.97 33.735 24.505 31.2 27.56 31.2 30.615 31.2 33.15 33.735 33.15 36.79 33.15 39.845 30.68 42.38 27.56 42.38Z" stroke="#00B5CC" stroke-width="1.14035" stroke-miterlimit="10" fill="none" transform="matrix(1 0 0 1.00061 684.834 435.818)"/><path d="M51.22 35.62C49.985 33.8 47.775 33.085 45.63 33.67L35.945 20.215C37.18 18.395 37.18 16.055 35.88 14.3 35.035 13.195 33.735 12.545 32.435 12.48 32.045 12.48 31.85 12.935 32.175 13.26 32.955 14.3 32.955 15.665 32.175 16.315L30.42 17.68C29.575 18.33 28.275 18.005 27.495 16.965L27.495 16.965C27.235 16.575 26.715 16.64 26.65 17.03 26.455 18.33 26.715 19.76 27.56 20.865 28.795 22.49 30.94 23.075 32.955 22.49L42.64 35.945C41.47 37.635 41.34 39.845 42.51 41.535 43.29 42.705 44.525 43.42 45.825 43.615 46.215 43.68 46.41 43.225 46.15 42.835 45.435 41.73 45.5 40.365 46.41 39.78L48.23 38.545C49.075 37.96 50.375 38.415 51.09 39.52 51.35 39.91 51.87 39.91 51.935 39.52 52.195 38.155 52 36.79 51.22 35.62Z" stroke="#00B5CC" stroke-width="1.14035" stroke-miterlimit="10" fill="none" transform="matrix(1 0 0 1.00061 684.834 435.818)"/></g></g></g></svg>