<svg width="41" height="37" xmlns="http://www.w3.org/2000/svg" xmlns:xlink="http://www.w3.org/1999/xlink" overflow="hidden"><defs><clipPath id="clip0"><rect x="695" y="486" width="41" height="37"/></clipPath><clipPath id="clip1"><rect x="696" y="486" width="39" height="36"/></clipPath><clipPath id="clip2"><rect x="696" y="486" width="39" height="36"/></clipPath><clipPath id="clip3"><rect x="696" y="486" width="39" height="50"/></clipPath></defs><g clip-path="url(#clip0)" transform="translate(-695 -486)"><g clip-path="url(#clip1)"><g clip-path="url(#clip2)"><g clip-path="url(#clip3)"><path d="M9.44531 28.3397C9.22822 28.3397 9.01113 28.294 8.80547 28.2026 8.42461 28.0313 8.13516 27.7228 7.98662 27.3343L5.06543 19.6333C4.91689 19.2448 4.93213 18.8221 5.09971 18.4412 5.27109 18.0604 5.57959 17.7709 5.96807 17.6224L16.0951 13.7795 20.1246 24.394 10.0014 28.2369C9.82236 28.3055 9.63574 28.3397 9.44531 28.3397ZM15.4362 15.2572 6.37939 18.6964C6.27656 18.7345 6.19277 18.8145 6.14707 18.9135 6.10137 19.0163 6.09756 19.1268 6.13564 19.2334L9.05684 26.9344C9.09492 27.0372 9.1749 27.121 9.27393 27.1667 9.37676 27.2124 9.48721 27.2162 9.59385 27.1781L18.6507 23.739 15.4362 15.2572Z" fill="#00B5CC" transform="matrix(1 0 0 1.00954 696 486)"/><path d="M5.70527 27.936C4.88262 27.936 4.10566 27.4333 3.79717 26.6183L2.40703 22.9506C2.00713 21.8994 2.54033 20.7188 3.5915 20.3188L6.18516 19.3362 9.02637 26.8163 6.4251 27.8027C6.18896 27.8941 5.94522 27.936 5.70527 27.936ZM5.51484 20.8102 3.99141 21.3891C3.53057 21.5643 3.29443 22.0822 3.46963 22.5469L4.85977 26.2146C5.03496 26.6754 5.55293 26.9115 6.01758 26.7363L7.54102 26.1574 5.51484 20.8102Z" fill="#00B5CC" transform="matrix(1 0 0 1.00954 696 486)"/><path d="M31.8894 26.8201C31.836 26.8201 31.7827 26.8163 31.7294 26.8049L31.7294 26.8049 18.9744 24.5692 15.1163 14.4155 23.1753 4.28086C23.3848 4.01807 23.7199 3.88477 24.0551 3.93809 24.3864 3.99141 24.6683 4.21611 24.7863 4.53223L32.7615 25.5519C32.8796 25.868 32.8225 26.2222 32.6092 26.4812 32.434 26.6982 32.1636 26.8201 31.8894 26.8201ZM19.8085 23.5562 31.5694 25.6166 23.8494 5.2749 16.4188 14.6212 19.8085 23.5562Z" fill="#00B5CC" transform="matrix(1 0 0 1.00954 696 486)"/><path d="M14.6783 35.0733C14.3965 35.0733 14.1261 34.9172 13.9928 34.6506L10.089 26.9839 16.5141 24.5464 17.2758 26.5497C17.5576 27.2962 17.4472 28.1265 16.9787 28.7739L16.5902 29.3109 18.4146 32.7882C18.5174 32.9824 18.5326 33.2147 18.4526 33.4204 18.3727 33.6261 18.2127 33.7898 18.0032 33.8698L14.9525 35.0276C14.8649 35.0581 14.7697 35.0733 14.6783 35.0733ZM11.6848 27.5971 14.8573 33.8355 17.2072 32.9443 15.2458 29.2119 16.0532 28.0998C16.297 27.7685 16.3541 27.3381 16.2056 26.9534L15.8514 26.0203 11.6848 27.5971Z" fill="#00B5CC" transform="matrix(1 0 0 1.00954 696 486)"/><path d="M33.3482 11.3092 34.4921 11.3092 34.4921 14.9278 33.3482 14.9278Z" fill="#00B5CC" transform="matrix(0.354393 0.942742 -0.933829 0.357776 730.112 462.556)"/><path d="M29.8278 5.71994 30.9757 5.71994 30.9757 9.35468 29.8278 9.35468Z" fill="#00B5CC" transform="matrix(0.718508 0.695519 -0.688943 0.725366 709.612 466.963)"/><path d="M33.0827 19.1275 36.6972 19.1275 36.6972 20.2701 33.0827 20.2701Z" fill="#00B5CC" transform="matrix(0.996661 0.0816504 -0.0808784 1.00617 697.707 483.216)"/><path d="M11.0271 16.2852 12.171 16.2852 12.171 22.2753 11.0271 22.2753Z" fill="#00B5CC" transform="matrix(0.354393 0.942742 -0.933829 0.357776 721.481 487.609)"/><text fill="#00B5CC" font-family="Arial,Arial_MSFontService,sans-serif" font-weight="700" font-size="5" transform="matrix(0.0380859 0 0 0.0384494 696 526)">Created by IconPai<tspan font-size="5" x="0" y="0">from the Noun Project</tspan></text></g></g></g></g></svg>