<svg width="26" height="27" xmlns="http://www.w3.org/2000/svg" xmlns:xlink="http://www.w3.org/1999/xlink" overflow="hidden"><defs><clipPath id="clip0"><rect x="699" y="527" width="26" height="27"/></clipPath></defs><g clip-path="url(#clip0)" transform="translate(-699 -527)"><path d="M2.94854 24.6303 23.0512 24.6303C23.8951 24.6303 24.5818 23.9434 24.5818 23.0995L24.5818 9.32714C24.5818 8.48323 23.8951 7.79631 23.0512 7.79631L13.5706 7.79631 19.5942 1.77319C19.6865 1.68086 19.6865 1.53129 19.5942 1.43896 19.5018 1.34663 19.3523 1.34663 19.2599 1.43896L13 7.69846 10.7007 5.39944C10.6084 5.30712 10.4589 5.30712 10.3665 5.39944 10.2742 5.49177 10.2742 5.64134 10.3665 5.73366L12.4294 7.79631 2.94854 7.79631C2.10465 7.79631 1.41818 8.48323 1.41818 9.32714L1.41818 23.0995C1.41818 23.9434 2.10465 24.6303 2.94854 24.6303ZM1.89091 9.32714C1.89091 8.74361 2.36525 8.26904 2.94854 8.26904L23.0512 8.26904C23.6345 8.26904 24.1091 8.74361 24.1091 9.32714L24.1091 23.0995C24.1091 23.683 23.6345 24.1575 23.0512 24.1575L2.94854 24.1575C2.36525 24.1575 1.89091 23.683 1.89091 23.0995L1.89091 9.32714Z" stroke="#00B5CC" stroke-width="0.693333" fill="#00B5CC" transform="matrix(1 0 0 1.00378 699 527.059)"/><path d="M3.43881 22.8022 17.9752 22.8022C18.1058 22.8022 18.2115 22.6964 18.2115 22.5658L18.2115 9.86128C18.2115 9.73062 18.1058 9.62492 17.9752 9.62492L3.43881 9.62492C3.30817 9.62492 3.20245 9.73062 3.20245 9.86128L3.20245 22.5658C3.20245 22.6964 3.30817 22.8022 3.43881 22.8022ZM3.67518 10.0976 17.7388 10.0976 17.7388 22.3295 3.67518 22.3295 3.67518 10.0976Z" stroke="#00B5CC" stroke-width="0.693333" fill="#00B5CC" transform="matrix(1 0 0 1.00378 699 527.059)"/><path d="M19.9489 10.0976 22.0762 10.0976C22.2069 10.0976 22.3126 9.99189 22.3126 9.86128 22.3126 9.73062 22.2069 9.62492 22.0762 9.62492L19.9489 9.62492C19.8183 9.62492 19.7126 9.73062 19.7126 9.86128 19.7126 9.99189 19.8183 10.0976 19.9489 10.0976Z" stroke="#00B5CC" stroke-width="0.693333" fill="#00B5CC" transform="matrix(1 0 0 1.00378 699 527.059)"/><path d="M19.9489 13.2738 22.0762 13.2738C22.2069 13.2738 22.3126 13.1681 22.3126 13.0374 22.3126 12.9067 22.2069 12.801 22.0762 12.801L19.9489 12.801C19.8183 12.801 19.7126 12.9067 19.7126 13.0374 19.7126 13.1681 19.8183 13.2738 19.9489 13.2738Z" stroke="#00B5CC" stroke-width="0.693333" fill="#00B5CC" transform="matrix(1 0 0 1.00378 699 527.059)"/><path d="M19.9489 16.4499 22.0762 16.4499C22.2069 16.4499 22.3126 16.3442 22.3126 16.2136 22.3126 16.0829 22.2069 15.9772 22.0762 15.9772L19.9489 15.9772C19.8183 15.9772 19.7126 16.0829 19.7126 16.2136 19.7126 16.3442 19.8183 16.4499 19.9489 16.4499Z" stroke="#00B5CC" stroke-width="0.693333" fill="#00B5CC" transform="matrix(1 0 0 1.00378 699 527.059)"/><path d="M21.0126 22.9901C21.9636 22.9901 22.7373 22.2163 22.7373 21.2654 22.7373 20.6915 22.4532 20.1569 21.9772 19.8352 21.8687 19.7613 21.7221 19.7904 21.649 19.8984 21.5758 20.0064 21.6042 20.1537 21.7122 20.2266 22.0582 20.4607 22.2646 20.8489 22.2646 21.2654 22.2646 21.9555 21.703 22.5173 21.0126 22.5173 20.3222 22.5173 19.7604 21.9555 19.7604 21.2654 19.7604 20.8563 19.961 20.4722 20.297 20.2377 20.4041 20.1629 20.4302 20.0157 20.3557 19.9086 20.2809 19.8015 20.1334 19.7756 20.0265 19.8499 19.564 20.1731 19.2877 20.7021 19.2877 21.2654 19.2877 22.2163 20.0614 22.9901 21.0126 22.9901Z" stroke="#00B5CC" stroke-width="0.693333" fill="#00B5CC" transform="matrix(1 0 0 1.00378 699 527.059)"/><path d="M20.7762 18.8463 20.7762 20.7603C20.7762 20.891 20.8819 20.9967 21.0126 20.9967 21.1432 20.9967 21.2489 20.891 21.2489 20.7603L21.2489 18.8463C21.2489 18.7157 21.1432 18.6099 21.0126 18.6099 20.8819 18.6099 20.7762 18.7157 20.7762 18.8463Z" stroke="#00B5CC" stroke-width="0.693333" fill="#00B5CC" transform="matrix(1 0 0 1.00378 699 527.059)"/><text fill="#00B5CC" font-family="Arial,Arial_MSFontService,sans-serif" font-weight="700" font-size="5" transform="matrix(0.472727 0 0 0.474515 699 560)">Created by DinosoftLab<tspan font-size="5" x="0" y="6.32224">from the Noun Project</tspan></text></g></svg>