<svg width="28" height="25" xmlns="http://www.w3.org/2000/svg" xmlns:xlink="http://www.w3.org/1999/xlink" overflow="hidden"><defs><clipPath id="clip0"><rect x="700" y="556" width="28" height="25"/></clipPath><clipPath id="clip1"><rect x="701" y="556" width="26" height="24"/></clipPath><clipPath id="clip2"><rect x="701" y="556" width="26" height="24"/></clipPath><clipPath id="clip3"><rect x="701" y="556" width="26" height="33"/></clipPath></defs><g clip-path="url(#clip0)" transform="translate(-700 -556)"><g clip-path="url(#clip1)"><g clip-path="url(#clip2)"><g clip-path="url(#clip3)"><path d="M22.2979 10.8973C22.4135 10.9804 22.5744 10.9549 22.6586 10.8402L24.7343 7.98616C24.8189 7.87052 24.7937 7.70818 24.6781 7.62357 24.6778 7.62333 24.6775 7.62313 24.6772 7.62292L18.131 2.82292C18.0154 2.73831 17.853 2.76348 17.7684 2.87912 17.7682 2.8794 17.768 2.87971 17.7678 2.88L15.6921 5.73405C15.609 5.84959 15.6345 6.01048 15.7492 6.0947L16.416 6.57989 15.9204 7.16108C15.3942 7.07336 14.8575 7.06897 14.3299 7.14811L14.1483 7.17405 14.1354 7.17405C13.358 7.31126 12.627 7.63934 12.0078 8.12887L10.7805 8.12887 9.7427 7.81751 9.31978 7.37124 9.99697 6.7667C10.0491 6.72117 10.0808 6.65672 10.0852 6.58768 10.0884 6.51892 10.0641 6.45172 10.0177 6.40087L7.65665 3.76216C7.56127 3.6556 7.39763 3.64631 7.29081 3.74141L1.23762 9.14335C1.18552 9.18889 1.15376 9.25334 1.14941 9.32238 1.14552 9.39202 1.16984 9.46028 1.21686 9.51178L3.57535 12.1531C3.62442 12.2074 3.69413 12.2385 3.76735 12.2387 3.83131 12.2392 3.89322 12.2162 3.94119 12.1738L4.63913 11.5511 4.70659 11.6316 4.70659 11.9429C4.74889 13.4108 5.3266 14.8126 6.33081 15.8841L5.92605 16.2889C5.39842 16.7903 5.37719 17.6246 5.87868 18.1523 6.18492 18.4745 6.63295 18.6206 7.07027 18.541 7.05896 18.6087 7.05289 18.6773 7.05211 18.7459 7.05068 19.4796 7.64427 20.0755 8.37795 20.077 8.37968 20.077 8.3814 20.077 8.38314 20.077 8.45181 20.0762 8.52036 20.0701 8.58811 20.0588 8.57607 20.1256 8.56912 20.1933 8.56735 20.2612 8.56592 20.9949 9.15952 21.5908 9.89319 21.5922 9.89493 21.5922 9.89664 21.5922 9.89838 21.5922 9.96706 21.5914 10.0356 21.5854 10.1034 21.5741 10.026 21.9944 10.1654 22.4255 10.4744 22.7209 10.994 23.2398 11.8358 23.2398 12.3555 22.7209L12.973 22.1215 13.1209 22.259C13.3689 22.498 13.7001 22.631 14.0445 22.6301L14.1172 22.6301C14.4795 22.6057 14.8161 22.4342 15.0486 22.1552 15.2975 21.8632 15.3937 21.4707 15.3081 21.0966 16.0552 21.1336 16.6908 20.558 16.7278 19.8109 16.7308 19.7509 16.7298 19.6906 16.7248 19.6307 16.7221 19.588 16.7169 19.5456 16.7092 19.5036 17.1092 19.5527 17.5073 19.3989 17.7704 19.0936 17.9894 18.8455 18.0956 18.5175 18.0636 18.1881 18.0583 18.1251 18.0478 18.0626 18.0324 18.0013 18.7901 18.0263 19.4245 17.4324 19.4495 16.6748 19.4625 16.282 19.3065 15.9025 19.021 15.6324L19.1922 15.4534C20.3046 14.2898 20.9054 12.7296 20.8605 11.1204L20.8605 10.8091 21.3276 10.176ZM16.2551 5.83784 18.035 3.39373 24.1738 7.86941 22.3939 10.3109ZM3.80108 11.6134 1.7747 9.3587 7.44389 4.30184 9.4573 6.55654ZM6.31265 17.8041C5.99632 17.4863 5.99632 16.9725 6.31265 16.6547L7.26486 15.6895C7.58226 15.3721 8.09687 15.3721 8.41427 15.6895 8.73167 16.0069 8.73167 16.5215 8.41427 16.8389L7.44908 17.8041C7.13124 18.1204 6.61751 18.1204 6.29968 17.8041ZM7.82789 19.3194C7.51327 19.0018 7.51327 18.4901 7.82789 18.1725L8.79308 17.2074C9.11048 16.89 9.62509 16.89 9.94249 17.2074 10.2599 17.5247 10.2599 18.0394 9.94249 18.3568L8.9773 19.3194C8.65502 19.6372 8.13719 19.6372 7.81492 19.3194ZM9.34054 20.8372C9.02314 20.5203 9.02273 20.0061 9.33963 19.6887 9.33994 19.6884 9.34023 19.6881 9.34054 19.6878L10.3057 18.7226C10.6316 18.4144 11.1456 18.4288 11.4538 18.7547 11.593 18.902 11.6722 19.096 11.6757 19.2986 11.6767 19.5141 11.5906 19.7209 11.437 19.872L10.4822 20.8372C10.1652 21.1484 9.65747 21.1484 9.34054 20.8372ZM12.973 21.3872 12.0078 22.3524C11.6861 22.6592 11.1801 22.6592 10.8584 22.3524 10.541 22.0355 10.5406 21.5213 10.8575 21.2039 10.8578 21.2036 10.8581 21.2033 10.8584 21.203L11.8132 20.2378C12.1306 19.9176 12.6475 19.9153 12.9678 20.2327 13.2881 20.55 13.2904 21.067 12.973 21.3872ZM18.7382 17.1762C18.4405 17.5264 17.9194 17.5791 17.5576 17.2956L16.3226 16.3018 16.3226 16.3018C16.216 16.206 16.052 16.2147 15.9562 16.3213 15.8604 16.4279 15.8691 16.5919 15.9756 16.6877 15.9821 16.6935 15.9887 16.6989 15.9957 16.704L17.2229 17.6951 17.2229 17.6951 17.2878 17.747C17.5908 17.983 17.6452 18.4199 17.4093 18.7229 17.4011 18.7334 17.3926 18.7437 17.3838 18.7537 17.1406 19.0338 16.7205 19.0737 16.429 18.8445L16.2214 18.6811 16.2214 18.6811 15.1836 17.8638C15.071 17.7761 14.9087 17.7958 14.8203 17.9079 14.7314 18.0202 14.7503 18.1834 14.8627 18.2724 14.8633 18.2728 14.8639 18.2733 14.8644 18.2737L15.9023 19.091C16.0851 19.2334 16.1991 19.4464 16.2162 19.6774 16.2537 20.1358 15.9124 20.5379 15.454 20.5753 15.2299 20.5937 15.0079 20.5206 14.8385 20.3728L13.8655 19.5269 13.8655 19.5269C13.7602 19.4297 13.5961 19.4363 13.4989 19.5416 13.4017 19.6469 13.4082 19.811 13.5135 19.9082 13.5174 19.9118 13.5215 19.9153 13.5256 19.9187L14.5972 20.8528C14.8839 21.1021 14.9174 21.5353 14.6724 21.8257 14.5278 22.0009 14.3156 22.1065 14.0886 22.1163 13.8612 22.1298 13.6384 22.048 13.4737 21.8906L13.3388 21.7609C13.8612 21.2457 13.8669 20.4046 13.3517 19.8822 13.05 19.5763 12.6189 19.4352 12.1946 19.5036 12.2066 19.4358 12.2136 19.3674 12.2154 19.2986 12.2171 18.9452 12.0769 18.6058 11.8262 18.3568 11.525 18.0572 11.0989 17.9193 10.6794 17.9857 10.798 17.2675 10.3119 16.5891 9.59372 16.4705 9.45149 16.447 9.30634 16.447 9.16411 16.4705 9.28081 15.7462 8.78825 15.0643 8.06392 14.9476 7.64095 14.8795 7.21111 15.0195 6.90941 15.3237L6.72 15.5131C5.80668 14.5403 5.27829 13.2687 5.2333 11.9351L5.2333 11.5382C5.23164 11.4802 5.21065 11.4245 5.17362 11.3799L5.03611 11.2138 8.93059 7.72151 9.41059 8.22746C9.44222 8.25994 9.48148 8.28402 9.52476 8.29751L10.669 8.64C10.6931 8.64252 10.7175 8.64252 10.7416 8.64L11.4499 8.64C11.3888 8.70668 11.3317 8.77684 11.2787 8.85016L9.54551 10.9258C9.0068 11.5756 9.09678 12.539 9.74649 13.0777 10.3138 13.5481 11.136 13.5466 11.7016 13.0742L13.4141 11.6212 18.6318 15.9671C18.9947 16.268 19.045 16.8062 18.7441 17.1691 18.7422 17.1715 18.7402 17.1739 18.7382 17.1762ZM20.3909 10.573C20.3573 10.6199 20.3392 10.6761 20.339 10.7338L20.339 11.1334C20.3815 12.6051 19.8319 14.0322 18.8134 15.0954L18.624 15.2925 13.7332 11.2086C13.7306 11.1537 13.7106 11.101 13.6761 11.0582 13.5838 10.9485 13.4201 10.9345 13.3105 11.0268 13.3104 11.0269 13.3103 11.0269 13.3103 11.027L11.3643 12.6746C10.942 13.0362 10.3065 12.9871 9.94487 12.5647 9.62304 12.1889 9.62203 11.6349 9.94249 11.2579L11.6886 9.18227C11.7457 9.10184 13.139 7.20519 15.9723 7.70595 15.9723 7.70595 15.9723 7.70595 15.9879 7.70595 16.012 7.70854 16.0364 7.70854 16.0605 7.70595L16.0839 7.70595C16.1128 7.69925 16.1402 7.6869 16.1643 7.66962L16.1773 7.66962C16.1921 7.65961 16.2052 7.64736 16.2162 7.6333L16.8259 6.91459 20.9072 9.85946Z" stroke="#00B5CC" stroke-width="0.665281" fill="#00B5CC" transform="matrix(1.00208 0 0 1 701 556)"/><text fill="#00B5CC" font-family="Arial,Arial_MSFontService,sans-serif" font-weight="700" font-size="5" transform="matrix(0.26 0 0 0.259459 701 586)">Created by Soremba<tspan font-size="5" x="0" y="3.85417">from the Noun Project</tspan></text></g></g></g></g></svg>