<svg width="52" height="28" xmlns="http://www.w3.org/2000/svg" xmlns:xlink="http://www.w3.org/1999/xlink" overflow="hidden"><defs><clipPath id="clip0"><rect x="695" y="583" width="52" height="28"/></clipPath><clipPath id="clip1"><rect x="696" y="584" width="50" height="26"/></clipPath><clipPath id="clip2"><rect x="696" y="584" width="50" height="26"/></clipPath><clipPath id="clip3"><rect x="696" y="573" width="50" height="63"/></clipPath></defs><g clip-path="url(#clip0)" transform="translate(-695 -583)"><g clip-path="url(#clip1)"><g clip-path="url(#clip2)"><g clip-path="url(#clip3)"><path d="M13.6663 13.9242 2.48027 23.3145 3.3434 24.3413 6.19074 21.9503 6.19074 30.8297C6.19074 31.2023 6.49278 31.5043 6.86537 31.5043L14.3459 31.5043 14.3459 30.16 7.53505 30.16 7.53505 20.8342 14.0879 15.3231 19.2667 19.8421 11.057 26.7571 11.9053 27.779 15.7993 24.5001 15.7993 35.1602C15.7993 35.5301 16.0991 35.8299 16.4689 35.8299 16.4706 35.8299 16.4723 35.8299 16.4739 35.8299L16.4739 35.8299 33.806 35.8299C34.1775 35.8272 34.4779 35.5267 34.4806 35.1553L34.4806 24.8225 37.8538 27.7542 38.7368 26.7621 30.6164 19.6536 35.8845 15.3181 41.8669 20.5168 41.8669 30.16 36.1424 30.16 36.1424 31.5043 42.5365 31.5043C42.9091 31.5043 43.2112 31.2023 43.2112 30.8297L43.2112 21.6874 46.2421 24.3066 47.125 23.3145 36.3359 13.9292C36.0849 13.7183 35.7187 13.7183 35.4678 13.9292L29.5896 18.7607 25.5815 15.2884C25.3304 15.0726 24.9594 15.0726 24.7084 15.2884L20.3084 18.9889 14.5393 13.9292C14.2895 13.712 13.9185 13.7099 13.6663 13.9242ZM25.135 16.6723 33.1463 23.6171 33.1463 34.4509 23.379 34.4509 23.379 29.6937C23.379 28.7129 24.1741 27.9179 25.1549 27.9179L25.1549 27.9179C26.1329 27.9151 26.928 28.7058 26.9307 29.6838 26.9307 29.6855 26.9307 29.6871 26.9307 29.6888L26.9307 32.8288 28.275 32.8288 28.275 29.7235C28.2723 28.0022 26.8761 26.6083 25.1549 26.6083L25.1549 26.6083C23.4316 26.611 22.0369 28.0102 22.0396 29.7334L22.0396 34.4856 17.1634 34.4856 17.1634 23.3691Z" fill="#00B5CC" transform="matrix(1.00796 0 0 1 696 573.278)"/><text fill="#00B5CC" font-family="Arial,Arial_MSFontService,sans-serif" font-weight="700" font-size="5" transform="matrix(0.5 0 0 0.496053 696 630)">Created by Nubaia Karim Barsha<tspan font-size="5" x="0" y="6.04774">from the Noun Project</tspan></text></g></g></g></g></svg>