<svg width="34" height="31" xmlns="http://www.w3.org/2000/svg" xmlns:xlink="http://www.w3.org/1999/xlink" overflow="hidden"><defs><clipPath id="clip0"><rect x="702" y="617" width="34" height="31"/></clipPath><clipPath id="clip1"><rect x="703" y="617" width="32" height="30"/></clipPath><clipPath id="clip2"><rect x="703" y="617" width="32" height="30"/></clipPath><clipPath id="clip3"><rect x="703" y="617" width="32" height="41"/></clipPath></defs><g clip-path="url(#clip0)" transform="translate(-702 -617)"><g clip-path="url(#clip1)"><g clip-path="url(#clip2)"><g clip-path="url(#clip3)"><path d="M28.0832 7.9136C28.068 7.76685 27.9579 7.64766 27.8128 7.6208L25.6288 7.2 26.4848 5.1472C26.5416 5.01126 26.5019 4.85411 26.3872 4.7616L24.6704 3.36C24.5565 3.26589 24.3939 3.2587 24.272 3.3424L22.4336 4.5936 21.5872 2.536C21.5307 2.39966 21.3917 2.31645 21.2448 2.3312L19.04 2.56C18.8933 2.57526 18.7741 2.68533 18.7472 2.8304L18.3312 5.016 16.2784 4.16C16.1419 4.10344 15.9845 4.14312 15.8912 4.2576L14.4912 5.9744C14.3981 6.08878 14.391 6.25064 14.4736 6.3728L15.7248 8.2112 13.6672 9.0576C13.5308 9.11374 13.4479 9.25334 13.464 9.4L13.6864 11.6048C13.702 11.7517 13.8117 11.8712 13.9568 11.8992L16.1424 12.32 15.2864 14.3664C15.2292 14.502 15.2683 14.6591 15.3824 14.752L17.1008 16.16C17.2149 16.2523 17.3758 16.2594 17.4976 16.1776L19.3376 14.9248 20.184 16.9824C20.2355 17.1067 20.3566 17.1882 20.4912 17.1888L20.5264 17.1888 22.7296 16.9648C22.877 16.9502 22.997 16.84 23.024 16.6944L23.4384 14.5104 25.4928 15.36C25.6283 15.4172 25.7854 15.3781 25.8784 15.264L27.28 13.5456C27.3726 13.4308 27.379 13.269 27.296 13.1472L26.0448 11.3088 28.1024 10.4624C28.2387 10.406 28.3219 10.2668 28.3072 10.12ZM25.4112 10.8464C25.2406 10.9173 25.1598 11.113 25.2307 11.2835 25.2392 11.3041 25.2499 11.3239 25.2624 11.3424L26.6048 13.3152 25.52 14.648 23.3168 13.728C23.224 13.6893 23.1187 13.6946 23.0304 13.7424 22.9421 13.7906 22.88 13.8757 22.8608 13.9744L22.416 16.32 20.7056 16.4944 19.7968 14.2864C19.7605 14.1928 19.6822 14.1217 19.5856 14.0944 19.4896 14.0651 19.3854 14.081 19.3024 14.1376L17.328 15.4816 16 14.4 16.9184 12.1984C16.9571 12.1056 16.9518 12.0004 16.904 11.912 16.8573 11.8232 16.7723 11.7607 16.6736 11.7424L14.3248 11.2896 14.152 9.5792 16.3584 8.672C16.4515 8.63368 16.5226 8.55557 16.552 8.4592 16.5811 8.36291 16.5646 8.25862 16.5072 8.176L15.1648 6.2032 16.2512 4.872 18.4544 5.7904C18.5466 5.82904 18.6514 5.82374 18.7392 5.776 18.8288 5.73016 18.8917 5.6448 18.9088 5.5456L19.36 3.2 21.0688 3.0256 21.9776 5.2336C22.016 5.32677 22.0941 5.39784 22.1904 5.4272 22.2867 5.45626 22.391 5.43976 22.4736 5.3824L24.4464 4.04 25.7728 5.12 24.8544 7.328C24.8157 7.42075 24.821 7.526 24.8688 7.6144 24.917 7.70267 25.0021 7.76485 25.1008 7.784L27.4448 8.2288 27.6192 9.9392Z" stroke="#00B5CC" stroke-width="0.688172" fill="#00B5CC" transform="matrix(1 0 0 1.00915 703 617)"/><path d="M20.5536 6.5024C18.7544 6.6809 17.4406 8.28408 17.6192 10.0832 17.7856 11.7602 19.1979 13.0369 20.8832 13.0336 20.9936 13.0336 21.104 13.0336 21.216 13.0176 23.0152 12.8347 24.3253 11.2279 24.1424 9.4288 23.9595 7.62968 22.3528 6.31949 20.5536 6.5024ZM21.1488 12.3536C19.7138 12.4778 18.4498 11.4153 18.3256 9.98027 18.2038 8.5751 19.2214 7.32782 20.6224 7.1648 20.7101 7.15574 20.7982 7.15147 20.8864 7.152 22.3267 7.15811 23.4894 8.33069 23.4834 9.77104 23.4776 11.1013 22.4717 12.2141 21.1488 12.3536Z" stroke="#00B5CC" stroke-width="0.688172" fill="#00B5CC" transform="matrix(1 0 0 1.00915 703 617)"/><path d="M25.2032 21.3008C25.1742 21.1562 25.0539 21.0477 24.9072 21.0336L23.1264 20.8736 23.6576 19.1648C23.7005 19.0238 23.6467 18.8715 23.5248 18.7888L21.9872 17.76C21.865 17.6781 21.7034 17.6866 21.5904 17.7808L20.2128 18.9216 19.3792 17.3376C19.3101 17.2074 19.1638 17.1379 19.0192 17.1664L17.2048 17.5248C17.0603 17.5534 16.952 17.6741 16.9392 17.8208L16.7712 19.6032 15.0624 19.072C14.9215 19.0274 14.7681 19.0816 14.6864 19.2048L13.6576 20.7408C13.5759 20.8637 13.5843 21.0256 13.6784 21.1392L14.8176 22.5152 13.2352 23.3488C13.105 23.4179 13.0355 23.5642 13.064 23.7088L13.4224 25.5232C13.4514 25.6678 13.5716 25.7763 13.7184 25.7904L15.4992 25.9504 14.968 27.6592C14.9251 27.8002 14.9789 27.9525 15.1008 28.0352L16.6384 29.064C16.7613 29.1458 16.9232 29.1373 17.0368 29.0432L18.4144 27.9024 19.2464 29.4864C19.3048 29.5957 19.4186 29.6638 19.5424 29.664 19.5637 29.6662 19.5851 29.6662 19.6064 29.664L21.4208 29.3056C21.5653 29.277 21.6736 29.1563 21.6864 29.0096L21.8544 27.2288 23.5632 27.76C23.7042 27.8029 23.8565 27.7491 23.9392 27.6272L24.968 26.0896C25.0498 25.9667 25.0413 25.8048 24.9472 25.6912L23.808 24.3136 25.3904 23.4816C25.5214 23.4133 25.5912 23.2664 25.5616 23.1216ZM23.1328 23.9088C22.9702 23.9944 22.9078 24.1957 22.9934 24.3584 23.0043 24.3789 23.0171 24.3982 23.032 24.416L24.2752 25.9184 23.5232 27.0384 21.6608 26.4592C21.4853 26.4045 21.2987 26.5024 21.244 26.6778 21.2371 26.6998 21.2326 26.7226 21.2304 26.7456L21.0464 28.688 19.7216 28.96 18.8128 27.2336C18.7664 27.1442 18.6814 27.0811 18.5824 27.0624 18.5606 27.06 18.5386 27.06 18.5168 27.0624 18.4394 27.0616 18.3643 27.089 18.3056 27.1392L16.8 28.3712 15.68 27.6192 16.2576 25.76C16.3115 25.5834 16.2122 25.3965 16.0355 25.3426 16.0146 25.3362 15.993 25.3318 15.9712 25.3296L14.0288 25.1472 13.76 23.816 15.4864 22.9072C15.649 22.8216 15.7114 22.6203 15.6257 22.4576 15.6149 22.4371 15.602 22.4178 15.5872 22.4L14.344 20.8992 15.096 19.7792 16.96 20.3552C17.0563 20.3845 17.1608 20.3693 17.2448 20.3136 17.3285 20.2581 17.3821 20.1674 17.3904 20.0672L17.5744 18.1248 18.9008 17.8624 19.808 19.5888C19.8554 19.6778 19.9397 19.7411 20.0384 19.7616 20.137 19.7798 20.2387 19.7541 20.3168 19.6912L21.8192 18.4464 22.9392 19.1984 22.36 21.0608C22.3309 21.1573 22.3461 21.2616 22.4016 21.3456 22.4574 21.4293 22.5478 21.4832 22.648 21.4928L24.5888 21.6736 24.8512 23.0016Z" stroke="#00B5CC" stroke-width="0.688172" fill="#00B5CC" transform="matrix(1 0 0 1.00915 703 617)"/><path d="M20.864 21.0928C19.5846 20.2368 17.8536 20.58 16.9976 21.8594 16.1414 23.1387 16.4846 24.8698 17.764 25.7258 19.0434 26.5818 20.7744 26.2386 21.6306 24.9592 22.0416 24.3448 22.1918 23.5923 22.048 22.8672 21.9061 22.1414 21.4797 21.5024 20.864 21.0928ZM19.7248 25.4896C18.5842 25.7576 17.4422 25.0502 17.1742 23.9094 16.9062 22.7688 17.6136 21.6269 18.7542 21.3589 18.8032 21.3474 18.8526 21.3376 18.9024 21.3296 19.0389 21.3022 19.1776 21.2883 19.3168 21.288 20.4885 21.2891 21.4374 22.2398 21.4363 23.4117 21.4354 24.4245 20.7186 25.2955 19.7248 25.4912Z" stroke="#00B5CC" stroke-width="0.688172" fill="#00B5CC" transform="matrix(1 0 0 1.00915 703 617)"/><path d="M13.6656 19.1104 12.9712 17.744 14.4512 17.3472C14.5961 17.3083 14.697 17.1773 14.6976 17.0272L14.7408 15.3936C14.7423 15.248 14.6489 15.1184 14.5104 15.0736L13.0544 14.5936 13.8192 13.28C13.893 13.1523 13.8734 12.9912 13.7712 12.8848L12.6512 11.6992C12.55 11.5921 12.3903 11.5647 12.2592 11.632L10.888 12.32 10.4912 10.84C10.4519 10.6951 10.3213 10.5939 10.1712 10.592L8.544 10.5488C8.39752 10.5428 8.26566 10.637 8.224 10.7776L7.744 12.2352 6.416 11.4704C6.2879 11.397 6.12691 11.4158 6.0192 11.5168L4.8352 12.6368C4.72854 12.7381 4.70061 12.8972 4.7664 13.0288L5.4608 14.4 3.9808 14.7968C3.83594 14.8357 3.73502 14.9668 3.7344 15.1168L3.6912 16.7504C3.69075 16.8957 3.78371 17.0248 3.9216 17.0704L5.3776 17.5504 4.6128 18.88C4.5393 19.0083 4.55882 19.1698 4.6608 19.2768L5.7808 20.4624C5.88277 20.5693 6.04275 20.5966 6.1744 20.5296L7.5408 19.8352 7.9376 21.3152C7.97654 21.46 8.10758 21.561 8.2576 21.5616L9.888 21.6 9.896 21.6C10.0416 21.6014 10.1712 21.5082 10.216 21.3696L10.696 19.9136 12.024 20.6784C12.1521 20.7518 12.3131 20.733 12.4208 20.632L13.6048 19.512C13.7128 19.4069 13.7377 19.2427 13.6656 19.1104ZM12.1328 19.9728 10.6656 19.128C10.579 19.0757 10.4728 19.0674 10.3792 19.1056 10.2858 19.1411 10.2135 19.217 10.1824 19.312L9.656 20.9232 8.52 20.8928 8.08 19.2576C8.05467 19.1605 7.9863 19.0803 7.8944 19.04 7.80381 18.9968 7.69858 18.9968 7.608 19.04L6.0976 19.808 5.3152 18.984 6.16 17.5152C6.21178 17.4291 6.22008 17.3235 6.1824 17.2304 6.14682 17.1366 6.07106 17.0638 5.976 17.032L4.3648 16.5072 4.3952 15.3696 6.0304 14.9296C6.1275 14.9043 6.20768 14.8359 6.248 14.744 6.29118 14.6534 6.29118 14.5482 6.248 14.4576L5.4736 12.96 6.2976 12.1776 7.7664 13.024C7.92637 13.1145 8.12942 13.0582 8.21994 12.8982 8.2307 12.8792 8.23957 12.8592 8.2464 12.8384L8.7728 11.2272 9.9072 11.2576 10.352 12.888C10.3773 12.9851 10.4457 13.0653 10.5376 13.1056 10.6282 13.1488 10.7334 13.1488 10.824 13.1056L12.3344 12.3376 13.12 13.1552 12.2736 14.6224C12.2241 14.7098 12.2159 14.8147 12.2512 14.9088 12.2875 15.0023 12.3639 15.0745 12.4592 15.1056L14.0672 15.632 14.0368 16.768 12.4016 17.208C12.3045 17.2333 12.2243 17.3018 12.184 17.3936 12.1408 17.4842 12.1408 17.5894 12.184 17.68L12.952 19.1904Z" stroke="#00B5CC" stroke-width="0.688172" fill="#00B5CC" transform="matrix(1 0 0 1.00915 703 617)"/><path d="M9.28 13.5712C7.89973 13.5014 6.72419 14.5637 6.65437 15.944 6.58456 17.3243 7.64688 18.4998 9.02715 18.5696 9.06768 18.5717 9.10824 18.5728 9.1488 18.5728L9.216 18.5728C10.5977 18.5443 11.6948 17.4011 11.6663 16.0194 11.6392 14.7025 10.5958 13.632 9.28 13.5712ZM11.0496 16.12C11.0379 16.6062 10.8316 17.0674 10.4768 17.4 10.1281 17.7413 9.65398 17.9237 9.1664 17.904 8.15541 17.832 7.39414 16.9542 7.46606 15.9432 7.53222 15.0134 8.2848 14.281 9.216 14.24L9.264 14.24C10.2767 14.267 11.0763 15.1089 11.0512 16.1216Z" stroke="#00B5CC" stroke-width="0.688172" fill="#00B5CC" transform="matrix(1 0 0 1.00915 703 617)"/><text fill="#00B5CC" font-family="Arial,Arial_MSFontService,sans-serif" font-weight="700" font-size="5" transform="matrix(0.16 0 0 0.161464 703 652)">Created by BaristaIcon<tspan font-size="5" x="0" y="6.19333">from the Noun Project</tspan></text></g></g></g></g></svg>