<svg width="43" height="38" xmlns="http://www.w3.org/2000/svg" xmlns:xlink="http://www.w3.org/1999/xlink" overflow="hidden"><defs><clipPath id="clip0"><rect x="703" y="655" width="43" height="38"/></clipPath><clipPath id="clip1"><rect x="703" y="656" width="42" height="36"/></clipPath><clipPath id="clip2"><rect x="703" y="656" width="42" height="36"/></clipPath><clipPath id="clip3"><rect x="703" y="656" width="42" height="53"/></clipPath></defs><g clip-path="url(#clip0)" transform="translate(-703 -655)"><g clip-path="url(#clip1)"><g clip-path="url(#clip2)"><g clip-path="url(#clip3)"><path d="M37.4976 28.3315 36.6643 28.3315 36.6643 9.16608C36.6643 8.70587 36.2912 8.3328 35.831 8.3328L5.83296 8.3328C5.37275 8.3328 4.99968 8.70587 4.99968 9.16608L4.99968 28.3315 4.1664 28.3315C3.70619 28.3315 3.33312 28.7046 3.33312 29.1648L3.33312 30.8314C3.33312 32.212 4.45234 33.3312 5.83296 33.3312L35.831 33.3312C37.2117 33.3312 38.3309 32.212 38.3309 30.8314L38.3309 29.1648C38.3309 28.7046 37.9578 28.3315 37.4976 28.3315ZM6.66624 9.99936 34.9978 9.99936 34.9978 28.3315 6.66624 28.3315ZM36.6643 30.8314C36.6643 31.2916 36.2912 31.6646 35.831 31.6646L5.83296 31.6646C5.37275 31.6646 4.99968 31.2916 4.99968 30.8314L4.99968 29.9981 17.3656 29.9981C17.3656 30.4583 17.7386 30.8314 18.1988 30.8314L23.4652 30.8314C23.9254 30.8314 24.2984 30.4583 24.2984 29.9981L36.6643 29.9981ZM16.4223 16.4223 13.6775 19.1654 16.4223 21.9086C16.7481 22.2344 16.7481 22.7627 16.4223 23.0885 16.0965 23.4144 15.5682 23.4144 15.2424 23.0885L11.9092 19.7554C11.5834 19.4304 11.5827 18.9028 11.9077 18.577 11.9082 18.5765 11.9087 18.576 11.9092 18.5755L15.2424 15.2424C15.5682 14.9165 16.0965 14.9165 16.4223 15.2424 16.7481 15.5682 16.7481 16.0965 16.4223 16.4223ZM29.7548 19.7554 26.4216 23.0885C26.0958 23.4144 25.5675 23.4144 25.2417 23.0885 24.9159 22.7627 24.9159 22.2344 25.2417 21.9086L27.9865 19.1654 25.2417 16.4223C24.9159 16.0965 24.9159 15.5682 25.2417 15.2424 25.5675 14.9165 26.0958 14.9165 26.4216 15.2424L29.7548 18.5755C30.0806 18.9005 30.0813 19.4281 29.7563 19.7539 29.7558 19.7544 29.7553 19.7549 29.7548 19.7554ZM23.2435 16.2056 19.9104 22.8719C19.701 23.2817 19.1991 23.4442 18.7893 23.2348 18.3839 23.0278 18.2197 22.5338 18.4205 22.1253L21.7536 15.459C21.9566 15.046 22.456 14.8757 22.869 15.0787 23.282 15.2817 23.4523 15.7811 23.2493 16.1941 23.2474 16.198 23.2455 16.2018 23.2435 16.2056Z" fill="#00B5CC" transform="matrix(1 0 0 1.00159 703.168 656)"/><text fill="#00B5CC" font-family="Arial,Arial_MSFontService,sans-serif" font-weight="700" font-size="5" transform="matrix(1.66656 0 0 1.6692 703.168 723)">Created by The Icon Z<tspan font-size="5" x="0" y="4.79271">from the Noun Project</tspan></text></g></g></g></g></svg>