<svg width="54" height="54" xmlns="http://www.w3.org/2000/svg" xmlns:xlink="http://www.w3.org/1999/xlink" overflow="hidden"><defs><clipPath id="clip0"><rect x="838" y="560" width="54" height="54"/></clipPath><clipPath id="clip1"><path d="M869.479 560.412 891.318 592.691 861.001 613.204 839.161 580.925Z" fill-rule="evenodd" clip-rule="evenodd"/></clipPath><clipPath id="clip2"><path d="M869.479 560.412 891.318 592.691 861.001 613.204 839.161 580.925Z" fill-rule="evenodd" clip-rule="evenodd"/></clipPath><clipPath id="clip3"><path d="M869.479 560.412 891.318 592.691 850.97 619.99 829.131 587.712Z" fill-rule="evenodd" clip-rule="evenodd"/></clipPath></defs><g clip-path="url(#clip0)" transform="translate(-838 -560)"><g clip-path="url(#clip1)"><g clip-path="url(#clip2)"><g clip-path="url(#clip3)"><path d="M30.1751 375.578C29.7299 375.287 29.1984 375.32 28.7168 375.484 28.2351 375.647 27.7517 375.948 27.2504 376.347 26.2478 377.146 25.1673 378.364 24.1919 379.859L22.0711 383.109 17.4955 382.696C17.669 382.3 17.7589 381.886 17.7422 381.488 17.719 380.936 17.4806 380.384 16.9872 380.063 16.4938 379.741 15.8823 379.738 15.3677 379.939 14.8532 380.14 14.3943 380.531 14.0541 381.053L13.2347 382.308 10.0968 382.021C9.96967 382.008 9.84146 382.035 9.7306 382.098L6.76983 383.823C6.4785 383.986 6.37487 384.355 6.53837 384.646 6.61704 384.786 6.74829 384.889 6.90312 384.933L18.6832 388.301 16.8584 391.098C15.8528 392.639 15.2141 394.121 14.9016 395.388L8.90059 395.384C8.77847 395.385 8.65943 395.422 8.55914 395.492L6.83387 396.683C6.55822 396.872 6.48776 397.249 6.67651 397.524 6.76515 397.654 6.90064 397.744 7.05436 397.775L14.9122 399.291 19.1656 405.663C19.3499 405.941 19.7252 406.018 20.0038 405.834 20.1233 405.755 20.2109 405.636 20.251 405.498L20.8259 403.556C20.8672 403.414 20.8545 403.261 20.7903 403.127L18.1492 397.582C19.2009 396.788 20.3189 395.594 21.3435 394.024L23.1063 391.322 30.9958 400.653C31.2076 400.911 31.5887 400.949 31.8471 400.737 31.964 400.642 32.0408 400.505 32.0623 400.356L32.5031 397.559C32.5256 397.426 32.5034 397.29 32.4398 397.172L30.7881 394.123 31.7727 392.614C32.113 392.092 32.2864 391.515 32.2632 390.963 32.24 390.411 31.991 389.852 31.4976 389.53 31.0043 389.208 30.4033 389.212 29.8888 389.413 29.4423 389.588 29.0486 389.919 28.7271 390.341L26.4666 386.172 28.677 382.785C29.6524 381.29 30.3316 379.811 30.659 378.571 30.8227 377.952 30.9037 377.388 30.859 376.881 30.8143 376.375 30.6203 375.868 30.1751 375.577ZM29.5141 376.591C29.5493 376.614 29.6355 376.695 29.6613 376.988 29.6871 377.28 29.6323 377.731 29.4921 378.261 29.2118 379.322 28.5806 380.719 27.6639 382.124L25.2607 385.807C25.1406 385.992 25.1309 386.228 25.2353 386.422L31.2765 397.571 31.0655 398.863 23.5013 389.91C23.2814 389.659 22.8992 389.633 22.6477 389.853 22.6067 389.889 22.5707 389.93 22.5408 389.975L20.3304 393.363C19.2456 395.026 18.0041 396.312 17.0801 396.915 16.8208 397.08 16.7264 397.413 16.8606 397.689L19.598 403.432 19.456 403.927 15.7843 398.416C15.697 398.28 15.5589 398.185 15.4007 398.151L8.70195 396.865 9.10814 396.588 15.3363 396.588C15.6297 396.588 15.8811 396.378 15.9325 396.089 16.1277 394.999 16.8089 393.386 17.8715 391.757L20.1438 388.275C20.3268 387.995 20.2486 387.62 19.9692 387.437 19.9189 387.404 19.864 387.379 19.8063 387.362L8.5975 384.156 10.1717 383.242 22.3314 384.346C22.5514 384.363 22.7633 384.259 22.8844 384.075L25.205 380.518C26.1216 379.113 27.1458 377.973 28.0041 377.289 28.4332 376.947 28.8238 376.715 29.1019 376.621 29.38 376.527 29.4787 376.566 29.514 376.589ZM16.3261 381.076C16.4388 381.149 16.5225 381.282 16.5334 381.542 16.5444 381.802 16.4627 382.158 16.2492 382.485L16.1872 382.58 14.599 382.431 15.0672 381.714C15.2808 381.386 15.5735 381.168 15.8158 381.074 16.0581 380.979 16.2134 381.002 16.3261 381.076ZM30.8366 390.544C30.9493 390.617 31.0435 390.757 31.0545 391.017 31.0654 391.277 30.9732 391.626 30.7596 391.953L30.133 392.913 29.3679 391.526 29.5883 391.189C29.8018 390.861 30.084 390.636 30.3263 390.542 30.5686 390.447 30.7239 390.47 30.8366 390.542Z" fill="#00B5CC" transform="matrix(0.56038 0.828241 -0.828238 0.560377 1176.89 352.423)"/><text fill="#00B5CC" font-family="Arial,Arial_MSFontService,sans-serif" font-weight="700" font-size="5" transform="matrix(0.218395 0.322787 -0.322786 0.218394 832.359 586)">Created by Royal Icon<tspan font-size="5" x="-0.195481" y="4.86781">from the Noun Project</tspan></text></g></g></g></g></svg>