<svg width="59" height="60" xmlns="http://www.w3.org/2000/svg" xmlns:xlink="http://www.w3.org/1999/xlink" overflow="hidden"><defs><clipPath id="clip0"><rect x="862" y="610" width="59" height="60"/></clipPath><clipPath id="clip1"><rect x="862" y="611" width="58" height="58"/></clipPath><clipPath id="clip2"><rect x="862" y="611" width="58" height="58"/></clipPath><clipPath id="clip3"><rect x="862" y="611" width="58" height="73"/></clipPath></defs><g clip-path="url(#clip0)" transform="translate(-862 -610)"><g clip-path="url(#clip1)"><g clip-path="url(#clip2)"><g clip-path="url(#clip3)"><path d="M57.2818 40.9568C57.1664 40.7837 54.6283 36.9765 48.0521 38.4763 44.0718 39.3416 40.9568 40.3799 39.2262 41.0145 39.0532 39.457 37.7264 38.2456 36.1112 38.1302 36.1112 38.1302 11.9986 33.4 11.9986 33.4L11.9986 32.0155C11.9986 31.4963 11.5948 31.0925 11.0756 31.0925L1.26908 31.0925C0.749913 31.0925 0.346114 31.4963 0.346114 32.0155L0.346114 50.8787C0.346114 51.3979 0.749913 51.8017 1.26908 51.8017L11.0756 51.8017C11.5948 51.8017 11.9986 51.3979 11.9986 50.8787L11.9986 48.9174C15.6905 50.3595 26.1893 54.3975 31.6694 54.3975 38.3032 54.3975 56.2435 42.745 56.9934 42.2836 57.4549 41.9374 57.5702 41.3606 57.2818 40.9568ZM2.19205 49.9557 2.19205 32.9385 10.1527 32.9385 10.1527 34.1499C10.1527 34.1499 10.1527 34.1499 10.1527 34.1499L10.1527 47.4753C10.1527 47.4753 10.1527 47.4753 10.1527 47.4753L10.1527 49.8981 2.19205 49.8981ZM31.6694 52.4939C26.1893 52.4939 14.7098 47.9944 11.9986 46.8984L11.9986 35.3613C11.9986 35.3613 35.9381 40.0338 35.9381 40.0338 36.7457 40.0338 37.3803 40.6684 37.3803 41.476 37.3803 42.2836 36.7457 42.9181 35.9381 42.9181L22.4974 42.9181C21.9782 42.9181 21.5744 43.3219 21.5744 43.8411 21.5744 44.3602 21.9782 44.764 22.4974 44.764L35.9381 44.764C37.0919 44.764 38.1302 44.1295 38.707 43.2065 39.7454 42.8027 43.4373 41.4183 48.4559 40.3222 52.0324 39.5146 54.1091 40.553 55.0321 41.3029 51.2248 43.668 36.9765 52.4939 31.6694 52.4939Z" fill="#00B5CC" transform="matrix(1.00545 0 0 1 862 611)"/><path d="M41.7067 13.9599C41.7067 14.4214 42.1105 14.7675 42.5143 14.7675 42.5143 14.7675 42.5143 14.7675 42.5143 14.7675 42.9758 14.7675 43.3219 14.3637 43.3219 13.9599 43.3219 12.6908 42.4566 10.3834 39.457 9.97961L39.457 9.05664C39.457 8.59516 39.1108 8.24904 38.6494 8.24904 38.1879 8.24904 37.8418 8.59516 37.8418 9.05664L37.8418 9.97961C36.688 10.095 35.7651 10.4988 35.1305 11.191 34.0922 12.2294 34.0345 13.6138 34.0345 13.9022 34.0345 14.1907 33.9768 15.6328 35.0152 16.7865 35.7074 17.5364 36.688 17.9979 37.8994 18.1133L37.8994 23.0742C35.8805 22.7281 35.7074 21.1129 35.7074 20.7668 35.7074 20.3053 35.3036 19.9592 34.8998 19.9592 34.4383 19.9592 34.0922 20.363 34.0922 20.7668 34.0922 22.0359 34.9575 24.3433 37.9571 24.7471L37.9571 25.6701C37.9571 26.1316 38.3032 26.4777 38.7647 26.4777 39.2262 26.4777 39.5723 26.1316 39.5723 25.6701L39.5723 24.7471C40.726 24.6318 41.649 24.228 42.2836 23.5357 43.3219 22.4974 43.3796 21.1129 43.3796 20.8245 43.3796 20.5361 43.4373 19.0939 42.3989 17.9402 41.7067 17.1903 40.726 16.7288 39.5146 16.6135L39.5146 11.6525C41.5336 12.0563 41.649 13.6138 41.7067 13.9599ZM37.8418 16.4981C37.1495 16.3827 36.5727 16.152 36.2266 15.7482 35.592 15.0559 35.7074 14.0753 35.7074 14.0753 35.7074 14.0176 35.7074 14.0176 35.7074 13.9599 35.7074 13.9599 35.7074 13.0369 36.3419 12.3447 36.688 11.9986 37.2072 11.7679 37.8994 11.6525L37.8994 16.4981ZM41.1298 19.0363C41.7644 19.7285 41.649 20.7091 41.649 20.7091 41.649 20.7668 41.649 20.7668 41.649 20.8245 41.649 20.8245 41.649 21.7475 41.0145 22.4397 40.6684 22.7858 40.1492 23.0166 39.457 23.1319L39.457 18.2863C40.2069 18.4017 40.7837 18.6325 41.1298 19.0363Z" fill="#00B5CC" transform="matrix(1.00545 0 0 1 862 611)"/><path d="M38.6494 32.3616C30.4003 32.3616 23.6511 25.6124 23.6511 17.3057 23.6511 8.99896 30.4003 2.24974 38.6494 2.24974 46.8984 2.24974 53.7053 8.99896 53.7053 17.3057 53.7053 25.6124 46.9561 32.3616 38.6494 32.3616ZM38.6494 4.09568C31.381 4.09568 25.497 10.0373 25.497 17.3057 25.497 24.5741 31.4387 30.5157 38.707 30.5157 45.9754 30.5157 51.9171 24.5741 51.9171 17.3057 51.8594 10.0373 45.9177 4.09568 38.6494 4.09568Z" fill="#00B5CC" transform="matrix(1.00545 0 0 1 862 611)"/><text fill="#00B5CC" font-family="Arial,Arial_MSFontService,sans-serif" font-weight="700" font-size="5" transform="matrix(0.58 0 0 0.576856 862 677)">Created by Gem Designs<tspan font-size="5" x="0" y="5.2006">from the Noun Project</tspan></text></g></g></g></g></svg>