<svg width="102" height="97" xmlns="http://www.w3.org/2000/svg" xmlns:xlink="http://www.w3.org/1999/xlink" overflow="hidden"><defs><clipPath id="clip0"><rect x="855" y="212" width="102" height="97"/></clipPath><clipPath id="clip1"><rect x="856" y="212" width="100" height="96"/></clipPath><clipPath id="clip2"><rect x="856" y="212" width="100" height="96"/></clipPath><clipPath id="clip3"><rect x="856" y="212" width="100" height="126"/></clipPath></defs><g clip-path="url(#clip0)" transform="translate(-855 -212)"><g clip-path="url(#clip1)"><g clip-path="url(#clip2)"><g clip-path="url(#clip3)"><path d="M15.515 50.014C15.515 67.959 28.904 82.858 46.659 84.669 46.694 84.672 46.728 84.674 46.762 84.674 47.269 84.674 47.703 84.29 47.756 83.776 47.812 83.226 47.412 82.736 46.863 82.679 30.133 80.972 17.516 66.929 17.516 50.014 17.516 33.147 30.437 18.939 47.06 17.339L43.549 20.865C43.159 21.257 43.16 21.89 43.552 22.28 43.747 22.474 44.002 22.571 44.258 22.571 44.515 22.571 44.771 22.472 44.966 22.277L50.243 16.977C50.632 16.586 50.632 15.956 50.243 15.565L44.966 10.266C44.577 9.876 43.944 9.873 43.552 10.263 43.16 10.653 43.159 11.286 43.549 11.678L47.175 15.318C29.385 16.87 15.515 32.016 15.515 50.014Z" transform="matrix(1 0 0 1.00503 856 212)"/><path d="M56.862 77.665C56.47 77.275 55.838 77.278 55.448 77.668L50.171 82.968C49.782 83.359 49.782 83.989 50.171 84.38L55.448 89.679C55.643 89.874 55.9 89.973 56.156 89.973 56.411 89.973 56.667 89.876 56.862 89.682 57.254 89.292 57.255 88.659 56.865 88.267L53.239 84.627C71.027 83.077 84.897 67.93 84.897 49.932 84.897 31.987 71.508 17.088 53.753 15.277 53.199 15.226 52.712 15.622 52.657 16.171 52.601 16.721 53.001 17.211 53.55 17.268 70.28 18.975 82.897 33.018 82.897 49.933 82.897 66.8 69.976 81.008 53.353 82.608L56.864 79.082C57.254 78.688 57.253 78.055 56.862 77.665Z" transform="matrix(1 0 0 1.00503 856 212)"/><text font-family="Arial,Arial_MSFontService,sans-serif" font-weight="700" font-size="5" transform="matrix(1 0 0 1.00503 856 328)">Created by Made by Made<tspan font-size="5" x="0" y="4.975">from the Noun Project</tspan></text></g></g></g><text font-family="Open Sans,Open Sans_MSFontService,sans-serif" font-weight="400" font-size="32" transform="translate(887.921 275)">SF</text></g></svg>