<svg width="101" height="109" xmlns="http://www.w3.org/2000/svg" xmlns:xlink="http://www.w3.org/1999/xlink" overflow="hidden"><defs><clipPath id="clip0"><rect x="941" y="190" width="101" height="109"/></clipPath><clipPath id="clip1"><rect x="941" y="191" width="100" height="108"/></clipPath><clipPath id="clip2"><rect x="941" y="191" width="100" height="108"/></clipPath><clipPath id="clip3"><rect x="941" y="191" width="100" height="126"/></clipPath></defs><g clip-path="url(#clip0)" transform="translate(-941 -190)"><g clip-path="url(#clip1)"><g clip-path="url(#clip2)"><g clip-path="url(#clip3)"><path d="M23.9702 63.5869 17.0918 63.5869C15.9888 63.5869 15.0918 64.4844 15.0918 65.5869L15.0918 72.4648C15.0918 73.5674 15.9888 74.4648 17.0918 74.4648L23.9702 74.4648C25.0732 74.4648 25.9702 73.5674 25.9702 72.4648L25.9702 65.5869C25.9702 64.4844 25.0732 63.5869 23.9702 63.5869ZM22.9702 71.4648 18.0918 71.4648 18.0918 66.5869 22.9702 66.5869 22.9702 71.4648ZM78.5791 13.8257C79.2256 14.3462 80.1689 14.2432 80.6875 13.5977 81.207 12.9526 81.1055 12.0083 80.46 11.4888 79.1624 10.4435 77.3185 9.78638 75.2627 9.61426L75.2627 8.67432C75.2627 7.8457 74.5908 7.17432 73.7627 7.17432 72.9346 7.17432 72.2627 7.8457 72.2627 8.67432L72.2627 9.72162C69.2771 10.2222 67.081 11.8754 66.7822 14.0879 66.6318 15.1978 66.9951 16.3564 67.8037 17.3506 68.8087 18.5852 70.4147 19.4882 72.2627 19.9105L72.2627 24.4699C70.9205 24.3201 69.7214 23.9023 68.9453 23.2778 68.2998 22.7593 67.3555 22.8613 66.8369 23.5059 66.3174 24.1509 66.4189 25.0952 67.0645 25.6147 68.3622 26.6602 70.2064 27.3174 72.2627 27.4894L72.2627 28.4292C72.2627 29.2578 72.9346 29.9292 73.7627 29.9292 74.5908 29.9292 75.2627 29.2578 75.2627 28.4292L75.2627 27.3809C78.2478 26.8789 80.4435 25.2277 80.7422 23.0151 80.8984 21.8604 80.5479 20.6885 79.7559 19.7153 78.7761 18.5106 77.1731 17.6717 75.2627 17.3207L75.2627 12.6337C76.6046 12.7836 77.8032 13.2013 78.5791 13.8257ZM72.2627 16.804C71.2478 16.4612 70.5231 15.9394 70.1309 15.457 69.9688 15.2578 69.7041 14.8667 69.7549 14.4893 69.837 13.8831 70.7851 13.1638 72.2627 12.8005L72.2627 16.804ZM77.4287 21.6084C77.7002 21.9414 77.8145 22.2798 77.7695 22.6138 77.6874 23.2202 76.74 23.9412 75.2627 24.3045L75.2627 20.3879C76.213 20.6393 76.9843 21.0621 77.4287 21.6084ZM49.5864 49.0615 42.7085 49.0615C41.6055 49.0615 40.7085 49.9585 40.7085 51.0615L40.7085 57.9395C40.7085 59.042 41.6055 59.9395 42.7085 59.9395L49.5864 59.9395C50.6895 59.9395 51.5859 59.042 51.5859 57.9395L51.5859 51.0615C51.5859 49.9585 50.6895 49.0615 49.5864 49.0615ZM48.5864 56.9395 43.7085 56.9395 43.7085 52.0615 48.5864 52.0615 48.5864 56.9395ZM36.7783 20.0107 29.8999 20.0107C28.7969 20.0107 27.8999 20.9077 27.8999 22.0107L27.8999 28.8892C27.8999 29.9922 28.7969 30.8892 29.8999 30.8892L36.7783 30.8892C37.8813 30.8892 38.7783 29.9922 38.7783 28.8892L38.7783 22.0107C38.7783 20.9077 37.8813 20.0107 36.7783 20.0107ZM35.7783 27.8892 30.8999 27.8892 30.8999 23.0107 35.7783 23.0107 35.7783 27.8892ZM49.5864 20.0107 42.7085 20.0107C41.6055 20.0107 40.7085 20.9077 40.7085 22.0107L40.7085 28.8892C40.7085 29.9922 41.6055 30.8892 42.7085 30.8892L49.5864 30.8892C50.6895 30.8892 51.5859 29.9922 51.5859 28.8892L51.5859 22.0107C51.5859 20.9077 50.6895 20.0107 49.5864 20.0107ZM48.5864 27.8892 43.7085 27.8892 43.7085 23.0107 48.5864 23.0107 48.5864 27.8892ZM49.5864 34.5361 42.7085 34.5361C41.6055 34.5361 40.7085 35.4331 40.7085 36.5361L40.7085 43.4141C40.7085 44.5171 41.6055 45.4141 42.7085 45.4141L49.5864 45.4141C50.6895 45.4141 51.5859 44.5171 51.5859 43.4141L51.5859 36.5361C51.5859 35.4331 50.6895 34.5361 49.5864 34.5361ZM48.5864 42.4141 43.7085 42.4141 43.7085 37.5361 48.5864 37.5361 48.5864 42.4141ZM23.9702 78.1113 17.0918 78.1113C15.9888 78.1113 15.0918 79.0088 15.0918 80.1113L15.0918 86.9902C15.0918 88.0928 15.9888 88.9902 17.0918 88.9902L23.9702 88.9902C25.0732 88.9902 25.9702 88.0928 25.9702 86.9902L25.9702 80.1113C25.9702 79.0088 25.0732 78.1113 23.9702 78.1113ZM22.9702 85.9902 18.0918 85.9902 18.0918 81.1113 22.9702 81.1113 22.9702 85.9902ZM73.7627 1.05176C66.0743 1.05176 59.5424 6.04254 57.1991 12.9492L11.2373 12.9492C9.85889 12.9492 8.7373 14.0708 8.7373 15.4492L8.7373 96.4482C8.7373 97.8271 9.85889 98.9482 11.2373 98.9482L68.25 98.9482C69.6289 98.9482 70.75 97.8271 70.75 96.4482L70.75 35.7736C71.7308 35.9448 72.7336 36.0518 73.7627 36.0518 83.4121 36.0518 91.2627 28.2012 91.2627 18.5518 91.2627 8.90234 83.4121 1.05176 73.7627 1.05176ZM56.5166 23.0107 56.8603 23.0107C57.3221 24.759 58.0428 26.3991 58.9879 27.8892L56.5166 27.8892 56.5166 23.0107ZM46.7842 95.9482 32.7026 95.9482 32.7026 81.1113 46.7842 81.1113 46.7842 95.9482ZM67.75 95.9482 49.7842 95.9482 49.7842 79.6113C49.7842 78.7832 49.1128 78.1113 48.2842 78.1113L31.2026 78.1113C30.374 78.1113 29.7026 78.7832 29.7026 79.6113L29.7026 95.9482 11.7373 95.9482 11.7373 15.9492 56.4781 15.9492C56.3502 16.8007 56.2627 17.6652 56.2627 18.5518 56.2627 19.0443 56.2965 19.5284 56.3366 20.0107L55.5166 20.0107C54.4141 20.0107 53.5166 20.9077 53.5166 22.0107L53.5166 28.8892C53.5166 29.9922 54.4141 30.8892 55.5166 30.8892L61.3658 30.8892C63.1513 32.683 65.3299 34.0753 67.75 34.965L67.75 95.9482ZM73.7627 33.0518C65.7676 33.0518 59.2627 26.5469 59.2627 18.5518 59.2627 10.5566 65.7676 4.05176 73.7627 4.05176 81.7578 4.05176 88.2627 10.5566 88.2627 18.5518 88.2627 26.5469 81.7578 33.0518 73.7627 33.0518ZM23.9702 34.5361 17.0918 34.5361C15.9888 34.5361 15.0918 35.4331 15.0918 36.5361L15.0918 43.4141C15.0918 44.5171 15.9888 45.4141 17.0918 45.4141L23.9702 45.4141C25.0732 45.4141 25.9702 44.5171 25.9702 43.4141L25.9702 36.5361C25.9702 35.4331 25.0732 34.5361 23.9702 34.5361ZM22.9702 42.4141 18.0918 42.4141 18.0918 37.5361 22.9702 37.5361 22.9702 42.4141ZM23.9702 49.0615 17.0918 49.0615C15.9888 49.0615 15.0918 49.9585 15.0918 51.0615L15.0918 57.9395C15.0918 59.042 15.9888 59.9395 17.0918 59.9395L23.9702 59.9395C25.0732 59.9395 25.9702 59.042 25.9702 57.9395L25.9702 51.0615C25.9702 49.9585 25.0732 49.0615 23.9702 49.0615ZM22.9702 56.9395 18.0918 56.9395 18.0918 52.0615 22.9702 52.0615 22.9702 56.9395ZM49.5864 63.5869 42.7085 63.5869C41.6055 63.5869 40.7085 64.4844 40.7085 65.5869L40.7085 72.4648C40.7085 73.5674 41.6055 74.4648 42.7085 74.4648L49.5864 74.4648C50.6895 74.4648 51.5859 73.5674 51.5859 72.4648L51.5859 65.5869C51.5859 64.4844 50.6895 63.5869 49.5864 63.5869ZM48.5864 71.4648 43.7085 71.4648 43.7085 66.5869 48.5864 66.5869 48.5864 71.4648ZM36.7783 34.5361 29.8999 34.5361C28.7969 34.5361 27.8999 35.4331 27.8999 36.5361L27.8999 43.4141C27.8999 44.5171 28.7969 45.4141 29.8999 45.4141L36.7783 45.4141C37.8813 45.4141 38.7783 44.5171 38.7783 43.4141L38.7783 36.5361C38.7783 35.4331 37.8813 34.5361 36.7783 34.5361ZM35.7783 42.4141 30.8999 42.4141 30.8999 37.5361 35.7783 37.5361 35.7783 42.4141ZM36.7783 49.0615 29.8999 49.0615C28.7969 49.0615 27.8999 49.9585 27.8999 51.0615L27.8999 57.9395C27.8999 59.042 28.7969 59.9395 29.8999 59.9395L36.7783 59.9395C37.8813 59.9395 38.7783 59.042 38.7783 57.9395L38.7783 51.0615C38.7783 49.9585 37.8813 49.0615 36.7783 49.0615ZM35.7783 56.9395 30.8999 56.9395 30.8999 52.0615 35.7783 52.0615 35.7783 56.9395ZM62.3945 63.5869 55.5166 63.5869C54.4141 63.5869 53.5166 64.4844 53.5166 65.5869L53.5166 72.4648C53.5166 73.5674 54.4141 74.4648 55.5166 74.4648L62.3945 74.4648C63.4971 74.4648 64.3945 73.5674 64.3945 72.4648L64.3945 65.5869C64.3945 64.4844 63.4971 63.5869 62.3945 63.5869ZM61.3945 71.4648 56.5166 71.4648 56.5166 66.5869 61.3945 66.5869 61.3945 71.4648ZM62.3945 78.1113 55.5166 78.1113C54.4141 78.1113 53.5166 79.0088 53.5166 80.1113L53.5166 86.9902C53.5166 88.0928 54.4141 88.9902 55.5166 88.9902L62.3945 88.9902C63.4971 88.9902 64.3945 88.0928 64.3945 86.9902L64.3945 80.1113C64.3945 79.0088 63.4971 78.1113 62.3945 78.1113ZM61.3945 85.9902 56.5166 85.9902 56.5166 81.1113 61.3945 81.1113 61.3945 85.9902ZM53.5166 36.5361 53.5166 43.4141C53.5166 44.5171 54.4141 45.4141 55.5166 45.4141L62.3945 45.4141C63.4971 45.4141 64.3945 44.5171 64.3945 43.4141L64.3945 36.5361C64.3945 35.4331 63.4971 34.5361 62.3945 34.5361L55.5166 34.5361C54.4141 34.5361 53.5166 35.4331 53.5166 36.5361ZM56.5166 37.5361 61.3945 37.5361 61.3945 42.4141 56.5166 42.4141 56.5166 37.5361ZM62.3945 49.0615 55.5166 49.0615C54.4141 49.0615 53.5166 49.9585 53.5166 51.0615L53.5166 57.9395C53.5166 59.042 54.4141 59.9395 55.5166 59.9395L62.3945 59.9395C63.4971 59.9395 64.3945 59.042 64.3945 57.9395L64.3945 51.0615C64.3945 49.9585 63.4971 49.0615 62.3945 49.0615ZM61.3945 56.9395 56.5166 56.9395 56.5166 52.0615 61.3945 52.0615 61.3945 56.9395ZM23.9702 20.0107 17.0918 20.0107C15.9888 20.0107 15.0918 20.9077 15.0918 22.0107L15.0918 28.8892C15.0918 29.9922 15.9888 30.8892 17.0918 30.8892L23.9702 30.8892C25.0732 30.8892 25.9702 29.9922 25.9702 28.8892L25.9702 22.0107C25.9702 20.9077 25.0732 20.0107 23.9702 20.0107ZM22.9702 27.8892 18.0918 27.8892 18.0918 23.0107 22.9702 23.0107 22.9702 27.8892ZM36.7783 63.5869 29.8999 63.5869C28.7969 63.5869 27.8999 64.4844 27.8999 65.5869L27.8999 72.4648C27.8999 73.5674 28.7969 74.4648 29.8999 74.4648L36.7783 74.4648C37.8813 74.4648 38.7783 73.5674 38.7783 72.4648L38.7783 65.5869C38.7783 64.4844 37.8813 63.5869 36.7783 63.5869ZM35.7783 71.4648 30.8999 71.4648 30.8999 66.5869 35.7783 66.5869 35.7783 71.4648Z" transform="matrix(1 0 0 1.00155 941 191)"/><text font-family="Arial,Arial_MSFontService,sans-serif" font-weight="700" font-size="5" transform="matrix(1 0 0 1.00155 941 306)">Created by Llisole<tspan font-size="5" x="0" y="4.99225">from the Noun Project</tspan></text></g></g></g></g></svg>