<svg xmlns="http://www.w3.org/2000/svg" width="511.993" height="512.001" viewBox="0 0 511.993 512.001">
  <path id="sun-umbrella" d="M492.5,451.008h-.2c-18.7.184-36.652,3.672-51.906,10.09-17.086,7.188-39.168,10.855-65.629,10.9q-7.57-.012-14.637-.48L286.07,257.809c2.918.2,5.813.309,8.68.309,26.168,0,50.031-8.258,71.277-24.723a139.406,139.406,0,0,0,20.984-20.57c15.727,3.836,30.863,4.758,45.16,2.73a104.943,104.943,0,0,0,50.348-21.793c9.84-7.691,15.789-15.926,22.09-24.648,1.254-1.73,2.559-3.539,3.957-5.426.012-.02.023-.039.035-.055.379-.512.727-1.039,1.051-1.578l.07-.117q.469-.8.859-1.621c.023-.051.051-.1.074-.152.25-.547.477-1.1.676-1.664.02-.055.043-.105.063-.156a20,20,0,0,0,.9-3.7c.027-.2.039-.395.059-.59.047-.418.094-.832.117-1.254.012-.27,0-.539.008-.809,0-.348.012-.691,0-1.039-.012-.3-.043-.59-.07-.883-.027-.316-.051-.637-.094-.953s-.1-.625-.16-.937c-.051-.289-.105-.578-.172-.863-.078-.34-.168-.676-.266-1.016-.07-.242-.141-.488-.219-.73-.125-.375-.262-.746-.406-1.117-.074-.184-.148-.371-.227-.555-.18-.418-.375-.832-.582-1.238-.062-.121-.125-.242-.191-.359-.246-.457-.508-.9-.789-1.344-.043-.062-.086-.129-.129-.191q-.469-.715-1-1.387l-.035-.047c-.207-.258-.414-.5-.621-.766-.039-.043-.074-.09-.113-.133-27.758-34.574-57.84-59.707-91.937-76.793A20,20,0,0,0,397.539,97.4c25.234,12.645,48.094,30.785,69.547,55.207a51.213,51.213,0,0,1-9.2,9.633c-18.125,14.164-39.133,17.8-64.023,11.047C358.262,121.418,313.395,95.578,265.82,69.262c18.191.949,35.387,2.363,51.855,4.711a20,20,0,0,0,5.645-39.6c-35.953-5.125-73.707-6.086-117.117-7.051l-4.809-13.867a20,20,0,0,0-37.793,13.1L168.055,39.4C124.719,71.063,86.543,101.539,57.41,140.981,23.289,187.172,5.218,241.258.546,311.2.5,311.79.5,312.379.515,312.961c0,.074,0,.152,0,.227,0,.027,0,.051,0,.078a19.977,19.977,0,0,0,20.465,20.41A151.36,151.36,0,0,0,58.136,338.6c26.543,0,50.051-8.316,70.2-24.895a124.412,124.412,0,0,0,17.676-18.191c37.824,7.852,71.172.543,99.293-21.8,1.031-.816,2.051-1.668,3.066-2.531l66.09,190.727c-.273-.113-.555-.219-.828-.336-16.5-7.012-36.691-10.754-56.836-10.566-18.7.188-36.656,3.676-51.91,10.09-17.086,7.191-39.164,10.855-65.625,10.9-24.387-.043-44.953-3.551-61.129-10.426-16.5-7.012-35.891-10.566-57.633-10.566a20,20,0,0,0,0,40c16.336,0,30.465,2.484,41.988,7.379C83.511,507.321,109.164,511.9,138.746,512h1c31.617-.1,58.754-4.816,80.656-14.031,10.359-4.359,23.426-6.832,36.793-6.961,14.758-.148,29.254,2.477,40.8,7.379,21.02,8.934,46.672,13.512,76.254,13.613h1c31.617-.1,58.754-4.816,80.656-14.031,10.359-4.359,23.426-6.832,36.793-6.961a20,20,0,0,0-.191-40ZM355.375,188.278a97.8,97.8,0,0,1-13.852,13.5c-19.926,15.441-42.969,19.855-70.223,13.4L229.637,94.95q6.035,3.363,12,6.656c44.285,24.465,83.051,45.895,113.734,86.672ZM102.922,282.821c-16.527,13.6-36.6,18.348-61.043,14.387,9.934-95.168,48.031-144.891,108.469-194-18.926,55.637-32.012,101.449-32.57,163.488a94.348,94.348,0,0,1-14.855,16.125Zm117.5-40.426c-17.6,13.984-38.133,18.832-62.434,14.676,1.836-54.324,14.531-95.457,33.41-150.289l42.418,122.41a96.632,96.632,0,0,1-13.395,13.2Zm0,0" transform="translate(-0.5 0)" fill="#7540ee"/>
</svg>
